<svg xmlns="http://www.w3.org/2000/svg" width="25.709" height="25.704" viewBox="0 0 25.709 25.704"><defs><style>.a{fill:#81d8d0;}</style></defs><path class="a" d="M12.852,8.5a6.59,6.59,0,1,0,6.59,6.59A6.58,6.58,0,0,0,12.852,8.5Zm0,10.875a4.284,4.284,0,1,1,4.284-4.284,4.292,4.292,0,0,1-4.284,4.284Zm8.4-11.144a1.537,1.537,0,1,1-1.537-1.537A1.534,1.534,0,0,1,21.249,8.23Zm4.365,1.56A7.607,7.607,0,0,0,23.538,4.4a7.657,7.657,0,0,0-5.386-2.076c-2.122-.12-8.483-.12-10.6,0A7.646,7.646,0,0,0,2.161,4.4,7.632,7.632,0,0,0,.085,9.784c-.12,2.122-.12,8.483,0,10.6a7.607,7.607,0,0,0,2.076,5.386,7.667,7.667,0,0,0,5.386,2.076c2.122.12,8.483.12,10.6,0a7.607,7.607,0,0,0,5.386-2.076,7.657,7.657,0,0,0,2.076-5.386c.12-2.122.12-8.477,0-10.6ZM22.872,22.666a4.338,4.338,0,0,1-2.443,2.443c-1.692.671-5.707.516-7.577.516s-5.89.149-7.577-.516a4.338,4.338,0,0,1-2.443-2.443c-.671-1.692-.516-5.707-.516-7.577s-.149-5.89.516-7.577A4.338,4.338,0,0,1,5.276,5.07c1.692-.671,5.707-.516,7.577-.516s5.89-.149,7.577.516a4.338,4.338,0,0,1,2.443,2.443c.671,1.692.516,5.707.516,7.577S23.543,20.98,22.872,22.666Z" transform="translate(0.005 -2.238)"/></svg>