<svg xmlns="http://www.w3.org/2000/svg" width="29.366" height="23.85" viewBox="0 0 29.366 23.85"><defs><style>.a{fill:#81d8d0;}</style></defs><path class="a" d="M26.347,9.325c.019.261.019.522.019.783,0,7.956-6.056,17.124-17.124,17.124A17.008,17.008,0,0,1,0,24.529a12.451,12.451,0,0,0,1.453.075,12.053,12.053,0,0,0,7.472-2.571A6.029,6.029,0,0,1,3.3,17.859a7.59,7.59,0,0,0,1.137.093,6.365,6.365,0,0,0,1.584-.2A6.019,6.019,0,0,1,1.192,11.84v-.075a6.061,6.061,0,0,0,2.72.764A6.027,6.027,0,0,1,2.05,4.48a17.107,17.107,0,0,0,12.41,6.3A6.794,6.794,0,0,1,14.31,9.4,6.024,6.024,0,0,1,24.726,5.281a11.849,11.849,0,0,0,3.82-1.453A6,6,0,0,1,25.9,7.145a12.065,12.065,0,0,0,3.466-.932,12.937,12.937,0,0,1-3.018,3.112Z" transform="translate(0 -3.381)"/></svg>