<svg xmlns="http://www.w3.org/2000/svg" xmlns:xlink="http://www.w3.org/1999/xlink" width="647" height="509.625" viewBox="0 0 647 509.625"><defs><style>.a,.aa,.ac{fill:#df602a;}.ab,.b,.f{fill:#fff;}.b{font-size:11px;font-family:Montserrat-Regular, Montserrat;}.c{opacity:0.361;fill:url(#a);}.d{fill:url(#b);}.e{fill:url(#c);}.f{opacity:0.8;}.af,.ag,.g,.m,.p,.q,.t,.u,.v,.w,.z{fill:none;stroke-linejoin:round;}.ag,.g,.p,.q{stroke:#fff;}.af,.ag,.g,.m,.p,.u,.v,.w{stroke-linecap:round;}.ag,.g{stroke-width:3px;}.aa,.ac,.h,.i,.j,.s,.y{stroke:#707070;}.aa,.ac,.af,.h,.i,.j,.m,.p,.q,.r,.s,.t,.u,.v,.w,.x,.y,.z{stroke-width:2px;}.h{fill:url(#d);}.i{fill:#2e2e2e;}.j{fill:url(#e);}.ac,.k,.n{opacity:0.2;}.l,.n{fill:#81d8d0;}.m{stroke:#1c1c1c;}.o{fill:url(#f);}.r,.x{fill:#fafeff;stroke-miterlimit:10;}.r,.t,.w{stroke:#81d8d0;}.r{opacity:0.396;}.s{fill:#eaeaea;}.u{stroke:#df602a;}.v{stroke:#ff568e;}.x{stroke:#c4ede8;}.y{fill:#b9fff9;}.z{stroke:#59afe3;}.ad{fill:url(#g);}.ae{fill:url(#h);}.af{stroke:#fffcc5;}.ag{stroke-dasharray:2 30;}</style><linearGradient id="a" x1="0.099" y1="0.905" x2="0.776" y2="0.123" gradientUnits="objectBoundingBox"><stop offset="0" stop-color="#81d8d0"/><stop offset="0.847" stop-color="#daf4ee"/><stop offset="1" stop-color="#fffffa"/></linearGradient><linearGradient id="b" y1="0.5" x2="1" y2="0.5" gradientUnits="objectBoundingBox"><stop offset="0" stop-color="#81d8d0"/><stop offset="1" stop-color="#81d8d0"/></linearGradient><linearGradient id="c" x1="0.084" y1="1.115" x2="0.734" y2="-0.244" gradientUnits="objectBoundingBox"><stop offset="0" stop-color="#df602a"/><stop offset="0.387" stop-color="#f49d43"/><stop offset="1" stop-color="#ffbb4f"/></linearGradient><linearGradient id="d" y1="0.5" x2="1" y2="0.5" gradientUnits="objectBoundingBox"><stop offset="0" stop-color="#4790fe"/><stop offset="0" stop-color="#50a59d"/><stop offset="1" stop-color="#81d8d0"/></linearGradient><linearGradient id="e" x1="0.079" y1="0.906" x2="1.034" y2="0.094" gradientUnits="objectBoundingBox"><stop offset="0" stop-color="#dee6f2"/><stop offset="0.366" stop-color="#f3f6fa"/><stop offset="0.643" stop-color="#fff"/></linearGradient><linearGradient id="f" y1="0.5" x2="1" y2="0.5" gradientUnits="objectBoundingBox"><stop offset="0" stop-color="#81d8d0"/><stop offset="0.387" stop-color="#81d8d0"/><stop offset="1" stop-color="#18ddcb"/></linearGradient><linearGradient id="g" y1="0.5" x2="1" y2="0.5" gradientUnits="objectBoundingBox"><stop offset="0.131" stop-color="#ffbb4f"/><stop offset="0.566" stop-color="#ff568e"/></linearGradient><linearGradient id="h" x1="0.202" y1="1.19" x2="0.865" y2="-0.19" gradientUnits="objectBoundingBox"><stop offset="0" stop-color="#df602a"/><stop offset="0.869" stop-color="#ffbb4f"/><stop offset="1" stop-color="#ffbb4f"/></linearGradient></defs><g transform="translate(-884.501 -2106.839)"><rect class="a" width="126" height="38" rx="8" transform="translate(1144.001 2398)"/><text class="b" transform="translate(1177.001 2421)"><tspan x="0" y="0">Saiba mais</tspan></text><path class="c" d="M1618.417,269.646c-41.832-23.783-88.623-15.659-133.418-8-17.356,2.967-35.2,7.278-52.906,7.3-6.468.008-13.089.878-18.615-3.083-9.085-6.518-5.272-22.694-4.293-31.72,2.567-23.663,5.669-49.244-8.946-69.746-18.235-25.576-56.62-24.012-84.037-18.5-20.628,4.149-40.151,13.616-58.72,23.185-42.16,21.727-80.76,53.7-110.731,90.413-10.756,13.176-20.516,27.36-27.95,42.676-13.8,28.432-23.607,62.242,9.28,81.911,8.736,5.224,18.311,8.1,28.1,10.5,17.682,4.338,36.069,6.436,52.482,14.854,3.891,2,7.992,3.969,9.843,8.279,6.257,14.579-22.23,36.386-31.023,44.537-16.046,14.871-33.243,29.253-43.094,49.065-5.823,11.71-5.864,24.457-2.953,36.215a72.289,72.289,0,0,0,41.218,48.451c122.932,54.371,284.539.278,384.9-103.94,43.635-45.314,69.552-90.985,77.7-112.369C1660.644,339.255,1659.855,293.2,1618.417,269.646Z" transform="translate(-185.162 1964.285)"/><path class="d" d="M1668.362,1486.386h-455.1a1.887,1.887,0,1,1,0-3.775h455.1a1.887,1.887,0,1,1,0,3.775Z" transform="translate(-250.801 1130.079)"/><path class="e" d="M2226.755,264.159H2334.83a10.166,10.166,0,0,1,10.3,11.739l-3.815,31.073a13.658,13.658,0,0,1-13.18,11.739h-89.71c-4.28,4.446-10.708,7.891-16.052,10.128a2.354,2.354,0,0,1-3.106-3.271,34.461,34.461,0,0,0,2.326-6.857h-1.533a10.166,10.166,0,0,1-10.3-11.739l3.815-31.073A13.658,13.658,0,0,1,2226.755,264.159Z" transform="translate(-872.256 1888.584)"/><path class="f" d="M2325.452,359.612h-36.645a2.147,2.147,0,0,1-2.175-2.479,2.886,2.886,0,0,1,2.784-2.479h36.645a2.147,2.147,0,0,1,2.175,2.479A2.885,2.885,0,0,1,2325.452,359.612Z" transform="translate(-920.154 1832.25)"/><path class="f" d="M2293.981,317.475h71.237A2.886,2.886,0,0,0,2368,315a2.148,2.148,0,0,0-2.175-2.479H2294.59a2.884,2.884,0,0,0-2.784,2.479A2.147,2.147,0,0,0,2293.981,317.475Z" transform="translate(-923.375 1858.481)"/><g transform="translate(1513.479 2461.23)"><line class="g" x1="2.029" y2="16.522" transform="translate(7.247 0)"/><line class="g" x2="16.522" transform="translate(0 8.261)"/></g><g transform="translate(1004.714 2131.116)"><line class="g" x1="2.029" y2="16.522" transform="translate(7.247)"/><line class="g" x2="16.522" transform="translate(0 8.261)"/></g><g transform="translate(1019.874 2172.69)"><path class="h" d="M1693.368,338.725c-1.334-1.521-18.044-13.934-18.044-13.934l-1.581,8.384h-194.25c-10.466,0-19.993,8.484-21.278,18.95l-49.6,392.661c-1.285,10.467,6.158,18.951,16.624,18.951h201.156c10.466,0,19.992-8.484,21.277-18.951l49.6-392.661A16.926,16.926,0,0,0,1693.368,338.725Z" transform="translate(-1393.369 -321.85)"/><path class="i" d="M1640.649,317H1439.493c-10.466,0-19.993,8.484-21.278,18.95l-49.6,403.986c-1.285,10.466,6.158,18.95,16.624,18.95h201.156c10.466,0,19.992-8.484,21.277-18.95l49.6-403.986C1658.558,325.484,1651.115,317,1640.649,317Z" transform="translate(-1368.468 -317)"/><path class="j" d="M1652.844,350.133H1460.438a15.384,15.384,0,0,0-14.846,13.222l-47.938,390.429a11.451,11.451,0,0,0,11.6,13.222h192.407a15.384,15.384,0,0,0,14.846-13.222l47.939-390.429A11.451,11.451,0,0,0,1652.844,350.133Z" transform="translate(-1386.574 -337.626)"/><g class="k" transform="translate(44.565 76.49)"><path class="l" d="M1965.171,519.631h-39.844a10.029,10.029,0,0,0-9.678,8.62l-24.934,203.073a7.464,7.464,0,0,0,7.561,8.619h39.844Z" transform="translate(-1738.099 -519.631)"/><path class="l" d="M1494.152,739.943h119.333a10.028,10.028,0,0,0,9.678-8.619L1648.1,528.25a7.465,7.465,0,0,0-7.561-8.62H1521.2a10.028,10.028,0,0,0-9.677,8.62l-24.934,203.073A7.465,7.465,0,0,0,1494.152,739.943Z" transform="translate(-1486.525 -519.631)"/></g><line class="m" x2="88.283" transform="translate(75.736 421.272)"/><path class="n" d="M1671.641,1209h-181.9a12.09,12.09,0,0,0-11.667,10.391l-5.027,40.947a9,9,0,0,0,9.115,10.391h181.9a10.749,10.749,0,0,0,1.581-.121l7.549-61.487A10.151,10.151,0,0,0,1671.641,1209Z" transform="translate(-1433.522 -872.284)"/></g><g transform="translate(1045.354 2498.081)"><path class="o" d="M1627.062,1240.729h-181.9a9,9,0,0,1-9.115-10.391l5.027-40.947A12.09,12.09,0,0,1,1452.743,1179h181.9a9,9,0,0,1,9.116,10.391l-5.028,40.947A12.09,12.09,0,0,1,1627.062,1240.729Z" transform="translate(-1435.969 -1179)"/><g transform="translate(18.592 21.013)"><line class="p" x2="63.654" transform="translate(4.781)"/><line class="p" x2="104.504" transform="translate(0 19.908)"/></g><path class="q" d="M1870.841,1255.065h-21.973a7.6,7.6,0,0,1-7.7-8.778h0a10.213,10.213,0,0,1,9.856-8.778H1873a7.6,7.6,0,0,1,7.7,8.778h0A10.214,10.214,0,0,1,1870.841,1255.065Z" transform="translate(-1688.17 -1215.422)"/></g><g transform="translate(1360.103 2237.855)"><path class="r" d="M2277.4,709.943h119.333a10.028,10.028,0,0,0,9.677-8.619l24.934-203.073a7.465,7.465,0,0,0-7.561-8.619H2304.45a10.029,10.029,0,0,0-9.678,8.619l-24.934,203.073A7.465,7.465,0,0,0,2277.4,709.943Z" transform="translate(-2269.772 -489.631)"/><path class="s" d="M2484.761,678.766c1.443-.014,20.717-6.671,21.955-7.411,11.513-6.881-18.507-11.748-18-14.6s.659-5.98-.52-8.629c-5.573-12.526-20.37-17.858-24.276-16.834-5.689,1.492-11.553,3.3-15.844,7.321a23.711,23.711,0,0,0-6.669,12.688c-.749,3.72-1.623,9.576-.18,13.221,1.361,3.439,6.6,2.4,9.577,2.413C2460.522,666.989,2453.869,679.067,2484.761,678.766Z" transform="translate(-2376.021 -577.738)"/><line class="t" x2="63.654" transform="translate(45.086 138.927)"/><line class="t" x2="104.504" transform="translate(22.494 153.927)"/><line class="t" x2="16.726" transform="translate(19.525 193.139)"/><path class="t" d="M2525,995.58h-21.973a7.6,7.6,0,0,1-7.7-8.779h0a10.214,10.214,0,0,1,9.856-8.778h21.973a7.6,7.6,0,0,1,7.7,8.778h0A10.214,10.214,0,0,1,2525,995.58Z" transform="translate(-2410.144 -793.663)"/><g transform="translate(133.65 13.267)"><path class="u" d="M2640.566,536.694c5.933-3.285,8.883-5.974,8.154-9.525-.434-2.117-4.246-4.193-7.007.18" transform="translate(-2634.247 -524.776)"/><path class="v" d="M2630.146,536.694c-5.126-3.285-7.416-5.974-5.816-9.525.954-2.117,5.276-4.193,6.963.18" transform="translate(-2623.826 -524.776)"/></g><g transform="translate(57.351 51.349)"><path class="w" d="M2456.954,626.072c-6.659-1.231-31.19-1.4-35.144,25.194a11.8,11.8,0,0,0,7.348,12.273,3.164,3.164,0,0,0,.485.166c12.727,1.822,35.024,3.5,45.527-4.794C2480.958,654.34,2465.326,627.62,2456.954,626.072Z" transform="translate(-2421.701 -625.661)"/><path class="w" d="M2489.2,653.45c7.6.915,21.125,4.841,20.821,9.235-.289,4.165-10.234,10.487-25.22,13.182-17.774,3.2-42.057-11.6-42.057-11.6s3.582-36.45,27.308-37.515" transform="translate(-2434.803 -626.34)"/><path class="w" d="M2532.367,679.085c-1.005-8.215-6.541-12.168-7.786-12.578a1.3,1.3,0,0,0-.676-.071,1.182,1.182,0,0,0-.635.479,7.8,7.8,0,0,0-1.243,4.689,26.4,26.4,0,0,0,.921,7.308,6.075,6.075,0,0,0,1.312,2.7,2.264,2.264,0,0,0,1.41-1.71,5.131,5.131,0,0,0-.16-2.414,7.8,7.8,0,0,0-1.988-3.568,4.82,4.82,0,0,0-3.687-1.473" transform="translate(-2482.791 -651.032)"/></g></g><g transform="translate(1055.002 2237.855)"><path class="x" d="M1469.152,709.943h119.333a10.028,10.028,0,0,0,9.678-8.619L1623.1,498.25a7.465,7.465,0,0,0-7.561-8.619H1496.2a10.028,10.028,0,0,0-9.677,8.619l-24.934,203.073A7.465,7.465,0,0,0,1469.152,709.943Z" transform="translate(-1461.525 -489.631)"/><path class="y" d="M1654.188,671.727c-5.144-.35-10.278-.9-15.406-1.456a96.493,96.493,0,0,1-13.477-2.1,94.3,94.3,0,0,1-11.738-4.1q-7.539-3.02-15.053-6.1c-2-.818-4.123-1.747-5.251-3.586a7.958,7.958,0,0,1-.923-4.48,17.466,17.466,0,0,1,8.674-14.267c3.7-2.1,8.812.656,13.054.387,4.021-.256,8-7.188,11.921-6.266,10.229,2.406,17.432,13.873,26.381,19.382,8.415,5.18,18.965,8.107,24.568,16.247C1681.312,671.746,1659.275,672.074,1654.188,671.727Z" transform="translate(-1542.953 -576.813)"/><g transform="translate(20.27 138.927)"><line class="t" x2="63.654" transform="translate(22.591)"/><line class="t" x2="104.504" transform="translate(0 15)"/></g><line class="z" x2="16.726" transform="translate(19.525 193.139)"/><path class="t" d="M1716.757,995.58h-21.973a7.6,7.6,0,0,1-7.7-8.779h0a10.214,10.214,0,0,1,9.856-8.778h21.973a7.6,7.6,0,0,1,7.7,8.778h0A10.214,10.214,0,0,1,1716.757,995.58Z" transform="translate(-1601.897 -793.663)"/><g transform="translate(133.65 13.267)"><path class="u" d="M1832.318,536.694c5.933-3.285,8.883-5.974,8.154-9.525-.434-2.117-4.246-4.193-7.007.18" transform="translate(-1825.999 -524.776)"/><path class="u" d="M1821.9,536.694c-5.126-3.285-7.416-5.974-5.815-9.525.954-2.117,5.276-4.193,6.963.18" transform="translate(-1815.579 -524.776)"/></g><g transform="translate(38.337 54.195)"><path class="w" d="M1584.033,640.259c10.175-.046,21.072,7.324,21.47-6.078.631-5.142,17.469,11.394,22.019,15.741,5.35,5.117,31.368,17.3,30.761,21.5-.729,5.059-17.326,8.415-25.285,8.6-12.868.292-38.647-4.277-45.3-3.839s-20.618.129-24.282-2.574c-2.584-1.9,10.453-13.889,11.759-16.206C1578.278,651.9,1580.713,640.259,1584.033,640.259Z" transform="translate(-1563.083 -633.2)"/><path class="w" d="M1671.262,709.908c-25.03,3.428-46.638-8.413-53.991-13.713-8.4-6.056-18.518-6.545-22.142-2.8" transform="translate(-1583.033 -669.19)"/><path class="w" d="M1705.172,669.751c-.309-2.731,3.779-5.778,7.1-7.13.561-.226,4.3-2.034,5.577-1.109.67.489-.078,1.658-.3,1.987-1.317,1.961-3.628,3.621-5.536,5.346-.261.235-2.13,2.25-1.294,2.431a2.326,2.326,0,0,0,1.6-.447c2.261-1.121,4.562-2.21,6.6-3.464a31.338,31.338,0,0,1,2.733-1.658c.251-.136.948-.542.841-.346-1.046,1.947-3.4,3.573-4.61,5.48-.254.4-1.167,1.9-.484,2.541s1.561.213,2.178.008a58.72,58.72,0,0,0,6.409-2.516c.809-.379,2.759-.463,2.434-1.126-.119-.249-3.262,2.226-3.3,2.261-.885.91-3.105,2.81-1.89,4.22.839.978,5.867-1.555,6.583-1.948.389-.214.7-.475,1.079-.695s1.276-.921,1.171-.606c-.459,1.379-3.25,2.323-2.907,4,.165.8,2.692-.385,2.948-.488.222-.089.868-.314.781-.162a29.309,29.309,0,0,1-2.095,2.654" transform="translate(-1651.525 -650.662)"/></g></g><g transform="translate(1207.552 2237.855)"><path class="x" d="M1873.276,709.943h119.333a10.029,10.029,0,0,0,9.678-8.619L2027.22,498.25a7.464,7.464,0,0,0-7.561-8.619H1900.327a10.029,10.029,0,0,0-9.678,8.619l-24.934,203.073A7.465,7.465,0,0,0,1873.276,709.943Z" transform="translate(-1865.649 -489.631)"/><path class="aa" d="M1982.532,612.916c-3.872,9.788-7.322,19.875-8.307,30.355a133.308,133.308,0,0,0-.106,17.507,2.811,2.811,0,0,0,.712,2.154,2.739,2.739,0,0,0,1.258.464,94.366,94.366,0,0,0,23.54,1.391c3.3-.22,6.91-.769,9.114-3.239,1.612-1.807,2.149-4.3,2.773-6.636a60.031,60.031,0,0,1,7.081-16.325c2.544,3.111,2.667,7.508,2.362,11.514s-.891,8.191.6,11.924a5.493,5.493,0,0,0,2.277,2.9,7.147,7.147,0,0,0,3.376.594q11.584.127,23.166-.251a3.719,3.719,0,0,0,1.777-.357,3.617,3.617,0,0,0,1.362-2.62c1.854-10.032.08-20.358.572-30.548.323-6.7,1.627-13.338,1.551-20.042-.108-9.388-2.913-18.511-5.692-27.479a10.284,10.284,0,0,0-1.25-2.923,8.138,8.138,0,0,0-3.854-2.678c-4.724-1.829-9.939-1.7-15-1.81a143.6,143.6,0,0,1-15.536-1.191c-3.575-.47-8.654-2.445-12.177-.986-2.963,1.228-4.363,5.036-5.714,7.667q-3.633,7.072-6.936,14.308Q1985.794,604.673,1982.532,612.916Z" transform="translate(-1933.026 -542.22)"/><line class="t" x2="63.654" transform="translate(45.085 138.927)"/><line class="t" x2="104.504" transform="translate(22.494 153.927)"/><line class="t" x2="16.726" transform="translate(19.525 193.139)"/><path class="t" d="M2120.881,995.58h-21.973a7.6,7.6,0,0,1-7.7-8.779h0a10.214,10.214,0,0,1,9.856-8.778h21.973a7.6,7.6,0,0,1,7.7,8.778h0A10.214,10.214,0,0,1,2120.881,995.58Z" transform="translate(-2006.02 -793.663)"/><g transform="translate(133.65 13.267)"><path class="u" d="M2236.442,536.694c5.933-3.285,8.883-5.974,8.154-9.525-.434-2.117-4.246-4.193-7.007.18" transform="translate(-2230.124 -524.776)"/><path class="u" d="M2226.022,536.694c-5.126-3.285-7.416-5.974-5.815-9.525.954-2.117,5.276-4.193,6.963.18" transform="translate(-2219.703 -524.776)"/></g><path class="w" d="M2093.107,799.532a69.194,69.194,0,0,0,27.536,1.605" transform="translate(-2007.245 -682.549)"/><path class="w" d="M1992.167,801.31a66.615,66.615,0,0,0,28.821-1.347" transform="translate(-1944.408 -682.818)"/><path class="w" d="M2019.073,620.976l-2.139,41.59a67.98,67.98,0,0,0,35.2,0h0c.786-6.69,3.515-49.254,3.115-55.834-1.425-23.485-6.454-35.354-6.454-35.354H1998.61a311.338,311.338,0,0,0-14.539,33.5c-2.434,6.864-5.222,20.438-6.159,27.483l-5.463,29.872a68.133,68.133,0,0,0,35.239,0l8.505-41.254C2016.4,619.268,2019.283,619.268,2019.073,620.976Z" transform="translate(-1932.133 -540.52)"/><path class="w" d="M2103.612,571.378s-2.736,38.312-8.658,40.824h-1.422l4.249-34.6" transform="translate(-2007.51 -540.52)"/><path class="w" d="M2144.225,598.222c1.375,20.571,14.662,16.968,14.662,16.968" transform="translate(-2039.067 -557.231)"/><path class="w" d="M2032.494,608.164c-6.758,16.6-16.651,12.853-16.651,12.853" transform="translate(-1959.147 -563.42)"/><path class="w" d="M2094.623,584.5c-14.073,1.725-34.852,1.653-49.109,0" transform="translate(-1977.618 -548.688)"/></g><line class="w" x1="16.932" y1="0.084" transform="translate(1260.642 2211.566)"/><line class="w" x1="14.279" y1="0.071" transform="translate(1261.253 2215.217)"/><path class="w" d="M1990.4,401.008l20.118.1-5.114,9.088a3.953,3.953,0,0,1-3.385,2.035l-9.531-.047a2.924,2.924,0,0,1-2.933-2.353l-2.451-12.1a2.924,2.924,0,0,0-2.934-2.353l-1.592-.008" transform="translate(-730.89 1806.904)"/><path class="w" d="M2008.743,447.875a1.881,1.881,0,0,1-1.823,1.609,1.4,1.4,0,0,1-1.41-1.625,1.881,1.881,0,0,1,1.823-1.609A1.4,1.4,0,0,1,2008.743,447.875Z" transform="translate(-745.154 1775.23)"/><path class="w" d="M2029.3,447.976a1.881,1.881,0,0,1-1.823,1.61,1.4,1.4,0,0,1-1.41-1.625,1.882,1.882,0,0,1,1.823-1.61A1.4,1.4,0,0,1,2029.3,447.976Z" transform="translate(-757.949 1775.167)"/><ellipse class="a" cx="6.947" cy="6.145" rx="6.947" ry="6.145" transform="translate(1272.273 2205.469) rotate(-43.243)"/><g transform="translate(1278.323 2202.835)"><path class="ab" d="M2053.168,401.15a1.217,1.217,0,0,1,.2-.535,2.231,2.231,0,0,1,.388-.439q.221-.193.6-.474c.154-.113.237-.174.247-.183a4.365,4.365,0,0,0,.754-.706,1.568,1.568,0,0,0,.339-.8.589.589,0,0,0-.149-.51.718.718,0,0,0-.536-.2,1.217,1.217,0,0,0-.609.158,2.12,2.12,0,0,0-.556.467l-.322-.311a2.249,2.249,0,0,1,.719-.562,1.835,1.835,0,0,1,.824-.2,1.2,1.2,0,0,1,.892.317.959.959,0,0,1,.242.84,1.842,1.842,0,0,1-.441.984,6.345,6.345,0,0,1-.982.9c-.1.079-.15.116-.146.111a7.155,7.155,0,0,0-.675.549.748.748,0,0,0-.252.433l2.174.011-.057.447-2.693-.013Z" transform="translate(-2053.132 -396.859)"/><path class="ab" d="M2062.872,401.283a1.7,1.7,0,0,1-.471-.841,3.143,3.143,0,0,1-.057-1.207,3.556,3.556,0,0,1,.365-1.2,2.369,2.369,0,0,1,.681-.832,1.389,1.389,0,0,1,.843-.3,1.1,1.1,0,0,1,.767.3,1.7,1.7,0,0,1,.468.837,3.154,3.154,0,0,1,.056,1.207,3.567,3.567,0,0,1-.364,1.2,2.427,2.427,0,0,1-.679.835,1.364,1.364,0,0,1-.84.3A1.105,1.105,0,0,1,2062.872,401.283Zm1.407-.365a1.9,1.9,0,0,0,.467-.675,3.555,3.555,0,0,0,.265-.995,3.17,3.17,0,0,0-.011-.993,1.4,1.4,0,0,0-.294-.675.681.681,0,0,0-.528-.243.889.889,0,0,0-.593.237,1.883,1.883,0,0,0-.47.672,3.514,3.514,0,0,0-.265.992,3.215,3.215,0,0,0,.011,1,1.376,1.376,0,0,0,.3.678.69.69,0,0,0,.531.243A.874.874,0,0,0,2064.279,400.919Z" transform="translate(-2058.847 -396.887)"/></g><g transform="translate(1161.067 2200.65)"><g transform="translate(0 0)"><ellipse class="w" cx="7.403" cy="6.548" rx="7.403" ry="6.548" transform="translate(0 10.143) rotate(-43.244)"/><path class="w" d="M1781.784,423.845l7.509,5.657a1.417,1.417,0,0,1,.158,2.049h0a1.562,1.562,0,0,1-2.1.41l-7.541-5.621" transform="translate(-1765.729 -411.473)"/></g></g><g transform="translate(1094.389 2205.319)"><line class="t" x2="15.981" transform="translate(1.66)"/><line class="t" x2="15.981" transform="translate(0.83 6.761)"/><line class="t" x2="15.981" transform="translate(0 13.521)"/></g><g transform="translate(1206.284 2198.65)"><ellipse class="w" cx="10.102" cy="8.935" rx="10.102" ry="8.935" transform="translate(0 13.841) rotate(-43.243)"/><path class="w" d="M1896.7,411.4a3.4,3.4,0,0,1-3.277,2.919,2.528,2.528,0,0,1-2.561-2.919,3.4,3.4,0,0,1,3.277-2.919A2.527,2.527,0,0,1,1896.7,411.4Z" transform="translate(-1880.062 -399.909)"/><path class="w" d="M1883.638,429.485a5.452,5.452,0,0,1,5.261-4.686,4.058,4.058,0,0,1,4.111,4.686" transform="translate(-1875.579 -410.067)"/></g><path class="ac" d="M1536.325,826.239h-91.663L1428.9,954.613h91.663a8.865,8.865,0,0,0,8.555-7.62l13.891-113.136A6.6,6.6,0,0,0,1536.325,826.239Z" transform="translate(-386.215 1538.681)"/><g transform="translate(905.97 2351.33)"><path class="ad" d="M1294.255,790.239H1089.227a8.865,8.865,0,0,0-8.555,7.619L1066.78,910.994a6.6,6.6,0,0,0,6.684,7.62h205.028a8.865,8.865,0,0,0,8.555-7.62l13.891-113.136A6.6,6.6,0,0,0,1294.255,790.239Z" transform="translate(-1066.722 -790.239)"/></g><g transform="translate(904.593 2349.82)"><path class="ae" d="M1290.606,786.239H1085.578a8.865,8.865,0,0,0-8.555,7.619l-13.891,113.136a6.6,6.6,0,0,0,6.684,7.619h205.028a8.865,8.865,0,0,0,8.555-7.619l13.891-113.136A6.6,6.6,0,0,0,1290.606,786.239Z" transform="translate(-1063.074 -786.239)"/></g><g transform="translate(925.617 2372.237)"><g transform="translate(67.544 58.125)"><g transform="translate(0 2.359)"><g transform="translate(0 0)"><path class="ab" d="M1303.111,1011.5a3.134,3.134,0,0,1-3.025,2.694,2.333,2.333,0,0,1-2.363-2.694,3.134,3.134,0,0,1,3.025-2.694A2.333,2.333,0,0,1,1303.111,1011.5Z" transform="translate(-1297.703 -1007.691)"/><ellipse class="ab" cx="2.864" cy="2.534" rx="2.864" ry="2.534" transform="matrix(0.728, -0.685, 0.685, 0.728, 7.819, 3.925)"/><path class="ab" d="M1392.836,1011.5a3.135,3.135,0,0,1-3.025,2.694,2.333,2.333,0,0,1-2.363-2.694,3.134,3.134,0,0,1,3.024-2.694A2.333,2.333,0,0,1,1392.836,1011.5Z" transform="translate(-1353.558 -1007.691)"/><ellipse class="ab" cx="2.864" cy="2.534" rx="2.864" ry="2.534" transform="translate(41.689 3.925) rotate(-43.243)"/></g></g><line class="p" x1="9.793" y2="11.903" transform="translate(20.404)"/></g><line class="p" x2="48.658" transform="translate(36.406 89.119)"/><line class="p" x2="24.087" transform="translate(0 89.119)"/><g transform="translate(2.526 43.744)"><path class="ab" d="M1130.872,964.2a3.134,3.134,0,0,1-3.025,2.694,2.333,2.333,0,0,1-2.363-2.694,3.134,3.134,0,0,1,3.025-2.694A2.333,2.333,0,0,1,1130.872,964.2Z" transform="translate(-1125.464 -961.507)"/><path class="ab" d="M1154.521,964.2a3.134,3.134,0,0,1-3.025,2.694,2.333,2.333,0,0,1-2.363-2.694,3.134,3.134,0,0,1,3.025-2.694A2.333,2.333,0,0,1,1154.521,964.2Z" transform="translate(-1140.185 -961.507)"/><path class="ab" d="M1178.17,964.2a3.135,3.135,0,0,1-3.025,2.694,2.333,2.333,0,0,1-2.363-2.694,3.134,3.134,0,0,1,3.024-2.694A2.333,2.333,0,0,1,1178.17,964.2Z" transform="translate(-1154.907 -961.507)"/><path class="ab" d="M1201.818,964.2a3.135,3.135,0,0,1-3.025,2.694,2.333,2.333,0,0,1-2.363-2.694,3.134,3.134,0,0,1,3.025-2.694A2.333,2.333,0,0,1,1201.818,964.2Z" transform="translate(-1169.629 -961.507)"/><g transform="translate(49.355)"><path class="ab" d="M1261.62,964.2a3.134,3.134,0,0,1-3.025,2.694,2.333,2.333,0,0,1-2.363-2.694,3.134,3.134,0,0,1,3.025-2.694A2.333,2.333,0,0,1,1261.62,964.2Z" transform="translate(-1256.212 -961.507)"/><path class="ab" d="M1285.269,964.2a3.135,3.135,0,0,1-3.025,2.694,2.333,2.333,0,0,1-2.363-2.694,3.135,3.135,0,0,1,3.025-2.694A2.333,2.333,0,0,1,1285.269,964.2Z" transform="translate(-1270.934 -961.507)"/><path class="ab" d="M1308.918,964.2a3.134,3.134,0,0,1-3.024,2.694,2.333,2.333,0,0,1-2.363-2.694,3.135,3.135,0,0,1,3.025-2.694A2.333,2.333,0,0,1,1308.918,964.2Z" transform="translate(-1285.655 -961.507)"/><path class="ab" d="M1332.567,964.2a3.134,3.134,0,0,1-3.025,2.694,2.333,2.333,0,0,1-2.363-2.694,3.134,3.134,0,0,1,3.025-2.694A2.333,2.333,0,0,1,1332.567,964.2Z" transform="translate(-1300.377 -961.507)"/></g><path class="ab" d="M1398.643,964.2a3.134,3.134,0,0,1-3.025,2.694,2.333,2.333,0,0,1-2.363-2.694,3.134,3.134,0,0,1,3.025-2.694A2.333,2.333,0,0,1,1398.643,964.2Z" transform="translate(-1292.155 -961.507)"/><path class="ab" d="M1422.292,964.2a3.134,3.134,0,0,1-3.025,2.694,2.333,2.333,0,0,1-2.363-2.694,3.134,3.134,0,0,1,3.025-2.694A2.333,2.333,0,0,1,1422.292,964.2Z" transform="translate(-1306.877 -961.507)"/><path class="ab" d="M1308.918,964.2a3.134,3.134,0,0,1-3.024,2.694,2.333,2.333,0,0,1-2.363-2.694,3.135,3.135,0,0,1,3.025-2.694A2.333,2.333,0,0,1,1308.918,964.2Z" transform="translate(-1236.3 -961.507)"/><path class="ab" d="M1332.567,964.2a3.134,3.134,0,0,1-3.025,2.694,2.333,2.333,0,0,1-2.363-2.694,3.134,3.134,0,0,1,3.025-2.694A2.333,2.333,0,0,1,1332.567,964.2Z" transform="translate(-1251.022 -961.507)"/><path class="ab" d="M1308.918,964.2a3.134,3.134,0,0,1-3.024,2.694,2.333,2.333,0,0,1-2.363-2.694,3.135,3.135,0,0,1,3.025-2.694A2.333,2.333,0,0,1,1308.918,964.2Z" transform="translate(-1236.3 -961.507)"/><path class="ab" d="M1332.567,964.2a3.134,3.134,0,0,1-3.025,2.694,2.333,2.333,0,0,1-2.363-2.694,3.134,3.134,0,0,1,3.025-2.694A2.333,2.333,0,0,1,1332.567,964.2Z" transform="translate(-1251.022 -961.507)"/><path class="ab" d="M1445.94,964.2a3.134,3.134,0,0,1-3.025,2.694,2.333,2.333,0,0,1-2.364-2.694,3.134,3.134,0,0,1,3.025-2.694A2.333,2.333,0,0,1,1445.94,964.2Z" transform="translate(-1321.599 -961.507)"/><path class="ab" d="M1469.589,964.2a3.134,3.134,0,0,1-3.025,2.694,2.333,2.333,0,0,1-2.364-2.694,3.134,3.134,0,0,1,3.025-2.694A2.333,2.333,0,0,1,1469.589,964.2Z" transform="translate(-1336.32 -961.507)"/><g transform="translate(153.815)"><path class="ab" d="M1538.347,964.2a3.134,3.134,0,0,1-3.025,2.694,2.333,2.333,0,0,1-2.363-2.694,3.134,3.134,0,0,1,3.025-2.694A2.333,2.333,0,0,1,1538.347,964.2Z" transform="translate(-1532.939 -961.507)"/><path class="ab" d="M1562,964.2a3.134,3.134,0,0,1-3.025,2.694,2.333,2.333,0,0,1-2.363-2.694,3.134,3.134,0,0,1,3.025-2.694A2.333,2.333,0,0,1,1562,964.2Z" transform="translate(-1547.661 -961.507)"/><path class="ab" d="M1585.644,964.2a3.135,3.135,0,0,1-3.025,2.694,2.333,2.333,0,0,1-2.363-2.694,3.135,3.135,0,0,1,3.025-2.694A2.333,2.333,0,0,1,1585.644,964.2Z" transform="translate(-1562.382 -961.507)"/><path class="ab" d="M1609.293,964.2a3.135,3.135,0,0,1-3.025,2.694,2.333,2.333,0,0,1-2.364-2.694,3.135,3.135,0,0,1,3.025-2.694A2.333,2.333,0,0,1,1609.293,964.2Z" transform="translate(-1577.104 -961.507)"/></g></g><path class="af" d="M1163.215,869.429h-23.872a4.7,4.7,0,0,1-4.765-5.431l1.589-12.943a6.319,6.319,0,0,1,6.1-5.431h23.872a4.7,4.7,0,0,1,4.765,5.431l-.473,3.855L1169.314,864A6.32,6.32,0,0,1,1163.215,869.429Z" transform="translate(-1128.586 -845.624)"/><path class="af" d="M1159.326,845.624l-.271,2.208a3.536,3.536,0,0,0,3.582,4.083h23.4" transform="translate(-1143.829 -845.624)"/><line class="af" x1="34.735" transform="translate(6.787 11.903)"/><path class="af" d="M1161.641,898.312l.271-2.208a3.537,3.537,0,0,0-3.582-4.084h-23.4" transform="translate(-1128.828 -874.507)"/><line class="af" x1="1.378" y2="11.223" transform="translate(23.466 6.291)"/></g><g transform="translate(886.001 2134.354)"><g transform="translate(0)"><line class="ag" x1="2.97" y2="24.192" transform="translate(29.764 43.667)"/><line class="ag" x1="3.083" y2="25.111" transform="translate(35.012)"/><line class="ag" x2="24.322" transform="translate(43.537 33.93)"/><line class="ag" x2="24.698" transform="translate(0 33.93)"/></g></g><g transform="translate(1435.557 2486.844)"><g transform="translate(0)"><line class="ag" x1="2.97" y2="24.192" transform="translate(29.764 43.667)"/><line class="ag" x1="3.083" y2="25.111" transform="translate(35.012)"/><line class="ag" x2="24.322" transform="translate(43.537 33.93)"/><line class="ag" x2="24.698" transform="translate(0 33.93)"/></g></g></g></svg>