<svg xmlns="http://www.w3.org/2000/svg" xmlns:xlink="http://www.w3.org/1999/xlink" width="637.846" height="548.824" viewBox="0 0 637.846 548.824"><defs><style>.a{fill:#e0f6f3;}.b{fill:#fff;}.ad,.ah,.am,.an,.as,.bb,.be,.bl,.c,.h,.m,.r,.z{mix-blend-mode:multiply;}.ad,.ah,.aj,.ak,.al,.am,.an,.as,.bb,.bc,.bd,.be,.bk,.bl,.c,.h,.m,.r,.z{isolation:isolate;}.c{fill:url(#a);}.d{fill:#ffd03e;}.e{fill:#e9edf6;}.f{fill:#ef4e16;}.g{fill:#bdc3e3;}.aa,.h{fill:#e8edf9;}.i{fill:#fc780b;}.j{fill:#fd9009;}.k{fill:#d8def0;}.l{fill:#ffad02;}.m{fill:url(#b);}.n{fill:url(#c);}.o{fill:url(#d);}.p{fill:url(#e);}.q{fill:url(#f);}.r{fill:url(#h);}.s{fill:#1eddcb;}.t{fill:#81d8d0;}.u{fill:#79d0c8;}.v{fill:#56b5ad;}.w{fill:#f2f2f2;}.x{fill:#eaeaea;}.y{fill:#e1e5f1;}.z{fill:url(#j);}.ab{fill:#6d6c93;}.ac{fill:#b9fff9;}.ad{fill:#d1d7f3;}.ae{fill:#862a03;}.af{fill:#862a0d;}.ag{fill:#df602a;}.ah{fill:url(#k);}.ai{fill:#56ada5;}.aj{fill:#362e94;}.aj,.ak,.al,.bc,.bd,.bk{mix-blend-mode:screen;}.ak{fill:#b8e3dd;}.al{fill:url(#l);}.am{fill:url(#m);}.an{fill:url(#n);}.ao{fill:url(#o);}.ap{fill:url(#p);}.aq{fill:url(#t);}.ar{fill:url(#u);}.as{fill:url(#v);}.at{fill:url(#w);}.au{fill:url(#x);}.av{fill:url(#y);}.aw{fill:#ffad3b;}.ax{fill:#a4add0;}.ay{fill:#ef4e1f;}.az{fill:#fc782b;}.ba{fill:#bbc0e6;}.bb{fill:url(#aa);}.bc{fill:url(#ab);}.bd{fill:url(#ac);}.be{fill:url(#ad);}.bf{fill:#0f0d3f;}.bg{fill:#2e7b74;}.bh{fill:#6bc3ba;}.bi{fill:#fd9032;}.bj{fill:#f6f6fb;}.bk{fill:url(#ae);}.bl{fill:url(#af);}.bm{fill:#dd3b10;}.bn{fill:#423eaf;}.bo{fill:#e57139;}.bp{fill:#fcd1a9;}.bq{fill:#24ddcc;}.br{fill:url(#ah);}.bs{fill:#ced3f8;}.bt{fill:#f2c29d;}.bu{fill:#2e2e2e;}.bv{fill:url(#ak);}.bw{fill:url(#al);}.bx{fill:#1c1c1c;}.by{fill:url(#am);}</style><linearGradient id="a" y1="0.5" x2="1" y2="0.5" gradientUnits="objectBoundingBox"><stop offset="0" stop-color="#c4c9e4"/><stop offset="0.21" stop-color="#d7daec"/><stop offset="0.587" stop-color="#f4f5fa"/><stop offset="0.803" stop-color="#fff"/></linearGradient><linearGradient id="b" y1="0.5" x2="1" y2="0.5" gradientUnits="objectBoundingBox"><stop offset="0" stop-color="#c4c9e4"/><stop offset="0.191" stop-color="#d7daec"/><stop offset="0.478" stop-color="#edeef6"/><stop offset="0.752" stop-color="#fafafc"/><stop offset="1" stop-color="#fff"/></linearGradient><linearGradient id="c" x1="0.379" y1="-0.017" x2="0.68" y2="0.935" gradientUnits="objectBoundingBox"><stop offset="0" stop-color="#fff"/><stop offset="0.298" stop-color="#eff0f8"/><stop offset="0.875" stop-color="#c6cbe7"/><stop offset="1" stop-color="#bdc3e3"/></linearGradient><linearGradient id="d" x1="0.137" y1="-0.037" x2="0.782" y2="1.132" gradientUnits="objectBoundingBox"><stop offset="0" stop-color="#a5abcc"/><stop offset="0.393" stop-color="#adb3d2"/><stop offset="1" stop-color="#c4c9e4"/></linearGradient><linearGradient id="e" x1="0.323" y1="-0.337" x2="0.758" y2="1.177" gradientUnits="objectBoundingBox"><stop offset="0" stop-color="#a5abcc"/><stop offset="0.56" stop-color="#b4b9db"/><stop offset="1" stop-color="#bbbfe2"/></linearGradient><linearGradient id="f" x1="0.284" y1="0.061" x2="0.716" y2="0.951" gradientUnits="objectBoundingBox"><stop offset="0.361" stop-color="#fff"/><stop offset="0.557" stop-color="#f8f9fc"/><stop offset="0.818" stop-color="#e8ebf6"/><stop offset="1" stop-color="#d8def0"/></linearGradient><linearGradient id="h" y1="0.5" x2="1" y2="0.5" gradientUnits="objectBoundingBox"><stop offset="0" stop-color="#c4c9e4"/><stop offset="0.454" stop-color="#dcdfef"/><stop offset="1" stop-color="#fff"/></linearGradient><linearGradient id="j" x1="0.5" y1="1" x2="0.5" gradientUnits="objectBoundingBox"><stop offset="0" stop-color="#c4c9e4"/><stop offset="0.288" stop-color="#e8eaf4"/><stop offset="0.504" stop-color="#fff"/></linearGradient><linearGradient id="k" x1="0.5" y1="0.685" x2="0.793" y2="0.13" gradientUnits="objectBoundingBox"><stop offset="0" stop-color="#d1d7f3"/><stop offset="0.643" stop-color="#f2f3fb"/><stop offset="1" stop-color="#fff"/></linearGradient><linearGradient id="l" y1="0.5" x2="1" y2="0.5" gradientUnits="objectBoundingBox"><stop offset="0" stop-color="#362e94"/><stop offset="0.26" stop-color="#251f65"/><stop offset="0.604" stop-color="#110e2f"/><stop offset="0.861" stop-color="#04040c"/><stop offset="1"/></linearGradient><linearGradient id="m" x1="0.5" y1="1" x2="0.5" gradientUnits="objectBoundingBox"><stop offset="0" stop-color="#e8edf9"/><stop offset="0.491" stop-color="#d8ddf0"/><stop offset="1" stop-color="#c4c9e4"/></linearGradient><linearGradient id="n" y1="0.5" x2="1" y2="0.5" gradientUnits="objectBoundingBox"><stop offset="0.427" stop-color="#c4cae8"/><stop offset="0.577" stop-color="#d7dbef"/><stop offset="0.846" stop-color="#f4f5fa"/><stop offset="1" stop-color="#fff"/></linearGradient><linearGradient id="o" y1="0.5" x2="1" y2="0.5" gradientUnits="objectBoundingBox"><stop offset="0" stop-color="#d8def0"/><stop offset="0.551" stop-color="#c6cce7"/><stop offset="1" stop-color="#bdc3e3"/></linearGradient><linearGradient id="p" x1="-10.253" y1="0.897" x2="-9.533" y2="-0.025" gradientUnits="objectBoundingBox"><stop offset="0" stop-color="#bdc3e3"/><stop offset="0.843" stop-color="#dadfee"/><stop offset="1" stop-color="#e1e5f1"/></linearGradient><linearGradient id="t" x1="0.328" y1="0.897" x2="1.048" y2="-0.025" xlink:href="#p"/><linearGradient id="u" x1="-6.465" y1="0.897" x2="-5.744" y2="-0.025" xlink:href="#p"/><linearGradient id="v" x1="0.5" y1="1" x2="0.5" gradientUnits="objectBoundingBox"><stop offset="0" stop-color="#ffd03e"/><stop offset="0.2" stop-color="#ffdf7c"/><stop offset="0.403" stop-color="#ffecb3"/><stop offset="0.577" stop-color="#fff6dc"/><stop offset="0.714" stop-color="#fffcf5"/><stop offset="0.798" stop-color="#fff"/></linearGradient><linearGradient id="w" x1="0.214" y1="1.049" x2="1.022" y2="0.084" gradientUnits="objectBoundingBox"><stop offset="0" stop-color="#fd9009"/><stop offset="0.373" stop-color="#f87a0d"/><stop offset="1" stop-color="#ef4e16"/></linearGradient><linearGradient id="x" x1="0.053" y1="0.891" x2="0.745" y2="-0.015" gradientUnits="objectBoundingBox"><stop offset="0" stop-color="#ef4e16"/><stop offset="0.373" stop-color="#f36311"/><stop offset="1" stop-color="#fd9009"/></linearGradient><linearGradient id="y" x1="0.048" y1="0.887" x2="1.12" y2="0.088" gradientUnits="objectBoundingBox"><stop offset="0" stop-color="#ef4e16"/><stop offset="0.387" stop-color="#f56d0f"/><stop offset="0.769" stop-color="#fb860a"/><stop offset="1" stop-color="#fd9009"/></linearGradient><linearGradient id="aa" x1="0.5" x2="0.5" y2="1" gradientUnits="objectBoundingBox"><stop offset="0" stop-color="#e8edf9"/><stop offset="0.494" stop-color="#f5f7fc"/><stop offset="1" stop-color="#fff"/></linearGradient><linearGradient id="ab" y1="0.5" x2="1" y2="0.5" gradientUnits="objectBoundingBox"><stop offset="0" stop-color="#e8edf9"/><stop offset="0.141" stop-color="#bdc1cb"/><stop offset="0.377" stop-color="#7a7d83"/><stop offset="0.59" stop-color="#45474b"/><stop offset="0.771" stop-color="#1f2022"/><stop offset="0.914" stop-color="#080809"/><stop offset="1"/></linearGradient><linearGradient id="ac" x1="11.246" y1="0.5" x2="12.246" y2="0.5" gradientUnits="objectBoundingBox"><stop offset="0" stop-color="#e8edf9"/><stop offset="0.03" stop-color="#dee3ee"/><stop offset="0.233" stop-color="#a0a5ad"/><stop offset="0.427" stop-color="#6c7177"/><stop offset="0.606" stop-color="#44484d"/><stop offset="0.766" stop-color="#272b2f"/><stop offset="0.903" stop-color="#161a1c"/><stop offset="1" stop-color="#101416"/></linearGradient><linearGradient id="ad" y1="0.5" x2="1" y2="0.5" gradientUnits="objectBoundingBox"><stop offset="0" stop-color="#d8def0"/><stop offset="1" stop-color="#fff"/></linearGradient><linearGradient id="ae" y1="0.5" x2="1" y2="0.5" gradientUnits="objectBoundingBox"><stop offset="0" stop-color="#d8def0"/><stop offset="0.309" stop-color="#989ca9"/><stop offset="1"/></linearGradient><linearGradient id="af" y1="0.5" x2="1" y2="0.5" gradientUnits="objectBoundingBox"><stop offset="0" stop-color="#c4cae8"/><stop offset="0.095" stop-color="#cdd2eb"/><stop offset="0.409" stop-color="#e8eaf6"/><stop offset="0.687" stop-color="#f9f9fc"/><stop offset="0.899" stop-color="#fff"/></linearGradient><linearGradient id="ah" y1="0.5" x2="1" y2="0.5" gradientUnits="objectBoundingBox"><stop offset="0" stop-color="#ffad02"/><stop offset="0.586" stop-color="#f5720e"/><stop offset="1" stop-color="#ef4e16"/></linearGradient><linearGradient id="ak" x1="0.713" y1="0.504" x2="-0.168" y2="0.414" gradientUnits="objectBoundingBox"><stop offset="0" stop-color="#d8def0"/><stop offset="0.296" stop-color="#e8ecf6"/><stop offset="0.695" stop-color="#f9fafc"/><stop offset="1" stop-color="#fff"/></linearGradient><linearGradient id="al" x1="6.404" y1="0.5" x2="7.404" y2="0.5" xlink:href="#ak"/><linearGradient id="am" x1="1.214" y1="0.611" x2="-0.225" y2="0.416" gradientUnits="objectBoundingBox"><stop offset="0" stop-color="#bdc3e3"/><stop offset="0.378" stop-color="#c2c8e5"/><stop offset="0.83" stop-color="#d0d6ec"/><stop offset="1" stop-color="#d8def0"/></linearGradient></defs><g transform="translate(-390 -2142.588)"><path class="a" d="M1037.143,817.249c145.542-60.234,200.587-271.125,51.547-295.93C879.273,486.466,830.53,392.344,745.367,377.729,594.99,351.923,517.545,503.005,557.706,642.74,618.912,855.7,805.761,913.008,1037.143,817.249Z" transform="translate(-157.186 1829.312)"/><path class="b" d="M2424.509,856.032a8.081,8.081,0,0,0-7.312,0c-2.018,1.166-2.018,3.055,0,4.221a8.078,8.078,0,0,0,7.312,0C2426.528,859.088,2426.528,857.2,2424.509,856.032Z" transform="translate(-1398.177 1520.188)"/><path class="b" d="M2374.319,885.012a8.077,8.077,0,0,0-7.312,0c-2.019,1.165-2.019,3.056,0,4.222a8.077,8.077,0,0,0,7.312,0C2376.337,888.067,2376.337,886.177,2374.319,885.012Z" transform="translate(-1365.876 1501.538)"/><path class="c" d="M1149.267,760.388h-92.46l55.05,31.783-55.05,31.782h92.46l55.048-31.782Z" transform="translate(-523.653 1581.179)"/><path class="d" d="M952.1,603.024l-57.99-33.481,57.99-33.482,57.992,33.482Z" transform="translate(-418.949 1725.548)"/><path class="e" d="M1021.269,575.995l8.684,5.014-57.992,33.48-8.682-5.012Z" transform="translate(-463.463 1699.848)"/><path class="e" d="M1029.953,609.476l-8.684,5.012-57.99-33.48,8.682-5.014Z" transform="translate(-463.463 1699.848)"/><path class="f" d="M1056.807,772.748l55.05-31.782V680.823l-55.05,31.782Z" transform="translate(-523.654 1632.384)"/><path class="g" d="M1121.85,723.384l8.682-5.015v60.144l-8.682,5.013Z" transform="translate(-565.514 1608.221)"/><path class="h" d="M1111.857,688.093l-55.05,31.782v-2.507l55.05-31.782Z" transform="translate(-523.654 1629.319)"/><path class="i" d="M1056.807,681.591l57.992-33.479V629.995l-57.992,33.481Z" transform="translate(-523.654 1665.095)"/><path class="g" d="M1125.974,674.942l8.684-5.012,0,18.114-8.686,5.014Z" transform="translate(-568.168 1639.395)"/><path class="j" d="M957.412,772.748l-55.049-31.782V680.823L957.412,712.6Z" transform="translate(-424.26 1632.384)"/><path class="k" d="M976.09,723.384l-8.683-5.015v60.144l8.683,5.013Z" transform="translate(-466.12 1608.221)"/><path class="h" d="M902.363,688.093l55.049,31.782v-2.507l-55.049-31.782Z" transform="translate(-424.26 1629.319)"/><path class="l" d="M952.1,681.591l-57.99-33.479V629.995l57.99,33.481Z" transform="translate(-418.949 1665.095)"/><path class="k" d="M971.961,674.942l-8.682-5.012v18.114l8.682,5.014Z" transform="translate(-463.463 1639.395)"/><path class="m" d="M1110.831,621.863c-.029-.037-.06-.07-.087-.106l-.008-.013-.009-.006c-1.215-1.508-2.628-2.435-3.72-2.418-7.673.121-13.107.322-14.264.368h0l-4.113,16.36h12.583c-.006,0-.01.009-.017.012l2.094-1.207,2.885-1.664h0l5.306-3.06,0-.011c.807-.464,1.384-1.445,1.384-3.132A8.9,8.9,0,0,0,1110.831,621.863Z" transform="translate(-544.131 1671.965)"/><path class="n" d="M1068.773,620.7c-.03-.037-.061-.07-.088-.105l-.008-.014-.009-.005c-1.215-1.508-2.628-2.435-3.72-2.418-7.673.121-13.107.321-14.264.367h0l-10.434,6.024c1.154-.045,6.591-.245,14.268-.367,1.121-.017,2.586.956,3.822,2.541a8.887,8.887,0,0,1,2.035,5.127,3.442,3.442,0,0,1-1.238,3.048l10.285-5.931,0-.01c.807-.464,1.384-1.445,1.384-3.132A8.9,8.9,0,0,0,1068.773,620.7Z" transform="translate(-512.996 1672.713)"/><path class="k" d="M1022,604.432c-1.236-1.585-2.7-2.558-3.822-2.541-7.678.122-13.115.322-14.269.367-1.152-1.378-6.591-7.858-14.265-16.843a4.641,4.641,0,0,0-3.826-1.874c-1.272.163-2.035,1.2-2.035,2.778a10.589,10.589,0,0,0,4.579,8.207l31.092,17.948c1.92,1.11,4.58.713,4.58-2.915A8.886,8.886,0,0,0,1022,604.432Z" transform="translate(-476.659 1695.005)"/><path class="o" d="M990.188,595.714a8.339,8.339,0,0,1-3.569-6.456,1.838,1.838,0,0,1,1.549-2.062,3.4,3.4,0,0,1,2.838,1.345c5.82,6.812,10.351,12.182,12.7,14.979Z" transform="translate(-478.483 1692.65)"/><path class="p" d="M1059.45,646.832l-13.52-7.806c2.352-.08,6.881-.219,12.705-.309a4.273,4.273,0,0,1,2.838,1.929,6.737,6.737,0,0,1,1.549,3.851C1063.022,647.605,1060.7,647.551,1059.45,646.832Z" transform="translate(-516.654 1659.481)"/><path class="q" d="M987.962,572.665a4.64,4.64,0,0,1,3.826,1.874c7.673,8.985,13.112,15.464,14.265,16.843l9.358-5.4,1.079-.622h0c-1.153-1.378-6.593-7.857-14.267-16.842a4.63,4.63,0,0,0-3.823-1.875,2.169,2.169,0,0,0-1.05.423l-.013,0-10.218,5.88A2.269,2.269,0,0,1,987.962,572.665Z" transform="translate(-478.802 1705.881)"/><path class="c" d="M902.363,806.243,915.735,829.4l-13.372-7.72Z" transform="translate(-424.26 1551.668)"/><path class="r" d="M788.778,909.975h0c-10.048,1.617-21.272.147-29.173-4.415s-10.444-11.041-7.644-16.843l-5.513-3.182L666.138,931.9l1.607,3.183s13.493-7.19,33.077,4.414c7.851,4.651,10.446,11.041,7.646,16.842l1.607,3.183h3.906l80.306-46.366Z" transform="translate(-272.232 1500.637)"/><path class="s" d="M893.983,890.395v-2.253a10.453,10.453,0,0,0-1.027,5.771A10.9,10.9,0,0,1,893.983,890.395Z" transform="translate(-418.164 1498.961)"/><path class="s" d="M699.82,1021.483c-7.9-4.563-19.125-6.032-29.172-4.415h0v2.256c10.048-1.617,21.271-.148,29.172,4.413,5.339,3.082,8.222,7.039,8.673,11.071C709.034,1030.026,706.152,1025.138,699.82,1021.483Z" transform="translate(-275.135 1416.398)"/><path class="t" d="M748.646,899.233c-7.9-4.562-10.444-11.041-7.643-16.843l-5.514-3.182-80.307,46.364,5.513,3.182c10.048-1.617,21.271-.148,29.172,4.415s10.445,11.041,7.646,16.842l5.512,3.183,80.307-46.366-5.513-3.181C767.771,905.265,756.548,903.795,748.646,899.233Z" transform="translate(-265.182 1504.71)"/><path class="b" d="M825.159,913.347l1.465-.847-3.223-1.86-1.465.846Z" transform="translate(-372.498 1484.482)"/><path class="b" d="M840.806,922.382l1.466-.847-3.223-1.86-1.464.845Z" transform="translate(-382.569 1478.667)"/><path class="b" d="M856.457,931.413l1.464-.846-3.223-1.861-1.464.846Z" transform="translate(-392.642 1472.855)"/><path class="b" d="M872.1,940.448l1.465-.846-3.223-1.86-1.464.846Z" transform="translate(-402.71 1467.04)"/><path class="b" d="M887.753,949.482l1.465-.846-3.223-1.861-1.464.848Z" transform="translate(-412.782 1461.227)"/><path class="b" d="M903.4,958.518l1.465-.845-3.222-1.861-1.465.846Z" transform="translate(-422.852 1455.41)"/><path class="b" d="M919.045,967.551l1.466-.846-3.224-1.861-1.465.847Z" transform="translate(-432.921 1449.598)"/><path class="b" d="M934.7,976.587l1.465-.847-3.221-1.86-1.465.847Z" transform="translate(-442.993 1443.783)"/><path class="b" d="M950.343,985.621l1.465-.847-3.222-1.86-1.465.845Z" transform="translate(-453.063 1437.969)"/><path class="l" d="M791.917,934.812l12.051-6.959-3.791-2.19-12.052,6.959Z" transform="translate(-350.739 1474.813)"/><path class="l" d="M769.06,954.482l5.843-3.374-3.791-2.189-5.843,3.374Z" transform="translate(-336.029 1459.848)"/><path class="l" d="M751.47,967.054l3.523-2.034-3.792-2.19-3.523,2.035Z" transform="translate(-324.709 1450.895)"/><path class="l" d="M732.807,977.829l3.524-2.035-3.792-2.188-3.524,2.035Z" transform="translate(-312.698 1443.96)"/><path class="b" d="M778.982,972.122a10.988,10.988,0,0,0-9.927,0c-2.736,1.579-2.736,4.152,0,5.731a10.983,10.983,0,0,0,9.925,0C781.718,976.274,781.719,973.7,778.982,972.122Zm-8.068,4.658c-1.712-.989-1.712-2.6,0-3.585a6.871,6.871,0,0,1,6.211,0c1.712.989,1.713,2.6,0,3.585A6.872,6.872,0,0,1,770.914,976.781Zm22.564-4.658c-2.737,1.58-2.737,4.152,0,5.73a10.985,10.985,0,0,0,9.928,0c2.735-1.578,2.735-4.151,0-5.73A10.991,10.991,0,0,0,793.478,972.122Zm8.067,4.657a6.87,6.87,0,0,1-6.209,0c-1.712-.989-1.712-2.6,0-3.585a6.871,6.871,0,0,1,6.208,0C803.257,974.183,803.257,975.792,801.545,976.779ZM784.915,966.2v17.569h2.629l0-17.569Z" transform="translate(-337.146 1448.723)"/><path class="s" d="M848.844,990.508l-59.437,34.316v2.255l59.437-34.316Z" transform="translate(-351.564 1433.082)"/><path class="s" d="M779.455,1081.035l-5.512-3.183v2.257l5.512,3.181Z" transform="translate(-341.612 1376.871)"/><path class="s" d="M660.694,1012.469l-5.512-3.182v2.256l5.512,3.182Z" transform="translate(-265.182 1420.996)"/><path class="s" d="M979.676,956.7l-19.405,11.2v2.256l19.405-11.2Z" transform="translate(-461.526 1454.84)"/><path class="u" d="M1655.93,573.406c0,4.525-3.206,6.375-7.124,4.113L1409.47,439.34A15.8,15.8,0,0,1,1402.346,427V246.48c0-4.525,3.205-6.376,7.125-4.114l239.335,138.179a15.807,15.807,0,0,1,7.124,12.34Z" transform="translate(-746.029 1915.181)"/><path class="v" d="M1658.342,371.839l-239.335-138.18c-1.985-1.145-3.784-1.233-5.079-.456v0l-5.121,2.969.014,0c1.27-.615,2.955-.474,4.807.595l239.335,138.18a15.808,15.808,0,0,1,7.124,12.34V567.8c0,2.246-.791,3.832-2.066,4.584v0l5.117-2.969-.017,0c1.434-.679,2.344-2.317,2.344-4.719V384.179A15.809,15.809,0,0,0,1658.342,371.839Z" transform="translate(-750.188 1920.783)"/><path class="b" d="M1661.669,583.059,1422.334,444.879V267.191l239.335,138.179Z" transform="translate(-758.893 1898.583)"/><path class="w" d="M1175.308,1018.593a15.8,15.8,0,0,1-14.248,0L921.724,880.414c-3.918-2.262-3.918-5.964,0-8.227L1084.859,778a15.806,15.806,0,0,1,14.248,0l239.335,138.181c3.919,2.261,3.919,5.962,0,8.225Z" transform="translate(-433.147 1570.274)"/><path class="k" d="M1404.255,817.741l-11.7-6.758,5.853-3.378,11.7,6.757Z" transform="translate(-739.726 1550.792)"/><path class="k" d="M1459.56,849.672l-11.706-6.759,5.853-3.379,11.7,6.758Z" transform="translate(-775.317 1530.244)"/><path class="k" d="M1514.868,881.6l-11.7-6.758,5.851-3.378,11.706,6.758Z" transform="translate(-810.912 1509.694)"/><path class="k" d="M1570.174,913.534l-11.7-6.757,5.853-3.381,11.7,6.759Z" transform="translate(-846.507 1489.144)"/><path class="k" d="M1625.481,945.467l-11.7-6.757,5.853-3.378,11.7,6.757Z" transform="translate(-882.099 1468.591)"/><path class="k" d="M1680.791,977.4l-11.7-6.759,5.85-3.378,11.707,6.756Z" transform="translate(-917.694 1448.041)"/><path class="k" d="M1736.1,1009.33l-11.7-6.757,5.853-3.381,11.7,6.757Z" transform="translate(-953.288 1427.493)"/><path class="k" d="M1791.4,1041.26l-11.7-6.757,5.853-3.38,11.7,6.759Z" transform="translate(-988.881 1406.944)"/><path class="k" d="M1846.711,1073.19l-11.7-6.757,5.851-3.381,11.707,6.759Z" transform="translate(-1024.475 1386.395)"/><path class="k" d="M1902.017,1105.124l-11.7-6.758,5.853-3.378,11.7,6.757Z" transform="translate(-1060.067 1365.843)"/><path class="k" d="M1957.325,1137.056l-11.705-6.759,5.854-3.378,11.7,6.759Z" transform="translate(-1095.661 1345.293)"/><path class="k" d="M2012.631,1168.986l-11.706-6.759,5.853-3.379,11.706,6.759Z" transform="translate(-1131.254 1324.745)"/><path class="k" d="M1358.287,848.962l-21.042-12.149,11.7-6.757,21.043,12.15Z" transform="translate(-704.134 1536.343)"/><path class="k" d="M1313.284,884.19l-29.051-16.773,11.706-6.758,29.052,16.774Z" transform="translate(-670.017 1516.648)"/><path class="k" d="M1265.988,920.747l-37.059-21.4,11.7-6.758,37.059,21.4Z" transform="translate(-634.424 1496.097)"/><path class="k" d="M1183.043,945.824,1162,933.676l15.845-9.149,21.044,12.148Z" transform="translate(-591.351 1475.545)"/><path class="k" d="M1264.549,992.881l-21.043-12.15,15.846-9.149,21.044,12.15Z" transform="translate(-643.806 1445.262)"/><path class="k" d="M1346.058,1039.94l-21.042-12.148,15.846-9.149,21.042,12.15Z" transform="translate(-696.264 1414.976)"/><path class="k" d="M1627.088,1202.2l-21.043-12.152,15.846-9.147,21.045,12.15Z" transform="translate(-877.123 1310.555)"/><path class="k" d="M1728.692,1260.853l-41.275-23.831,15.846-9.149,41.275,23.831Z" transform="translate(-929.491 1280.322)"/><path class="k" d="M1469.68,1111.313l-63.156-36.463,15.846-9.149,63.159,36.465Z" transform="translate(-748.718 1384.691)"/><path class="k" d="M1435.974,893.816l-17.221-9.942,11.7-6.757,17.223,9.942Z" transform="translate(-756.588 1506.056)"/><path class="k" d="M1405.428,937.39l-17.223-9.942,11.706-6.759,17.221,9.942Z" transform="translate(-736.929 1478.015)"/><path class="k" d="M1374.106,981.423l-17.221-9.942,11.7-6.759,17.221,9.944Z" transform="translate(-716.772 1449.677)"/><path class="k" d="M1444.89,1022.287l-17.221-9.942,11.7-6.759,17.221,9.944Z" transform="translate(-762.326 1423.378)"/><path class="k" d="M1515.671,1063.157l-17.221-9.942,11.7-6.757,17.221,9.942Z" transform="translate(-807.878 1397.075)"/><path class="k" d="M1586.46,1104.025l-17.221-9.941,11.7-6.759,17.22,9.942Z" transform="translate(-853.436 1370.774)"/><path class="k" d="M1657.241,1144.889l-17.221-9.942,11.7-6.759,17.221,9.944Z" transform="translate(-898.987 1344.476)"/><path class="k" d="M1728.024,1185.756l-17.22-9.942,11.7-6.759,17.221,9.942Z" transform="translate(-944.541 1318.175)"/><path class="k" d="M1813.69,1235.218l-32.105-18.536,11.7-6.757,32.105,18.535Z" transform="translate(-990.094 1291.874)"/><path class="k" d="M1476.215,978.259l-17.221-9.942,11.706-6.757,17.22,9.942Z" transform="translate(-782.486 1451.712)"/><path class="k" d="M1547,1019.125l-17.221-9.944,11.706-6.757,17.221,9.942Z" transform="translate(-828.038 1425.413)"/><path class="k" d="M1617.778,1059.992l-17.221-9.942,11.707-6.759,17.221,9.944Z" transform="translate(-873.591 1399.113)"/><path class="k" d="M1688.567,1100.859l-17.221-9.942,11.706-6.759,17.22,9.942Z" transform="translate(-919.147 1372.812)"/><path class="k" d="M1759.35,1141.728l-17.221-9.944,11.706-6.757,17.221,9.942Z" transform="translate(-964.701 1346.51)"/><path class="k" d="M1853.023,1195.811l-40.113-23.161,11.706-6.757,40.113,23.159Z" transform="translate(-1010.254 1320.21)"/><path class="k" d="M1506.755,934.683l-17.221-9.942,11.705-6.757,17.221,9.944Z" transform="translate(-802.141 1479.756)"/><path class="k" d="M1577.539,975.548l-17.221-9.942,11.7-6.756,17.221,9.941Z" transform="translate(-847.694 1453.456)"/><path class="k" d="M1648.323,1016.417l-17.22-9.942,11.7-6.755,17.221,9.942Z" transform="translate(-893.25 1427.154)"/><path class="k" d="M1719.1,1057.282l-17.221-9.944,11.7-6.757,17.221,9.944Z" transform="translate(-938.8 1400.857)"/><path class="k" d="M1789.89,1098.151l-17.221-9.942,11.7-6.756,17.224,9.941Z" transform="translate(-984.355 1374.553)"/><path class="k" d="M1860.673,1139.016l-17.221-9.942,11.7-6.757,17.221,9.942Z" transform="translate(-1029.909 1348.254)"/><path class="k" d="M1937.129,1183.156l-22.891-13.216,11.7-6.757,22.891,13.216Z" transform="translate(-1075.465 1321.954)"/><path class="b" d="M1668.307,934.2,1479.18,825.005l5.682-3.279,189.126,109.192Z" transform="translate(-795.478 1541.704)"/><path class="k" d="M1301.168,1132.647l-96.509-55.721-59.971,34.624,96.51,55.72Z" transform="translate(-580.21 1377.466)"/><path class="u" d="M1338.442,1105.213,1175.308,1199.4a16,16,0,0,1-11.551,1.105c-.028-.007-2.339-.9-2.7-1.105l-239.336-138.18a8.507,8.507,0,0,1-.756-.493l-.037-.029h0c-.063-.046-.117-.1-.177-.143-.138-.108-.272-.219-.4-.331-.062-.057-.122-.115-.181-.174a5.361,5.361,0,0,1-.411-.448c-.015-.018-.033-.037-.048-.056l-.03-.036a4.965,4.965,0,0,1-.37-.55,3.732,3.732,0,0,1-.522-1.711h-.011v3.448h.027c-.022,1.505.934,3.013,2.911,4.156l239.336,138.178c5.71,2.833,13.869,2.28,16.3,1.75s4.609-1.142,7.158-1.7l153.925-88.868c1.981-1.145,2.959-2.657,2.935-4.166v-8.907C1341.359,1102.62,1340.381,1104.093,1338.442,1105.213Z" transform="translate(-434.828 1390.13)"/><path class="c" d="M1237.118,779.308,1155.373,826.5H1212.7l55.048-31.782-28.378-16.384A11.423,11.423,0,0,0,1237.118,779.308Z" transform="translate(-587.087 1569.629)"/><path class="v" d="M1422.334,267.191v23.8l239.335,138.18v-23.8Z" transform="translate(-758.894 1898.583)"/><path class="i" d="M1429.9,295.154c0-4.845,3.4-6.808,7.6-4.385a16.791,16.791,0,0,1,7.6,13.158c0,4.845-3.4,6.808-7.6,4.386A16.788,16.788,0,0,1,1429.9,295.154Z" transform="translate(-763.764 1884.077)"/><path class="x" d="M1445.514,308.043a1.62,1.62,0,0,0,.755-1.6,4.5,4.5,0,0,0-1.844-3.6c-1.017-.588-1.843.071-1.843,1.472a4.845,4.845,0,0,0,.754,2.473c-1.3-.255-2.67.323-2.67,2.711l7.517,4.34A8.452,8.452,0,0,0,1445.514,308.043Z" transform="translate(-770.691 1875.778)"/><path class="x" d="M1539.985,360.349l88.346,51.006v5.814l-88.346-51.006Z" transform="translate(-834.609 1838.63)"/><path class="x" d="M1832.815,529.414l15.541,8.972V544.2l-15.541-8.972Z" transform="translate(-1023.064 1729.825)"/><path class="x" d="M1897.126,566.546l15.541,8.972v5.815l-15.541-8.973Z" transform="translate(-1064.453 1705.929)"/><path class="x" d="M1961.438,603.674l15.541,8.972v5.816l-15.541-8.973Z" transform="translate(-1105.842 1682.034)"/><path class="x" d="M2025.75,640.8l15.539,8.972v5.815l-15.539-8.972Z" transform="translate(-1147.23 1658.139)"/><path class="y" d="M1460.366,373.237l212.223,122.527v26.875L1460.366,400.111Z" transform="translate(-783.37 1830.335)"/><path class="z" d="M1798.711,663.547V665.4L1665.5,588.489v102.4l135.087,77.993V666.48Z" transform="translate(-915.383 1691.807)"/><path class="u" d="M1655.8,685.231l135.086,77.993v-102.4L1655.8,582.831Z" transform="translate(-909.141 1695.448)"/><path class="aa" d="M1794.326,676.66,1667.791,603.6v92.529l126.536,73.056Z" transform="translate(-916.859 1682.08)"/><path class="v" d="M2036.375,799.07l-1.587.916v102.4l1.587-.917Z" transform="translate(-1153.046 1556.285)"/><path class="ab" d="M1657.385,580.259l-1.589.917,135.086,77.992,1.587-.916Z" transform="translate(-909.141 1697.104)"/><path class="v" d="M1668.83,604.2l-1.039-.6v92.529l1.039-.6Z" transform="translate(-916.859 1682.08)"/><path class="ac" d="M1668.83,861.511l-1.039.6,126.536,73.056v-1.2Z" transform="translate(-916.859 1516.099)"/><path class="j" d="M1919.68,936.151c0-5.141,3.61-7.224,8.061-4.655s8.062,8.821,8.062,13.961-3.61,7.225-8.062,4.654S1919.68,941.29,1919.68,936.151Z" transform="translate(-1078.967 1471.768)"/><path class="j" d="M1703.7,757.294c0-3.037,2.131-4.268,4.763-2.749a10.526,10.526,0,0,1,4.763,8.25c0,3.04-2.131,4.269-4.763,2.75A10.521,10.521,0,0,1,1703.7,757.294Z" transform="translate(-939.968 1585.358)"/><path class="j" d="M1985.041,861.124c0-2.117,1.485-2.975,3.319-1.916a7.338,7.338,0,0,1,3.318,5.746c0,2.115-1.487,2.974-3.318,1.915A7.336,7.336,0,0,1,1985.041,861.124Z" transform="translate(-1121.031 1517.874)"/><path class="ad" d="M1764.717,758.611l61.94,35.761v33.182l-61.94-35.762Z" transform="translate(-979.238 1582.322)"/><path class="ae" d="M1930.3,861.106l-1.041.6v33.181l1.041-.6Z" transform="translate(-1085.134 1516.36)"/><path class="af" d="M1824.19,789.315l-21.53-33.694-21.385,8.775-.338-.824,21.728-8.916a.445.445,0,0,1,.544.172l21.731,34.008Z" transform="translate(-989.678 1584.889)"/><path class="ae" d="M1756.525,760.774l-1.039.6,61.941,35.762,1.041-.6Z" transform="translate(-973.297 1580.93)"/><path class="ag" d="M1755.486,762.458l61.941,35.762V831.4l-61.941-35.762Z" transform="translate(-973.297 1579.846)"/><path class="b" d="M1793.479,821.908a15.388,15.388,0,0,1-2.153-2.1,2.4,2.4,0,0,1-.506-1.443q0-.752.506-.832a2.084,2.084,0,0,1,1.294.376,9.234,9.234,0,0,1,2.889,2.8l.967-1.016a11.941,11.941,0,0,0-1.748-2.108,10.605,10.605,0,0,0-2.038-1.565,3.556,3.556,0,0,0-2.675-.616q-1.079.305-1.082,2.022a5.334,5.334,0,0,0,.952,3.1,9.08,9.08,0,0,0,1.088,1.344q.615.629,1.794,1.639a10.42,10.42,0,0,1,1.664,1.686,2.369,2.369,0,0,1,.482,1.393q0,.716-.513.854a1.947,1.947,0,0,1-1.386-.366,10.482,10.482,0,0,1-3.374-3.577l-1.134.922a13.129,13.129,0,0,0,4.459,4.574,3.359,3.359,0,0,0,2.774.592c.707-.264,1.057-.936,1.057-2.015a5.359,5.359,0,0,0-.834-2.935A12.669,12.669,0,0,0,1793.479,821.908Zm8.686-.118-4.723,9.645,1.932,1.116,1.074-2.2,5.364,3.1,1.074,3.435,1.932,1.115-4.721-15.1Zm-.981,7.062,1.947-3.974,1.947,6.222Zm10.93-1.318-1.81-1.044v12.371l6.7,3.867v-1.983l-4.89-2.823Zm8.677,15.416v-3.31l5.135,2.966v-1.858l-5.135-2.965v-3.275l5.717,3.3v-1.963l-7.525-4.344,0,12.371,7.71,4.451v-1.963Z" transform="translate(-994.548 1545.822)"/><path class="u" d="M1537.967,605.611l-51.854-29.939V475.946l51.856,29.939Z" transform="translate(-799.939 1764.236)"/><path class="g" d="M1464.9,480.3l7.559-4.363V575.67l-7.557,4.363Z" transform="translate(-786.29 1764.239)"/><path class="e" d="M1464.9,760.1l7.559-4.363,51.854,29.938-7.555,4.364Z" transform="translate(-786.29 1584.174)"/><path class="ah" d="M1498.1,722.325l25.413-14.671,17.895,10.333v29.342Z" transform="translate(-807.654 1615.117)"/><path class="ai" d="M1495.745,495.234l2.522,1.5v87.916l-2.522,1.452Z" transform="translate(-806.138 1751.822)"/><path class="g" d="M1498.1,496.717l.842.486,0,88.885-.841.485Z" transform="translate(-807.654 1750.868)"/><path class="ai" d="M1495.745,747.549l2.522-1.452,41.625,24.031v2.91Z" transform="translate(-806.138 1590.376)"/><path class="g" d="M1498.1,747.938l.842-.485,42.465,24.518v.97Z" transform="translate(-807.654 1589.503)"/><path class="aj" d="M1498.1,496.717v89.856l43.308,25V521.721Z" transform="translate(-807.653 1750.903)"/><path class="b" d="M1610.391,564.3l7.557-4.363v99.728l-7.555,4.364Z" transform="translate(-879.92 1710.182)"/><path class="b" d="M1464.9,480.3l7.559-4.363,51.854,29.939-7.557,4.363Z" transform="translate(-786.29 1764.239)"/><path class="ak" d="M1498.1,582.981l43.308-49.868V521.721l-43.308-25Z" transform="translate(-807.654 1750.868)"/><path class="al" d="M1537.285,749.043l29.341-12.4v29.342Z" transform="translate(-832.872 1596.46)"/><path class="am" d="M2032.487,778.372l-12.1-33.809v18.1l-7.556,4.362h0l-12.036,6.948h0c0,.028,0,.052,0,.08a10.087,10.087,0,0,0,2.222,1.786c3.257,1.882,5.895.356,5.895-3.4a13.03,13.03,0,0,0,5.895,10.209c3.256,1.881,5.9.358,5.9-3.4a13.022,13.022,0,0,0,5.895,10.209c3.255,1.881,5.893.356,5.9-3.4Z" transform="translate(-1131.168 1591.363)"/><path class="g" d="M1991.817,775.821l22.795-13.16v-18.1l-22.795,23.579Z" transform="translate(-1125.392 1591.363)"/><path class="j" d="M1408.2,431.192l-11.79-6.807,22.8-23.58,11.79,6.807Z" transform="translate(-742.212 1812.594)"/><path class="b" d="M1441.282,450.289l-11.79-6.807,22.8-23.58,11.789,6.806Z" transform="translate(-763.5 1800.303)"/><path class="j" d="M1474.359,469.386l-11.79-6.808,22.8-23.58,11.79,6.807Z" transform="translate(-784.787 1788.014)"/><path class="b" d="M1507.437,488.484l-11.79-6.807,22.8-23.581,11.79,6.807Z" transform="translate(-806.075 1775.723)"/><path class="j" d="M1540.515,507.581l-11.789-6.806,22.795-23.581L1563.31,484Z" transform="translate(-827.363 1763.433)"/><path class="b" d="M1573.592,526.679l-11.79-6.807,22.8-23.58,11.79,6.807Z" transform="translate(-848.649 1751.142)"/><path class="j" d="M1606.671,545.776l-11.791-6.807,22.8-23.58,11.79,6.807Z" transform="translate(-869.938 1738.851)"/><path class="b" d="M1639.748,564.874l-11.79-6.807,22.795-23.58,11.791,6.807Z" transform="translate(-891.227 1726.561)"/><path class="j" d="M1672.826,583.972l-11.79-6.808,22.8-23.58,11.79,6.807Z" transform="translate(-912.513 1714.271)"/><path class="b" d="M1705.9,603.07l-11.79-6.808,22.8-23.58,11.792,6.807Z" transform="translate(-933.801 1701.98)"/><path class="j" d="M1738.983,622.167l-11.79-6.806,22.8-23.581,11.789,6.807Z" transform="translate(-955.09 1689.689)"/><path class="b" d="M1772.06,641.264l-11.789-6.808,22.795-23.58,11.79,6.807Z" transform="translate(-976.378 1677.399)"/><path class="j" d="M1805.138,660.361l-11.79-6.807,22.795-23.581,11.792,6.808Z" transform="translate(-997.664 1665.109)"/><path class="b" d="M1838.216,679.461l-11.791-6.808,22.8-23.579,11.789,6.806Z" transform="translate(-1018.952 1652.816)"/><path class="j" d="M1871.295,698.557l-11.79-6.808,22.795-23.581,11.79,6.808Z" transform="translate(-1040.24 1640.528)"/><path class="b" d="M1904.374,717.656l-11.791-6.807,22.8-23.581,11.791,6.807Z" transform="translate(-1061.528 1628.236)"/><path class="j" d="M1937.453,736.752l-11.789-6.807,22.795-23.581,11.789,6.807Z" transform="translate(-1082.818 1615.946)"/><path class="b" d="M1970.528,755.849l-11.791-6.807,22.8-23.581,11.79,6.808Z" transform="translate(-1104.104 1603.656)"/><path class="f" d="M1396.4,466.951v7.679a13.029,13.029,0,0,0,5.895,10.209c3.256,1.88,5.895.356,5.895-3.4v-7.679Z" transform="translate(-742.206 1770.024)"/><path class="k" d="M1429.48,486.05v7.679a13.031,13.031,0,0,0,5.9,10.21c3.256,1.88,5.895.355,5.895-3.4v-7.679Z" transform="translate(-763.492 1757.733)"/><path class="f" d="M1462.558,505.148v7.679a13.031,13.031,0,0,0,5.895,10.21c3.256,1.88,5.9.356,5.9-3.4l0-7.679Z" transform="translate(-784.78 1745.442)"/><path class="k" d="M1495.637,524.246l0,7.679a13.021,13.021,0,0,0,5.893,10.209c3.256,1.88,5.9.356,5.9-3.4v-7.679Z" transform="translate(-806.068 1733.151)"/><path class="f" d="M1528.716,543.344v7.679a13.024,13.024,0,0,0,5.9,10.209c3.255,1.881,5.895.356,5.895-3.4v-7.679Z" transform="translate(-827.357 1720.861)"/><path class="k" d="M1561.8,562.442v7.679a13.025,13.025,0,0,0,5.9,10.21c3.254,1.879,5.895.355,5.895-3.4V569.25Z" transform="translate(-848.646 1708.57)"/><path class="f" d="M1594.875,581.541v7.679a13.031,13.031,0,0,0,5.895,10.209c3.256,1.88,5.9.356,5.9-3.4v-7.679Z" transform="translate(-869.935 1696.278)"/><path class="k" d="M1627.954,600.637v7.679a13.027,13.027,0,0,0,5.895,10.209c3.256,1.88,5.895.357,5.895-3.4v-7.679Z" transform="translate(-891.223 1683.989)"/><path class="f" d="M1661.03,619.734v7.679a13.028,13.028,0,0,0,5.9,10.209c3.256,1.88,5.895.356,5.9-3.4l0-7.68Z" transform="translate(-912.51 1671.699)"/><path class="k" d="M1694.109,638.833l0,7.68A13.025,13.025,0,0,0,1700,656.722c3.256,1.88,5.895.356,5.895-3.4v-7.679Z" transform="translate(-933.798 1659.407)"/><path class="f" d="M1727.187,657.932v7.679a13.026,13.026,0,0,0,5.9,10.209c3.255,1.88,5.9.357,5.9-3.4v-7.679Z" transform="translate(-955.086 1647.116)"/><path class="k" d="M1760.271,677.029v7.679a13.024,13.024,0,0,0,5.895,10.21c3.255,1.881,5.895.356,5.895-3.4v-7.679Z" transform="translate(-976.378 1634.826)"/><path class="f" d="M1793.347,696.126v7.679a13.031,13.031,0,0,0,5.9,10.21c3.256,1.88,5.895.355,5.895-3.4v-7.679Z" transform="translate(-997.664 1622.536)"/><path class="k" d="M1826.426,715.225V722.9a13.031,13.031,0,0,0,5.895,10.209c3.256,1.88,5.9.356,5.9-3.4v-7.679Z" transform="translate(-1018.952 1610.244)"/><path class="f" d="M1859.5,734.324V742a13.031,13.031,0,0,0,5.895,10.21c3.256,1.879,5.9.356,5.9-3.4v-7.679Z" transform="translate(-1040.24 1597.953)"/><path class="k" d="M1892.583,753.421V761.1a13.024,13.024,0,0,0,5.895,10.209c3.256,1.881,5.895.357,5.895-3.4v-7.678Z" transform="translate(-1061.528 1585.663)"/><path class="f" d="M1925.659,772.52V780.2a13.03,13.03,0,0,0,5.9,10.21c3.255,1.88,5.9.358,5.9-3.4v-7.679Z" transform="translate(-1082.815 1573.371)"/><path class="k" d="M1958.743,791.619V799.3a13.02,13.02,0,0,0,5.9,10.209c3.253,1.882,5.893.357,5.895-3.4l0-7.679Z" transform="translate(-1104.107 1561.08)"/><path class="k" d="M1770.975,309.556a1.548,1.548,0,1,1,.57,2.11A1.546,1.546,0,0,1,1770.975,309.556Z" transform="translate(-983.134 1871.813)"/><path class="k" d="M1789.784,320.413a1.548,1.548,0,1,1,.571,2.11A1.546,1.546,0,0,1,1789.784,320.413Z" transform="translate(-995.239 1864.827)"/><path class="k" d="M1808.6,331.269a1.548,1.548,0,1,1,.571,2.11A1.547,1.547,0,0,1,1808.6,331.269Z" transform="translate(-1007.346 1857.84)"/><path class="k" d="M1827.406,342.125a1.549,1.549,0,1,1,.571,2.11A1.546,1.546,0,0,1,1827.406,342.125Z" transform="translate(-1019.451 1850.854)"/><path class="k" d="M1846.217,352.981a1.548,1.548,0,1,1,.57,2.11A1.545,1.545,0,0,1,1846.217,352.981Z" transform="translate(-1031.558 1843.867)"/><path class="k" d="M1865.028,363.837a1.548,1.548,0,1,1,.57,2.11A1.546,1.546,0,0,1,1865.028,363.837Z" transform="translate(-1043.663 1836.881)"/><path class="k" d="M1883.839,374.693a1.548,1.548,0,1,1,.57,2.11A1.546,1.546,0,0,1,1883.839,374.693Z" transform="translate(-1055.77 1829.894)"/><path class="k" d="M1902.65,385.55a1.548,1.548,0,1,1,.57,2.109A1.546,1.546,0,0,1,1902.65,385.55Z" transform="translate(-1067.875 1822.907)"/><path class="k" d="M1921.462,396.406a1.548,1.548,0,1,1,.57,2.11A1.545,1.545,0,0,1,1921.462,396.406Z" transform="translate(-1079.982 1815.921)"/><path class="k" d="M1940.272,407.261a1.549,1.549,0,1,1,.57,2.11A1.546,1.546,0,0,1,1940.272,407.261Z" transform="translate(-1092.087 1808.934)"/><path class="k" d="M1959.083,418.118a1.548,1.548,0,1,1,.57,2.11A1.545,1.545,0,0,1,1959.083,418.118Z" transform="translate(-1104.192 1801.948)"/><path class="k" d="M1977.894,428.974a1.548,1.548,0,1,1,.57,2.11A1.545,1.545,0,0,1,1977.894,428.974Z" transform="translate(-1116.3 1794.961)"/><path class="k" d="M1996.7,439.83a1.548,1.548,0,1,1,.571,2.11A1.546,1.546,0,0,1,1996.7,439.83Z" transform="translate(-1128.405 1787.974)"/><path class="k" d="M2015.515,450.686a1.548,1.548,0,1,1,.571,2.11A1.546,1.546,0,0,1,2015.515,450.686Z" transform="translate(-1140.511 1780.987)"/><path class="k" d="M2034.326,461.542a1.548,1.548,0,1,1,.571,2.11A1.546,1.546,0,0,1,2034.326,461.542Z" transform="translate(-1152.617 1774.001)"/><path class="k" d="M2053.137,472.4a1.548,1.548,0,1,1,.571,2.11A1.546,1.546,0,0,1,2053.137,472.4Z" transform="translate(-1164.724 1767.014)"/><path class="k" d="M2071.948,483.254a1.548,1.548,0,1,1,.571,2.11A1.547,1.547,0,0,1,2071.948,483.254Z" transform="translate(-1176.83 1760.028)"/><path class="k" d="M2090.758,494.111a1.548,1.548,0,1,1,.57,2.11A1.545,1.545,0,0,1,2090.758,494.111Z" transform="translate(-1188.936 1753.041)"/><path class="k" d="M2109.57,504.967a1.548,1.548,0,1,1,.57,2.11A1.545,1.545,0,0,1,2109.57,504.967Z" transform="translate(-1201.041 1746.055)"/><path class="k" d="M2128.381,515.822a1.548,1.548,0,1,1,.57,2.11A1.545,1.545,0,0,1,2128.381,515.822Z" transform="translate(-1213.147 1739.068)"/><path class="k" d="M2147.191,526.679a1.548,1.548,0,1,1,.57,2.11A1.545,1.545,0,0,1,2147.191,526.679Z" transform="translate(-1225.253 1732.082)"/><path class="k" d="M2166,537.535a1.548,1.548,0,1,1,.57,2.11A1.545,1.545,0,0,1,2166,537.535Z" transform="translate(-1237.359 1725.095)"/><path class="k" d="M2184.813,548.391a1.548,1.548,0,1,1,.57,2.11A1.546,1.546,0,0,1,2184.813,548.391Z" transform="translate(-1249.465 1718.108)"/><path class="k" d="M2203.624,559.246a1.548,1.548,0,1,1,.57,2.11A1.545,1.545,0,0,1,2203.624,559.246Z" transform="translate(-1261.57 1711.122)"/><path class="k" d="M2222.435,570.1a1.548,1.548,0,1,1,.57,2.11A1.545,1.545,0,0,1,2222.435,570.1Z" transform="translate(-1273.677 1704.135)"/><path class="k" d="M2241.244,580.959a1.548,1.548,0,1,1,.571,2.11A1.547,1.547,0,0,1,2241.244,580.959Z" transform="translate(-1285.783 1697.148)"/><path class="k" d="M2260.055,591.815a1.548,1.548,0,1,1,.571,2.109A1.547,1.547,0,0,1,2260.055,591.815Z" transform="translate(-1297.889 1690.162)"/><path class="k" d="M2278.618,620.691a1.531,1.531,0,1,1-1.543,1.531A1.537,1.537,0,0,1,2278.618,620.691Z" transform="translate(-1308.975 1671.083)"/><path class="k" d="M2278.618,602.481a1.53,1.53,0,1,1-1.543,1.531A1.537,1.537,0,0,1,2278.618,602.481Z" transform="translate(-1308.975 1682.802)"/><path class="k" d="M2278.618,642.161a1.531,1.531,0,1,1-1.543,1.53A1.537,1.537,0,0,1,2278.618,642.161Z" transform="translate(-1308.975 1657.266)"/><path class="k" d="M2278.618,663.63a1.531,1.531,0,1,1-1.543,1.531A1.537,1.537,0,0,1,2278.618,663.63Z" transform="translate(-1308.975 1643.449)"/><path class="k" d="M2278.618,685.1a1.53,1.53,0,1,1-1.543,1.53A1.537,1.537,0,0,1,2278.618,685.1Z" transform="translate(-1308.975 1629.631)"/><path class="k" d="M2278.618,706.57a1.53,1.53,0,1,1-1.543,1.53A1.537,1.537,0,0,1,2278.618,706.57Z" transform="translate(-1308.975 1615.814)"/><path class="k" d="M2278.618,728.037a1.531,1.531,0,1,1-1.543,1.531A1.537,1.537,0,0,1,2278.618,728.037Z" transform="translate(-1308.975 1601.999)"/><path class="k" d="M2278.618,749.507a1.53,1.53,0,1,1-1.543,1.53A1.537,1.537,0,0,1,2278.618,749.507Z" transform="translate(-1308.975 1588.181)"/><path class="k" d="M2278.618,770.977a1.53,1.53,0,1,1-1.543,1.531A1.537,1.537,0,0,1,2278.618,770.977Z" transform="translate(-1308.975 1574.364)"/><path class="k" d="M2278.618,792.444a1.531,1.531,0,1,1-1.543,1.532A1.538,1.538,0,0,1,2278.618,792.444Z" transform="translate(-1308.975 1560.549)"/><path class="k" d="M2278.618,813.914a1.531,1.531,0,1,1-1.543,1.532A1.538,1.538,0,0,1,2278.618,813.914Z" transform="translate(-1308.975 1546.731)"/><path class="k" d="M2278.618,835.383a1.531,1.531,0,1,1-1.543,1.532A1.538,1.538,0,0,1,2278.618,835.383Z" transform="translate(-1308.975 1532.915)"/><path class="k" d="M2278.618,856.853a1.531,1.531,0,1,1-1.543,1.531A1.537,1.537,0,0,1,2278.618,856.853Z" transform="translate(-1308.975 1519.097)"/><path class="k" d="M2278.618,878.323a1.53,1.53,0,1,1-1.543,1.53A1.537,1.537,0,0,1,2278.618,878.323Z" transform="translate(-1308.975 1505.28)"/><path class="k" d="M2278.618,899.793a1.53,1.53,0,1,1-1.543,1.53A1.537,1.537,0,0,1,2278.618,899.793Z" transform="translate(-1308.975 1491.463)"/><path class="k" d="M2278.618,921.262a1.53,1.53,0,1,1-1.543,1.531A1.537,1.537,0,0,1,2278.618,921.262Z" transform="translate(-1308.975 1477.646)"/><path class="k" d="M2278.618,942.73a1.531,1.531,0,1,1-1.543,1.531A1.537,1.537,0,0,1,2278.618,942.73Z" transform="translate(-1308.975 1463.83)"/><path class="k" d="M2278.618,964.2a1.531,1.531,0,1,1-1.543,1.531A1.537,1.537,0,0,1,2278.618,964.2Z" transform="translate(-1308.975 1450.013)"/><path class="k" d="M2278.618,985.669a1.53,1.53,0,1,1-1.543,1.531A1.537,1.537,0,0,1,2278.618,985.669Z" transform="translate(-1308.975 1436.196)"/><path class="k" d="M2278.618,1007.139a1.53,1.53,0,1,1-1.543,1.531A1.537,1.537,0,0,1,2278.618,1007.139Z" transform="translate(-1308.975 1422.379)"/><path class="k" d="M2278.618,1028.609a1.53,1.53,0,1,1-1.543,1.531A1.537,1.537,0,0,1,2278.618,1028.609Z" transform="translate(-1308.975 1408.562)"/><path class="k" d="M2278.618,1050.076a1.531,1.531,0,1,1-1.543,1.53A1.537,1.537,0,0,1,2278.618,1050.076Z" transform="translate(-1308.975 1394.746)"/><path class="k" d="M2278.618,1071.546a1.531,1.531,0,1,1-1.543,1.53A1.537,1.537,0,0,1,2278.618,1071.546Z" transform="translate(-1308.975 1380.929)"/><path class="k" d="M2278.618,1093.015a1.531,1.531,0,1,1-1.543,1.531A1.537,1.537,0,0,1,2278.618,1093.015Z" transform="translate(-1308.975 1367.112)"/><path class="k" d="M2278.618,1114.485a1.53,1.53,0,1,1-1.543,1.531A1.537,1.537,0,0,1,2278.618,1114.485Z" transform="translate(-1308.975 1353.295)"/><path class="k" d="M2278.618,1135.955a1.53,1.53,0,1,1-1.543,1.531A1.537,1.537,0,0,1,2278.618,1135.955Z" transform="translate(-1308.975 1339.477)"/><path class="k" d="M2278.618,1157.422a1.531,1.531,0,1,1-1.543,1.531A1.537,1.537,0,0,1,2278.618,1157.422Z" transform="translate(-1308.975 1325.662)"/><path class="k" d="M2278.618,1178.892a1.531,1.531,0,1,1-1.543,1.531A1.537,1.537,0,0,1,2278.618,1178.892Z" transform="translate(-1308.975 1311.845)"/><path class="k" d="M2278.618,1200.361a1.531,1.531,0,1,1-1.543,1.531A1.537,1.537,0,0,1,2278.618,1200.361Z" transform="translate(-1308.975 1298.028)"/><path class="k" d="M2278.618,1221.831a1.53,1.53,0,1,1-1.543,1.531A1.538,1.538,0,0,1,2278.618,1221.831Z" transform="translate(-1308.975 1284.211)"/><path class="k" d="M2278.618,1243.3a1.53,1.53,0,1,1-1.543,1.531A1.537,1.537,0,0,1,2278.618,1243.3Z" transform="translate(-1308.975 1270.393)"/><path class="k" d="M2278.618,1264.771a1.53,1.53,0,1,1-1.543,1.531A1.537,1.537,0,0,1,2278.618,1264.771Z" transform="translate(-1308.975 1256.576)"/><path class="k" d="M888.774,1253.507a1.562,1.562,0,1,1,.581,2.117A1.554,1.554,0,0,1,888.774,1253.507Z" transform="translate(-415.382 1264.318)"/><path class="k" d="M907.743,1264.468a1.562,1.562,0,1,1,.581,2.117A1.553,1.553,0,0,1,907.743,1264.468Z" transform="translate(-427.589 1257.264)"/><path class="k" d="M926.712,1275.43a1.561,1.561,0,1,1,.581,2.116A1.551,1.551,0,0,1,926.712,1275.43Z" transform="translate(-439.797 1250.209)"/><path class="k" d="M945.68,1286.391a1.562,1.562,0,1,1,.581,2.116A1.553,1.553,0,0,1,945.68,1286.391Z" transform="translate(-452.004 1243.156)"/><path class="k" d="M964.649,1297.351a1.561,1.561,0,1,1,.581,2.117A1.551,1.551,0,0,1,964.649,1297.351Z" transform="translate(-464.212 1236.102)"/><path class="k" d="M983.617,1308.313a1.562,1.562,0,1,1,.581,2.117A1.552,1.552,0,0,1,983.617,1308.313Z" transform="translate(-476.419 1229.047)"/><path class="k" d="M1002.584,1319.273a1.562,1.562,0,1,1,.581,2.116A1.553,1.553,0,0,1,1002.584,1319.273Z" transform="translate(-488.625 1221.994)"/><path class="k" d="M1021.555,1330.235a1.561,1.561,0,1,1,.581,2.116A1.551,1.551,0,0,1,1021.555,1330.235Z" transform="translate(-500.834 1214.939)"/><path class="k" d="M1040.524,1341.2a1.562,1.562,0,1,1,.58,2.117A1.552,1.552,0,0,1,1040.524,1341.2Z" transform="translate(-513.042 1207.885)"/><path class="k" d="M1059.491,1352.156a1.562,1.562,0,1,1,.58,2.116A1.552,1.552,0,0,1,1059.491,1352.156Z" transform="translate(-525.25 1200.831)"/><path class="k" d="M1078.46,1363.118a1.561,1.561,0,1,1,.58,2.116A1.552,1.552,0,0,1,1078.46,1363.118Z" transform="translate(-537.456 1193.776)"/><path class="k" d="M1097.428,1374.078a1.562,1.562,0,1,1,.58,2.117A1.553,1.553,0,0,1,1097.428,1374.078Z" transform="translate(-549.664 1186.723)"/><path class="k" d="M1116.4,1385.039a1.562,1.562,0,1,1,.581,2.116A1.553,1.553,0,0,1,1116.4,1385.039Z" transform="translate(-561.871 1179.669)"/><path class="k" d="M1135.364,1396a1.562,1.562,0,1,1,.58,2.117A1.552,1.552,0,0,1,1135.364,1396Z" transform="translate(-574.078 1172.614)"/><path class="k" d="M1154.332,1406.962a1.562,1.562,0,1,1,.581,2.116A1.554,1.554,0,0,1,1154.332,1406.962Z" transform="translate(-586.285 1165.56)"/><path class="k" d="M1173.3,1417.923a1.562,1.562,0,1,1,.581,2.116A1.551,1.551,0,0,1,1173.3,1417.923Z" transform="translate(-598.492 1158.506)"/><path class="k" d="M1192.271,1428.884a1.562,1.562,0,1,1,.581,2.117A1.553,1.553,0,0,1,1192.271,1428.884Z" transform="translate(-610.701 1151.452)"/><path class="k" d="M1211.239,1439.844a1.562,1.562,0,1,1,.58,2.116A1.552,1.552,0,0,1,1211.239,1439.844Z" transform="translate(-622.908 1144.398)"/><path class="k" d="M1230.208,1450.806a1.561,1.561,0,1,1,.581,2.117A1.552,1.552,0,0,1,1230.208,1450.806Z" transform="translate(-635.116 1137.344)"/><path class="k" d="M1249.175,1461.765a1.562,1.562,0,1,1,.58,2.117A1.552,1.552,0,0,1,1249.175,1461.765Z" transform="translate(-647.322 1130.291)"/><path class="k" d="M1268.144,1472.727a1.562,1.562,0,1,1,.58,2.116A1.552,1.552,0,0,1,1268.144,1472.727Z" transform="translate(-659.531 1123.236)"/><path class="k" d="M1287.112,1483.688a1.562,1.562,0,1,1,.58,2.117A1.554,1.554,0,0,1,1287.112,1483.688Z" transform="translate(-671.737 1116.182)"/><path class="k" d="M1306.08,1494.648a1.562,1.562,0,1,1,.581,2.116A1.552,1.552,0,0,1,1306.08,1494.648Z" transform="translate(-683.944 1109.129)"/><path class="k" d="M1325.05,1505.61a1.562,1.562,0,1,1,.581,2.116A1.551,1.551,0,0,1,1325.05,1505.61Z" transform="translate(-696.153 1102.074)"/><path class="k" d="M1344.019,1516.571a1.562,1.562,0,1,1,.58,2.117A1.552,1.552,0,0,1,1344.019,1516.571Z" transform="translate(-708.361 1095.02)"/><path class="k" d="M1362.987,1527.531a1.562,1.562,0,1,1,.58,2.116A1.551,1.551,0,0,1,1362.987,1527.531Z" transform="translate(-720.568 1087.966)"/><path class="k" d="M1381.957,1538.493a1.561,1.561,0,1,1,.58,2.117A1.551,1.551,0,0,1,1381.957,1538.493Z" transform="translate(-732.775 1080.912)"/><path class="k" d="M1400.924,1549.454a1.562,1.562,0,1,1,.58,2.117A1.553,1.553,0,0,1,1400.924,1549.454Z" transform="translate(-744.982 1073.857)"/><path class="k" d="M1419.892,1560.415a1.562,1.562,0,1,1,.581,2.116A1.552,1.552,0,0,1,1419.892,1560.415Z" transform="translate(-757.19 1066.804)"/><path class="k" d="M1438.861,1571.375a1.562,1.562,0,1,1,.58,2.117A1.553,1.553,0,0,1,1438.861,1571.375Z" transform="translate(-769.398 1059.75)"/><path class="k" d="M1457.828,1582.335a1.562,1.562,0,1,1,.581,2.117A1.553,1.553,0,0,1,1457.828,1582.335Z" transform="translate(-781.604 1052.696)"/><path class="k" d="M1476.8,1593.3a1.562,1.562,0,1,1,.581,2.116A1.552,1.552,0,0,1,1476.8,1593.3Z" transform="translate(-793.812 1045.641)"/><path class="k" d="M1495.765,1604.258a1.562,1.562,0,1,1,.581,2.117A1.552,1.552,0,0,1,1495.765,1604.258Z" transform="translate(-806.02 1038.587)"/><path class="k" d="M1514.735,1615.219a1.562,1.562,0,1,1,.58,2.116A1.551,1.551,0,0,1,1514.735,1615.219Z" transform="translate(-818.228 1031.534)"/><path class="k" d="M1533.7,1626.181a1.561,1.561,0,1,1,.58,2.117A1.55,1.55,0,0,1,1533.7,1626.181Z" transform="translate(-830.436 1024.479)"/><path class="k" d="M1552.672,1637.14a1.562,1.562,0,1,1,.58,2.117A1.552,1.552,0,0,1,1552.672,1637.14Z" transform="translate(-842.643 1017.425)"/><path class="k" d="M1571.639,1648.1a1.562,1.562,0,1,1,.581,2.117A1.553,1.553,0,0,1,1571.639,1648.1Z" transform="translate(-854.85 1010.371)"/><path class="k" d="M1590.609,1659.062a1.562,1.562,0,1,1,.58,2.118A1.554,1.554,0,0,1,1590.609,1659.062Z" transform="translate(-867.058 1003.317)"/><path class="k" d="M1608.971,1669.081a1.562,1.562,0,1,1,.581,2.118A1.554,1.554,0,0,1,1608.971,1669.081Z" transform="translate(-878.874 996.869)"/><path class="k" d="M1625.147,1660.738a1.542,1.542,0,1,1,2.108.565A1.543,1.543,0,0,1,1625.147,1660.738Z" transform="translate(-889.284 1003.235)"/><path class="k" d="M1643.887,1649.919a1.542,1.542,0,1,1,2.107.565A1.544,1.544,0,0,1,1643.887,1649.919Z" transform="translate(-901.344 1010.198)"/><path class="k" d="M1662.625,1639.1a1.543,1.543,0,1,1,2.108.564A1.544,1.544,0,0,1,1662.625,1639.1Z" transform="translate(-913.403 1017.161)"/><path class="k" d="M1681.365,1628.281a1.542,1.542,0,1,1,2.108.563A1.543,1.543,0,0,1,1681.365,1628.281Z" transform="translate(-925.463 1024.124)"/><path class="k" d="M1700.105,1617.46a1.542,1.542,0,1,1,2.108.565A1.543,1.543,0,0,1,1700.105,1617.46Z" transform="translate(-937.523 1031.087)"/><path class="k" d="M1718.846,1606.641a1.542,1.542,0,1,1,2.106.565A1.544,1.544,0,0,1,1718.846,1606.641Z" transform="translate(-949.584 1038.051)"/><path class="k" d="M1737.583,1595.822a1.543,1.543,0,1,1,2.108.564A1.544,1.544,0,0,1,1737.583,1595.822Z" transform="translate(-961.644 1045.013)"/><path class="k" d="M1756.324,1585a1.543,1.543,0,1,1,2.108.564A1.543,1.543,0,0,1,1756.324,1585Z" transform="translate(-973.704 1051.976)"/><path class="k" d="M1775.064,1574.183a1.543,1.543,0,1,1,2.107.565A1.543,1.543,0,0,1,1775.064,1574.183Z" transform="translate(-985.765 1058.938)"/><path class="k" d="M1793.8,1563.364a1.543,1.543,0,1,1,2.108.565A1.543,1.543,0,0,1,1793.8,1563.364Z" transform="translate(-997.824 1065.901)"/><path class="k" d="M1812.542,1552.545a1.542,1.542,0,1,1,2.108.564A1.544,1.544,0,0,1,1812.542,1552.545Z" transform="translate(-1009.885 1072.865)"/><path class="k" d="M1831.282,1541.726a1.543,1.543,0,1,1,2.108.563A1.544,1.544,0,0,1,1831.282,1541.726Z" transform="translate(-1021.945 1079.827)"/><path class="k" d="M1850.021,1530.906a1.543,1.543,0,1,1,2.108.565A1.544,1.544,0,0,1,1850.021,1530.906Z" transform="translate(-1034.005 1086.79)"/><path class="k" d="M1868.76,1520.086a1.543,1.543,0,1,1,2.107.565A1.543,1.543,0,0,1,1868.76,1520.086Z" transform="translate(-1046.064 1093.754)"/><path class="k" d="M1887.5,1509.268a1.543,1.543,0,1,1,2.108.563A1.545,1.545,0,0,1,1887.5,1509.268Z" transform="translate(-1058.125 1100.716)"/><path class="k" d="M1906.241,1498.449a1.542,1.542,0,1,1,2.106.564A1.543,1.543,0,0,1,1906.241,1498.449Z" transform="translate(-1070.186 1107.679)"/><path class="k" d="M1924.978,1487.629a1.543,1.543,0,1,1,2.108.565A1.543,1.543,0,0,1,1924.978,1487.629Z" transform="translate(-1082.244 1114.642)"/><path class="k" d="M1943.719,1476.808a1.542,1.542,0,1,1,2.108.565A1.542,1.542,0,0,1,1943.719,1476.808Z" transform="translate(-1094.306 1121.606)"/><path class="k" d="M1962.459,1465.99a1.542,1.542,0,1,1,2.108.564A1.544,1.544,0,0,1,1962.459,1465.99Z" transform="translate(-1106.365 1128.568)"/><path class="k" d="M1981.2,1455.171a1.543,1.543,0,1,1,2.107.564A1.543,1.543,0,0,1,1981.2,1455.171Z" transform="translate(-1118.425 1135.531)"/><path class="k" d="M1999.937,1444.35a1.543,1.543,0,1,1,2.108.565A1.543,1.543,0,0,1,1999.937,1444.35Z" transform="translate(-1130.485 1142.494)"/><path class="k" d="M2018.677,1433.532a1.542,1.542,0,1,1,2.108.565A1.544,1.544,0,0,1,2018.677,1433.532Z" transform="translate(-1142.546 1149.457)"/><path class="k" d="M2037.417,1422.713a1.543,1.543,0,1,1,2.107.564A1.544,1.544,0,0,1,2037.417,1422.713Z" transform="translate(-1154.606 1156.42)"/><path class="k" d="M2056.156,1411.893a1.543,1.543,0,1,1,2.108.564A1.544,1.544,0,0,1,2056.156,1411.893Z" transform="translate(-1166.666 1163.383)"/><path class="k" d="M2074.9,1401.074a1.542,1.542,0,1,1,2.108.565A1.545,1.545,0,0,1,2074.9,1401.074Z" transform="translate(-1178.727 1170.345)"/><path class="k" d="M2093.636,1390.254a1.542,1.542,0,1,1,2.108.565A1.543,1.543,0,0,1,2093.636,1390.254Z" transform="translate(-1190.787 1177.309)"/><path class="k" d="M2112.375,1379.435a1.542,1.542,0,1,1,2.107.564A1.543,1.543,0,0,1,2112.375,1379.435Z" transform="translate(-1202.846 1184.272)"/><path class="k" d="M2131.114,1368.617a1.543,1.543,0,1,1,2.108.564A1.544,1.544,0,0,1,2131.114,1368.617Z" transform="translate(-1214.905 1191.234)"/><path class="k" d="M2149.854,1357.8a1.543,1.543,0,1,1,2.108.565A1.544,1.544,0,0,1,2149.854,1357.8Z" transform="translate(-1226.967 1198.198)"/><path class="k" d="M2168.594,1346.977a1.542,1.542,0,1,1,2.107.564A1.544,1.544,0,0,1,2168.594,1346.977Z" transform="translate(-1239.027 1205.161)"/><path class="k" d="M2187.332,1336.158a1.543,1.543,0,1,1,2.108.564A1.544,1.544,0,0,1,2187.332,1336.158Z" transform="translate(-1251.086 1212.123)"/><path class="k" d="M2206.073,1325.339a1.543,1.543,0,1,1,2.108.565A1.543,1.543,0,0,1,2206.073,1325.339Z" transform="translate(-1263.146 1219.086)"/><path class="k" d="M2224.812,1314.518a1.542,1.542,0,1,1,2.108.565A1.544,1.544,0,0,1,2224.812,1314.518Z" transform="translate(-1275.207 1226.05)"/><path class="k" d="M2243.552,1303.7a1.542,1.542,0,1,1,2.107.564A1.542,1.542,0,0,1,2243.552,1303.7Z" transform="translate(-1287.266 1233.013)"/><path class="k" d="M2262.29,1292.881a1.543,1.543,0,1,1,2.108.563A1.544,1.544,0,0,1,2262.29,1292.881Z" transform="translate(-1299.326 1239.975)"/><path class="an" d="M861.077,1211.21c-4.6-2.655-10.714-3.878-16.719-3.7h-6.7v1.543a24.893,24.893,0,0,0-4.98,2.156c-8.56,4.978-8.51,13.045.1,18.022a25.047,25.047,0,0,0,4.876,2.114v1.611h8.581a31.408,31.408,0,0,0,14.944-3.724C869.739,1224.255,869.7,1216.188,861.077,1211.21Z" transform="translate(-375.299 1293.438)"/><path class="ao" d="M805.569,1243.763c-4.337-2.5-6.5-5.792-6.5-9.073l.02-4.617c-.009,3.286,2.156,6.569,6.492,9.076,8.621,4.974,22.549,4.974,31.111,0,4.253-2.472,6.38-5.707,6.392-8.947l-.018,4.614c-.009,3.241-2.139,6.474-6.392,8.948C828.116,1248.743,814.189,1248.743,805.569,1243.763Z" transform="translate(-357.786 1278.907)"/><path class="e" d="M805.621,1216.264c-8.615-4.976-8.664-13.046-.1-18.019s22.5-4.976,31.112,0,8.664,13.043.1,18.019S814.243,1221.237,805.621,1216.264Z" transform="translate(-357.821 1301.792)"/><path class="ag" d="M842.724,1224.042a4.377,4.377,0,0,0-2.177-.508l-3.362-7.107a5.12,5.12,0,0,0,1.185-.482,2.762,2.762,0,0,0,1.014-.937l10.558.953a1.591,1.591,0,0,0,.855,1.063,4.721,4.721,0,0,0,4.268,0,1.3,1.3,0,0,0,0-2.466,4.714,4.714,0,0,0-4.269,0,2.059,2.059,0,0,0-.633.542l-10.548-.953a2.153,2.153,0,0,0-1.246-1.688,6.665,6.665,0,0,0-6.038,0c-1.667.962-1.667,2.522,0,3.485a6.315,6.315,0,0,0,3.4.712l3.365,7.111a3.435,3.435,0,0,0-.642.274,1.3,1.3,0,0,0,0,2.464,4.715,4.715,0,0,0,4.269,0A1.3,1.3,0,0,0,842.724,1224.042Z" transform="translate(-378.385 1290.707)"/><path class="ap" d="M2262.762,1022.384c-5-2.888-9.533-3.154-12.807-1.253l-4.489,2.608c3.275-1.9,7.806-1.635,12.81,1.254,9.94,5.738,17.97,19.649,17.937,31.068-.014,5.672-2.018,9.668-5.249,11.546l4.488-2.61c3.231-1.876,5.234-5.87,5.251-11.546C2280.736,1042.036,2272.7,1028.124,2262.762,1022.384Z" transform="translate(-1288.632 1414.156)"/><path class="b" d="M2248.8,1029.7c-9.94-5.738-18.027-1.134-18.058,10.286s8,25.335,17.938,31.073,18.026,1.131,18.057-10.291S2258.74,1035.441,2248.8,1029.7Z" transform="translate(-1279.156 1409.447)"/><path class="ag" d="M2271.571,1064.577c-3.377-5.849-8.854-9.012-12.232-7.062s-3.376,8.273,0,14.124l6.116,10.592,6.117-3.532C2274.948,1076.751,2274.948,1070.426,2271.571,1064.577Zm-6.117,8.241a9.015,9.015,0,0,1-4.079-7.065c0-2.6,1.826-3.658,4.079-2.359a9.017,9.017,0,0,1,4.08,7.07C2269.535,1073.066,2267.71,1074.121,2265.454,1072.818Z" transform="translate(-1295.93 1390.329)"/><path class="an" d="M1089.116,1342.871c-4.6-2.656-10.713-3.88-16.718-3.7h-6.7v1.543a24.972,24.972,0,0,0-4.98,2.157c-8.559,4.976-8.51,13.044.1,18.021a24.963,24.963,0,0,0,4.876,2.113v1.612h8.582a31.4,31.4,0,0,0,14.942-3.723C1097.78,1355.915,1097.736,1347.847,1089.116,1342.871Z" transform="translate(-522.057 1208.706)"/><path class="ao" d="M1033.6,1375.422c-4.337-2.5-6.5-5.791-6.5-9.073l.023-4.618c-.01,3.285,2.155,6.57,6.49,9.078,8.624,4.972,22.55,4.972,31.112,0,4.254-2.473,6.381-5.707,6.394-8.947l-.02,4.613c-.009,3.241-2.138,6.473-6.39,8.948C1056.154,1380.4,1042.225,1380.4,1033.6,1375.422Z" transform="translate(-504.541 1194.176)"/><path class="e" d="M1033.659,1347.922c-8.614-4.977-8.664-13.047-.1-18.021s22.5-4.977,31.112,0,8.663,13.044.1,18.021S1042.282,1352.895,1033.659,1347.922Z" transform="translate(-504.577 1217.063)"/><path class="f" d="M1079.206,1345.374a3.148,3.148,0,0,0-1.565-1.762,8.759,8.759,0,0,0-7.922,0,2.779,2.779,0,0,0-1.64,2.286v7.808l13.52,0a8.084,8.084,0,0,0,3.963-.946c2.188-1.262,2.188-3.311,0-4.573a7.555,7.555,0,0,0-3.052-.9l-2.958-.2Z" transform="translate(-530.906 1206.446)"/><path class="ap" d="M2262.762,751.288c-5-2.888-9.533-3.155-12.807-1.253l-4.489,2.608c3.275-1.9,7.806-1.633,12.81,1.254,9.94,5.738,17.97,19.649,17.937,31.068-.014,5.672-2.018,9.668-5.249,11.546l4.488-2.61c3.231-1.875,5.234-5.87,5.251-11.545C2280.736,770.94,2272.7,757.027,2262.762,751.288Z" transform="translate(-1288.632 1588.624)"/><path class="b" d="M2248.8,758.606c-9.94-5.738-18.027-1.133-18.058,10.286s8,25.336,17.938,31.073,18.026,1.131,18.057-10.291S2258.74,764.345,2248.8,758.606Z" transform="translate(-1279.156 1583.914)"/><path class="ag" d="M2271.9,795.543a6.339,6.339,0,0,1-2.864-4.961c0-1.824,1.284-2.566,2.864-1.654a6.338,6.338,0,0,1,2.863,4.961l2.082,1.2a11.122,11.122,0,0,0-3.9-7.836l0-2.12-2.083-1.2v2.121c-2.23-.734-3.9.59-3.9,3.327a10.943,10.943,0,0,0,4.945,8.567,6.33,6.33,0,0,1,2.863,4.964,1.746,1.746,0,0,1-2.863,1.654,6.341,6.341,0,0,1-2.864-4.962l-2.081-1.2a11.118,11.118,0,0,0,3.9,7.836v2.119l2.082,1.2v-2.119a2.949,2.949,0,0,0,2.456-.126,3.477,3.477,0,0,0,1.448-3.2,10.922,10.922,0,0,0-4.945-8.571Z" transform="translate(-1302.459 1566.026)"/><path class="aq" d="M1739.763,240.478c-5-2.888-9.533-3.154-12.808-1.253l-4.487,2.608c3.273-1.9,7.806-1.634,12.809,1.255,9.938,5.738,17.97,19.648,17.937,31.068-.016,5.673-2.02,9.668-5.25,11.545l4.489-2.608c3.231-1.877,5.234-5.87,5.251-11.545C1757.737,260.13,1749.706,246.217,1739.763,240.478Z" transform="translate(-952.049 1917.363)"/><path class="e" d="M1725.8,247.8c-9.941-5.738-18.027-1.133-18.06,10.285s8,25.335,17.938,31.074,18.026,1.13,18.058-10.292S1735.737,253.535,1725.8,247.8Z" transform="translate(-942.569 1912.653)"/><path class="ag" d="M1744.7,281.745c-3.108-5.384-8.167-8.3-11.275-6.509s-3.108,7.634,0,13.018c2.839,4.919,7.3,7.769,10.426,6.858l4.556,7.893c.436.754,1.142,1.162,1.578.911s.435-1.067,0-1.82l-4.558-7.893C1747.778,291.955,1747.542,286.665,1744.7,281.745Zm-1.576,10.288c-2.239,1.292-5.883-.811-8.122-4.689s-2.239-8.085,0-9.376,5.883.811,8.122,4.688S1745.364,290.74,1743.125,292.033Z" transform="translate(-957.601 1893.746)"/><path class="ar" d="M2075.494,434.312c-5-2.888-9.533-3.154-12.808-1.253l-4.489,2.608c3.274-1.9,7.805-1.634,12.809,1.255,9.941,5.738,17.971,19.649,17.938,31.068-.015,5.673-2.018,9.668-5.249,11.545l4.489-2.608c3.23-1.877,5.234-5.87,5.25-11.545C2093.467,453.964,2085.436,440.051,2075.494,434.312Z" transform="translate(-1168.113 1792.618)"/><path class="e" d="M2061.529,441.631c-9.94-5.738-18.027-1.133-18.057,10.285s8,25.336,17.939,31.075,18.024,1.13,18.056-10.292S2071.47,447.369,2061.529,441.631Z" transform="translate(-1158.636 1787.908)"/><path class="ag" d="M2081.606,485.112l-1.531,4.458-10.447-6.032-2.609-10.61-.172-.691-2.859-1.651v1.732l1.777,1.025,2.61,10.61.169.692,12.614,7.282.169-.5,1.7-4.952Zm-2.563,6.7c-.875-.5-1.576-.094-1.576.911a3.468,3.468,0,0,0,1.576,2.725c.866.5,1.574.1,1.574-.908A3.491,3.491,0,0,0,2079.042,491.81Zm-8.235-4.753c-.87-.5-1.574-.095-1.574.911a3.469,3.469,0,0,0,1.574,2.725c.868.5,1.576.1,1.576-.907A3.49,3.49,0,0,0,2070.807,487.057Zm7.449-4.675-1.059-1.837-1.905,1.1v-7.454l-1.5-.867v7.454l-1.9-3.3-1.061.613,3.715,6.435Z" transform="translate(-1171.839 1767.686)"/><path class="as" d="M1241.737,291.2l-38.8,23.533V225.674l38.8-23.533Z" transform="translate(-617.695 1940.447)"/><path class="l" d="M1230.085,467.548c0-9.7,6.809-21.495,15.209-26.344s15.211-.918,15.211,8.781-6.811,21.495-15.209,26.345S1230.085,477.248,1230.085,467.548Z" transform="translate(-635.169 1787.931)"/><path class="d" d="M1241.345,428.647c-10.722,6.191-19.414,21.246-19.414,33.627s8.692,17.4,19.414,11.209,19.414-21.247,19.414-33.626S1252.067,422.457,1241.345,428.647Zm0,39.981c-8.4,4.85-15.208.918-15.208-8.782s6.806-21.495,15.208-26.344,15.21-.918,15.21,8.782S1249.746,463.779,1241.345,468.628Z" transform="translate(-629.922 1796.382)"/><path class="at" d="M1265.935,443.121c2.382,1.724,3.83,4.966,3.83,9.435,0,9.7-6.811,21.494-15.209,26.345-3.87,2.233-7.4,2.6-10.082,1.4,2.785,2.019,6.85,1.962,11.38-.654,8.4-4.85,15.21-16.645,15.21-26.344C1271.063,448.073,1269.078,444.523,1265.935,443.121Z" transform="translate(-644.429 1785.36)"/><path class="au" d="M1236.376,416.515c-3.535-2.228-8.512-2.018-14.029,1.168-10.722,6.19-19.414,21.246-19.414,33.628,0,6.28,2.239,10.661,5.843,12.65h0l6.185,3.552c-3.255-2.129-5.252-6.364-5.252-12.292,0-12.38,8.693-27.436,19.414-33.627,5.246-3.029,10-3.368,13.5-1.481l-6.24-3.6Z" transform="translate(-617.694 1803.436)"/><path class="d" d="M1266.452,469.585a1.757,1.757,0,0,1-2.889-1.656,6.39,6.39,0,0,1,2.889-4.994c1.595-.92,2.891-.177,2.891,1.657l2.623-1.516c0-2.975-1.793-4.435-4.2-3.722l0-2.38-2.625,1.514v2.38a12.349,12.349,0,0,0-4.2,8.576,3.832,3.832,0,0,0,1.614,3.55,3.885,3.885,0,0,0,3.9-.395c1.595-.92,2.891-.178,2.891,1.655a6.38,6.38,0,0,1-2.889,4.994c-1.594.92-2.891.177-2.891-1.656l-2.62,1.513c0,2.977,1.794,4.438,4.2,3.727l0,2.195,2.623-1.514v-2.2a12.343,12.343,0,0,0,4.2-8.576C1271.966,469.245,1269.493,467.829,1266.452,469.585Z" transform="translate(-655.027 1776.445)"/><path class="f" d="M1280.017,472.6a2.579,2.579,0,0,1,.3,1.3l1.3.749C1281.618,473.351,1280.965,472.6,1280.017,472.6Z" transform="translate(-667.304 1766.386)"/><path class="j" d="M1274.587,488.676c-1.009-.743-2.491-.732-4.143.222a2.6,2.6,0,0,1-1.282.381,1.482,1.482,0,0,0,.536.575,2.04,2.04,0,0,0,2.044-.206,3.944,3.944,0,0,1,3.8-.437l-.951-.537Z" transform="translate(-660.317 1756.383)"/><path class="j" d="M1273.023,499.714a2.589,2.589,0,0,1,.3,1.3,6.382,6.382,0,0,1-2.889,4.993,2.614,2.614,0,0,1-1.29.391c.474.823,1.452,1.013,2.587.359a6.38,6.38,0,0,0,2.889-4.994C1274.621,500.461,1273.97,499.714,1273.023,499.714Z" transform="translate(-660.307 1748.939)"/><path class="f" d="M1269.079,529.693v1.272l1.3.749v-2.195A3.981,3.981,0,0,1,1269.079,529.693Z" transform="translate(-660.265 1729.758)"/><path class="j" d="M1280.078,461.073v.919a3.359,3.359,0,0,1,2.386.078l-.957-.558h0A2.78,2.78,0,0,0,1280.078,461.073Z" transform="translate(-667.343 1773.807)"/><path class="j" d="M1271.7,454.872l-2.623,1.514,1.3.749,2.625-1.514Z" transform="translate(-660.265 1777.798)"/><path class="av" d="M1257.295,474.373a3.841,3.841,0,0,0,1.615,3.55l1.18.668a3.907,3.907,0,0,1-1.5-3.469,12.349,12.349,0,0,1,4.2-8.576l-1.3-.749A12.356,12.356,0,0,0,1257.295,474.373Z" transform="translate(-652.681 1770.767)"/><path class="f" d="M1269.079,459.12v2.38l1.3.749v-2.38Z" transform="translate(-660.265 1775.064)"/><path class="f" d="M1258.6,517.711l-1.3-.749a4,4,0,0,0,1.366,3.373h-.005l.024.014a2.613,2.613,0,0,0,.493.282l.773.443A4.016,4.016,0,0,1,1258.6,517.711Z" transform="translate(-652.684 1737.839)"/><path class="j" d="M1261.218,513.465l-1.3-.749-2.621,1.513,1.3.749Z" transform="translate(-652.684 1740.572)"/><path class="c" d="M1441.783,1497.72h-55.536l33.651,19.428-33.651,19.429h55.536l33.652-19.429Z" transform="translate(-735.669 1106.659)"/><path class="g" d="M1394.376,1422.494l33.651,19.428-8.128-14.729-33.652-19.427Z" transform="translate(-735.669 1164.55)"/><path class="g" d="M1302.687,1422.494l-33.649,19.428,8.129-14.729,33.651-19.427Z" transform="translate(-660.237 1164.55)"/><path class="k" d="M1291.843,1494.334l33.649,19.429,0-32.064-33.651-19.429Z" transform="translate(-674.914 1129.473)"/><path class="g" d="M1291.843,1481.907l33.649,19.429,0-19.636-33.651-19.429Z" transform="translate(-674.914 1129.473)"/><path class="aw" d="M1275.757,1482.821l33.649,19.43,5.734-20.552-33.649-19.429Z" transform="translate(-664.561 1129.473)"/><path class="ax" d="M1419.9,1494.334l-33.652,19.429V1481.7l33.652-19.429Z" transform="translate(-735.669 1129.473)"/><path class="aw" d="M1425.63,1482.821l-33.651,19.43-5.732-20.552,33.652-19.429Z" transform="translate(-735.669 1129.473)"/><path class="ay" d="M1386.247,1407.766v38.856l33.652-19.428Z" transform="translate(-735.669 1164.55)"/><path class="az" d="M1291.843,1427.193l33.649,19.429h0v-38.856Z" transform="translate(-674.914 1164.55)"/><path class="ay" d="M1375.582,1497.72l-5.836,3.4,5.882,3.4,5.885-3.4Z" transform="translate(-725.049 1106.659)"/><path class="k" d="M1397.771,1433.69l-11.524,17.251,23.047-28.773Z" transform="translate(-735.67 1155.281)"/><path class="k" d="M1321.589,1422.168l23.047,28.773-11.523-17.251Z" transform="translate(-694.058 1155.281)"/><path class="g" d="M1353.918,1454.495l11.523,17.251,11.524-17.251Z" transform="translate(-714.864 1134.477)"/><path class="ba" d="M1333.113,1412.885l-11.523-11.523,11.523-11.523h23.047l11.523,11.523-11.523,11.523Z" transform="translate(-694.058 1176.087)"/><path class="b" d="M1355.5,1397.142l-6.667-6.669,6.667-6.669h13.339l6.671,6.669-6.671,6.669Z" transform="translate(-711.588 1179.971)"/><path class="k" d="M1353.918,1433.084l4.852-11.859,13.339,0,4.856,11.857Z" transform="translate(-714.864 1155.888)"/><path class="bb" d="M1353.918,1392.66l4.852-8.852h13.339l4.856,8.852Z" transform="translate(-714.864 1179.968)"/><path class="e" d="M1331.3,1402.515l-9.709,7,11.523,11.522,4.853-11.858Z" transform="translate(-694.058 1167.929)"/><path class="e" d="M1321.589,1397.478l9.709-7.005,6.668-6.669-4.853,2.151Z" transform="translate(-694.058 1179.971)"/><path class="e" d="M1411.63,1402.515l9.708,7-11.523,11.522-4.854-11.858Z" transform="translate(-747.713 1167.929)"/><path class="k" d="M1421.338,1397.478l-9.708-7.005-6.669-6.669,4.854,2.151Z" transform="translate(-747.713 1179.971)"/><path class="bc" d="M1321.589,1409.52h16.239l.138-.336-6.668-6.669Z" transform="translate(-694.058 1167.929)"/><path class="bd" d="M1421.589,1422.168h-16.238l4.714,11.522Z" transform="translate(-747.965 1155.281)"/><path class="be" d="M2007.432,1408.272V1358.1h-71.421l-6.247,3.607h-8.142l-68.383,39.481-8.884,5.128c-4.757,2.748-16.326,4.974-25.846,4.974l-2.818,1.627h-3.026l-10.506,6.066,43.447,25.084h42.409l48.37-7.489h5.491l17.853-10.307h0l-7.418-4.283h31.36Z" transform="translate(-1003.336 1196.512)"/><path class="v" d="M1930.055,1536.483c-1.4-.81-2.267-2.543-2.267-5.012a17.1,17.1,0,0,1,7.739-13.4c2.137-1.233,4.071-1.351,5.471-.542s2.266,2.542,2.266,5.011a17.1,17.1,0,0,1-7.737,13.4C1933.391,1537.172,1931.456,1537.29,1930.055,1536.483Z" transform="translate(-1084.185 1094.242)"/><path class="b" d="M1937.544,1537.572a9.415,9.415,0,0,1,4.261-7.379c2.353-1.358,4.26-.257,4.26,2.46a9.418,9.418,0,0,1-4.26,7.378C1939.451,1541.389,1937.544,1540.289,1937.544,1537.572Z" transform="translate(-1090.463 1086.135)"/><path class="bf" d="M1917.1,1525.3a17.1,17.1,0,0,1,7.739-13.4c2.137-1.233,4.071-1.35,5.471-.542l-5.923-3.419c-1.4-.808-3.334-.691-5.471.542a17.1,17.1,0,0,0-7.737,13.4c0,2.467.866,4.2,2.267,5.009l5.921,3.421C1917.965,1529.5,1917.1,1527.767,1917.1,1525.3Z" transform="translate(-1073.494 1100.415)"/><path class="v" d="M2105.99,1434.908c-1.4-.809-2.267-2.542-2.267-5.009a17.1,17.1,0,0,1,7.738-13.4c2.137-1.234,4.069-1.351,5.471-.544s2.265,2.543,2.265,5.011a17.1,17.1,0,0,1-7.736,13.4C2109.323,1435.6,2107.391,1435.716,2105.99,1434.908Z" transform="translate(-1197.41 1159.61)"/><path class="b" d="M2113.477,1436a9.42,9.42,0,0,1,4.26-7.38c2.354-1.358,4.26-.258,4.26,2.459a9.414,9.414,0,0,1-4.26,7.38C2115.385,1439.814,2113.477,1438.714,2113.477,1436Z" transform="translate(-1203.688 1151.505)"/><path class="bg" d="M2093.031,1423.726a17.1,17.1,0,0,1,7.737-13.4c2.137-1.235,4.07-1.351,5.471-.543l-5.921-3.418c-1.4-.809-3.335-.692-5.472.542a17.1,17.1,0,0,0-7.737,13.4c0,2.468.866,4.2,2.267,5.009l5.921,3.419C2093.9,1427.926,2093.031,1426.194,2093.031,1423.726Z" transform="translate(-1186.72 1165.783)"/><path class="v" d="M2058.715,1462.2c-1.4-.809-2.267-2.542-2.267-5.009a17.1,17.1,0,0,1,7.738-13.4c2.136-1.234,4.07-1.351,5.471-.544s2.265,2.543,2.265,5.011a17.1,17.1,0,0,1-7.736,13.4C2062.048,1462.89,2060.116,1463.007,2058.715,1462.2Z" transform="translate(-1166.986 1142.048)"/><path class="b" d="M2066.2,1463.29a9.419,9.419,0,0,1,4.262-7.38c2.353-1.357,4.26-.257,4.26,2.462a9.416,9.416,0,0,1-4.26,7.377C2068.109,1467.108,2066.2,1466.008,2066.2,1463.29Z" transform="translate(-1173.263 1133.94)"/><path class="bg" d="M2045.757,1451.017a17.1,17.1,0,0,1,7.738-13.4c2.136-1.234,4.069-1.351,5.471-.544l-5.922-3.418c-1.4-.808-3.334-.69-5.47.542a17.1,17.1,0,0,0-7.737,13.4c0,2.466.867,4.2,2.268,5.008l5.92,3.419C2046.624,1455.217,2045.757,1453.484,2045.757,1451.017Z" transform="translate(-1156.295 1148.22)"/><path class="v" d="M1974.148,1333.571l-68.383,39.481-40.041-23.117,68.383-39.481Z" transform="translate(-1044.243 1227.176)"/><path class="t" d="M2046.441,1381.978l-68.383,39.48,0-6.668,68.385-39.481Z" transform="translate(-1116.536 1185.437)"/><path class="v" d="M1905.766,1451.005l-40.04-23.117v-6.668l40.041,23.117Z" transform="translate(-1044.243 1155.891)"/><path class="l" d="M1987.638,1209.736l-67.208,38.8-43.449-25.085,67.209-38.8Z" transform="translate(-1051.486 1308.14)"/><path class="b" d="M2002.2,1218.146l-67.211,38.8-7.284-4.2,67.21-38.8Z" transform="translate(-1084.135 1289.289)"/><path class="f" d="M2066.089,1296.261l-67.209,38.8v-41.235l67.209-38.8Z" transform="translate(-1129.937 1262.847)"/><path class="i" d="M1920.431,1359.832l-43.449-25.085v-41.235l43.449,25.085Z" transform="translate(-1051.488 1238.08)"/><path class="x" d="M2166.829,1349.711l-1.792,3.1v-6.81l-1.108.639v6.811l-1.794-1.037-.782,1.358,3.132,1.807,3.129-5.421Z" transform="translate(-1234.498 1204.296)"/><path class="x" d="M2144.495,1362.611l-1.792,3.1v-6.808l-1.108.639v6.809l-1.793-1.037-.783,1.358,3.131,1.809,3.13-5.422Z" transform="translate(-1220.125 1195.994)"/><path class="k" d="M2023.231,1349.147l-13.727,7.925v-1.962l13.727-7.925Z" transform="translate(-1136.774 1203.537)"/><path class="k" d="M2018.292,1369.122l-8.788,5.075v-1.962l8.788-5.074Z" transform="translate(-1136.774 1190.682)"/><path class="k" d="M1934.994,1327.008v9.082l-7.284-4.206v-9.08Z" transform="translate(-1084.135 1219.229)"/><path class="bh" d="M1918.825,1437v-36.4l-17.852,10.307v3.171L1888,1442.005v22.737l13.325-7.693c0-5.5,3.855-12.175,8.614-14.923Z" transform="translate(-1058.581 1169.161)"/><path class="x" d="M1919.7,1434.472l-25.985,15,12.969-27.927,13.016-7.513Z" transform="translate(-1062.256 1160.516)"/><path class="v" d="M1941.233,1481.1l-14.056,8.116,0-9.73,14.058-8.115Z" transform="translate(-1083.791 1123.613)"/><path class="v" d="M1928.753,1434.248l-.535.308-1.043,2.243v18.8l1.578-.909Z" transform="translate(-1083.791 1147.507)"/><path class="bh" d="M1856.706,1371.83l-37.488-21.64,17.853-10.309,37.487,21.643Z" transform="translate(-1014.313 1208.238)"/><path class="v" d="M1819.219,1371.973l37.487,21.641v-3.17l-37.488-21.64Z" transform="translate(-1014.313 1189.624)"/><path class="y" d="M1821.678,1428.044q-17.055-9.851-34.116-19.7,6.482-13.961,12.969-27.927,17.055,9.853,34.115,19.7Q1828.167,1414.084,1821.678,1428.044Z" transform="translate(-993.94 1182.148)"/><path class="t" d="M1883.276,1463.612l1.685.973q6.487-13.963,12.97-27.927c-.675-.391-1.013-.584-1.687-.972Q1889.764,1449.652,1883.276,1463.612Z" transform="translate(-1055.538 1146.581)"/><path class="t" d="M1782.834,1405.621c.673.389,1.013.583,1.686.973q6.482-13.961,12.969-27.927l-1.686-.971Q1789.322,1391.659,1782.834,1405.621Z" transform="translate(-990.897 1183.902)"/><path class="t" d="M1820.32,1477.685v22.737l-37.486-21.643v-22.737Z" transform="translate(-990.898 1133.48)"/><path class="v" d="M1828.315,1499v6.775l-17.641-10.186v-6.775c0-1.449,1.015-2.037,2.271-1.313l13.1,7.565A5.017,5.017,0,0,1,1828.315,1499Z" transform="translate(-1008.814 1113.435)"/><path class="b" d="M1871.481,1526.89l-6.532-3.771v-2.951l6.532,3.771Z" transform="translate(-1043.744 1092.211)"/><path class="v" d="M1877.38,1542.462l-3.266-1.886V1539.1l3.266,1.885Z" transform="translate(-1049.642 1080.027)"/><path class="v" d="M1787.563,1490.608l3.265,1.884v-1.474l-3.265-1.887Z" transform="translate(-993.941 1112.186)"/><path class="b" d="M1787.563,1478.438l6.532,3.772v-2.952l-6.532-3.772Z" transform="translate(-993.941 1120.967)"/><path class="bi" d="M1888,1549.355l10.508-6.066v8.963L1888,1558.318Z" transform="translate(-1058.579 1077.332)"/><path class="ag" d="M1774.333,1494.682l40.515,23.391v8.963l-40.515-23.391Z" transform="translate(-985.427 1108.613)"/><path class="bj" d="M1777.363,1489.77l-3.03,1.751,40.515,23.391,10.508-6.066-1.514-.874-8.993,5.192-37.486-21.642Z" transform="translate(-985.427 1111.775)"/><path class="bk" d="M1829.228,1396.99l-35.926,14.671,3.78,2.182,35.925-14.672Zm-28.673,18.858,2.479,1.432,29.177-11.916,1.4-3.015Zm-.022-35.429q-6.485,13.965-12.969,27.927l35.926-14.671Q1812.01,1387.048,1800.532,1380.42Z" transform="translate(-993.941 1182.148)"/><path class="bl" d="M1059.257,1274.089h-35.739l-4.373,7.372h40.112Z" transform="translate(-499.415 1250.579)"/><path class="bl" d="M1088.694,1246.843h-35.739l-4.373,4.69h40.112Z" transform="translate(-518.359 1268.114)"/><path class="j" d="M996.554,1146.823l-14.362,8.291-.913-22.605,14.362-8.292Z" transform="translate(-475.046 1347.032)"/><path class="l" d="M978.107,1168.629l-3.175-1.834.866-21.578.721.417.675.39Z" transform="translate(-470.961 1333.517)"/><path class="bm" d="M977.361,1130.247l1.4.807,12.964-7.485v-1.612Z" transform="translate(-472.524 1348.487)"/><path class="bn" d="M992.025,1126.167a.223.223,0,0,1-.223-.223v-4.382a7.741,7.741,0,0,1,3.5-6.058,2.281,2.281,0,0,1,3.72,2.148v4.382a.223.223,0,0,1-.446,0v-4.382a1.847,1.847,0,0,0-3.052-1.761,7.246,7.246,0,0,0-3.275,5.672v4.382A.223.223,0,0,1,992.025,1126.167Z" transform="translate(-481.817 1352.957)"/><path class="bo" d="M1017.651,1121.956v1.612l1.4-.807Z" transform="translate(-498.454 1348.487)"/><path class="bp" d="M1003.663,1032.771c.055-4.035-5.555-2.364-4.908,3.764.8,7.593,1.177,11.206.685,13.877-.693,2.135-2.029,5.476-2.966,8.956-.215.726-1.1,1.366-1.426,2.518a6.119,6.119,0,0,0,.142,2.638c.348,1.644,1.349.662,1.349.662a.749.749,0,0,0,.956.148.941.941,0,0,0,1.189,0c.458-.4.711.76,1.362-.334s.53-3.026-.109-4.883c0-.041,0-.083,0-.124.906-2.128,3.359-6.989,3.254-7.026C1005.256,1048.155,1003.221,1037.922,1003.663,1032.771Z" transform="translate(-483.846 1407.298)"/><path class="v" d="M1047.7,1227.157c1.352-.921,3.484.646,4.023,2.387a6.243,6.243,0,0,1-.532,2.007,49.353,49.353,0,0,1-3.028,5.887c-.768.86-3.886,2.087-5.388.806-1.078-1.4,1.062-2.233,1.452-3.617.509-1.8.29-3.241.791-4.6C1045.431,1228.916,1047.7,1227.157,1047.7,1227.157Z" transform="translate(-514.43 1280.959)"/><path class="bf" d="M1051.646,1233.381a.15.15,0,0,1,.007.019,6.268,6.268,0,0,1-.532,2.007,49.376,49.376,0,0,1-3.028,5.887c-.768.86-3.886,2.088-5.388.806a1.822,1.822,0,0,1-.15-.231,1.384,1.384,0,0,0,.272.557c1.5,1.281,4.62.054,5.388-.806a49.376,49.376,0,0,0,3.028-5.887,6.246,6.246,0,0,0,.532-2.007A3.072,3.072,0,0,0,1051.646,1233.381Z" transform="translate(-514.48 1276.778)"/><path class="bp" d="M1046.719,1228.243a28.484,28.484,0,0,1,3.387-1.441,1.565,1.565,0,0,0,.616.459c.04.01.078.024.12.036a1.272,1.272,0,0,1,1.14,2c-1.462,2.633-4.843,2.538-4.47,1.29C1047.762,1229.746,1047.069,1228.754,1046.719,1228.243Z" transform="translate(-517.161 1281.012)"/><path class="x" d="M1048.647,1236.64c-.1-.417-.227-1.317.841-1.466,1.114-.157,2.374.358,2.27,1.012C1051.543,1237.547,1048.751,1237.057,1048.647,1236.64Z" transform="translate(-518.359 1275.643)"/><path class="t" d="M1016.494,1161.29c-1.263-1.7-9.49-13.128-13.908-14.683,1.486-6.227,5.641-14.62,4.417-21.29h-9.4s-5.575,19.752-2.007,24.46c2.7,3.566,13.727,11.972,18.182,14.845C1016.046,1165.546,1017.257,1162.614,1016.494,1161.29Z" transform="translate(-483.49 1346.323)"/><path class="b" d="M1047.412,1242.693a3.471,3.471,0,0,1,2.155.135.467.467,0,0,0,.379-.854,4.4,4.4,0,0,0-2.817-.173.467.467,0,1,0,.283.891Z" transform="translate(-517.215 1271.457)"/><path class="b" d="M1046.026,1247.279a3.462,3.462,0,0,1,2.152.135.468.468,0,0,0,.381-.854,4.383,4.383,0,0,0-2.817-.172.468.468,0,1,0,.284.891Z" transform="translate(-516.323 1268.506)"/><path class="v" d="M1018.837,1272.818c1.614.264,2.082,2.867,1.274,4.5a6.278,6.278,0,0,1-1.768,1.089,49.279,49.279,0,0,1-6.249,2.184c-1.149.095-3.7-.335-3.906-2.3.2-1.2,1.2-1.525,2.439-2.259,1.609-.956,2.988-2.342,4.286-2.979C1015.98,1272.532,1018.837,1272.818,1018.837,1272.818Z" transform="translate(-492.363 1251.448)"/><path class="bf" d="M1012.128,1287.31c1.182-.094,6.433-2.246,6.433-2.246a6.789,6.789,0,0,0,1.764-1.072,3.676,3.676,0,0,1-.215.569,6.28,6.28,0,0,1-1.768,1.089,49.3,49.3,0,0,1-6.249,2.184c-1.149.095-3.7-.335-3.906-2.3.008-.039.023-.076.03-.116C1008.759,1287.033,1011.048,1287.4,1012.128,1287.31Z" transform="translate(-492.363 1244.206)"/><path class="bp" d="M1025.927,1268.106a28.328,28.328,0,0,1,3.449,1.286,1.557,1.557,0,0,0,.131.757c.022.036.039.071.062.109.483.468.994,1.3-.487,1.764-2.872.9-5.321-1.025-4.192-1.674C1025.649,1269.914,1025.828,1268.717,1025.927,1268.106Z" transform="translate(-502.932 1254.43)"/><path class="x" d="M1024.031,1274.3c.213-.284.711-1.043,1.588-.417a2.1,2.1,0,0,1,1.017,2.094c-.108.653-2,.17-2.069.07S1024.031,1274.3,1024.031,1274.3Z" transform="translate(-502.56 1250.869)"/><path class="b" d="M1021.029,1275.979a3.843,3.843,0,0,1,1.714,1.667.517.517,0,0,0,.934-.444,4.864,4.864,0,0,0-2.243-2.176.517.517,0,0,0-.4.952Z" transform="translate(-500.426 1250.002)"/><path class="b" d="M1016.557,1278.833a3.838,3.838,0,0,1,1.711,1.665.517.517,0,0,0,.936-.443,4.853,4.853,0,0,0-2.242-2.176.518.518,0,1,0-.4.953Z" transform="translate(-497.547 1248.166)"/><path class="bq" d="M1026.361,1124.164c0,8.832-.094,18.708-.094,26.42,0,8.82,0,18.069.094,25.461-.082,2.268,3.425,2.554,4.513.553.936-6.712,2.683-14.9,2.167-22.226,2.232-9.651,5.963-22.056,5.052-29.628C1035.957,1125.424,1028.5,1123.486,1026.361,1124.164Z" transform="translate(-503.999 1347.16)"/><path class="br" d="M1018.451,1046.634c-.394-6.853,4.41-20.566,3.461-21.328-3.192-2.56-5.206-3.039-10.33-2.911s-7.526,1.178-8.57,4.707c-.983,3.324-1.68,4.335-2.489,7.592-.363,1.462.788,5.908,1.086,10.572.361,5.644.454,10.644-.643,15.161.8.33,1.227.558,2.838,1.107a47.548,47.548,0,0,1,17.2,10.189c.475-3.2,1.532-7.8,1.029-12.391C1021.476,1054.225,1018.648,1050.075,1018.451,1046.634Z" transform="translate(-487.385 1412.573)"/><path class="j" d="M1058.4,1165.167l-14.362,8.291-.913-22.605,14.362-8.292Z" transform="translate(-514.848 1335.226)"/><path class="l" d="M1039.953,1186.974l-3.175-1.834.866-21.578.721.417.675.39Z" transform="translate(-510.763 1321.711)"/><path class="bm" d="M1039.207,1148.592l1.4.807,12.965-7.485V1140.3Z" transform="translate(-512.326 1336.681)"/><path class="bs" d="M1078.366,1202.1l-2.783,1.606-.031-.784,2.782-1.606Z" transform="translate(-535.717 1297.414)"/><path class="bs" d="M1080.843,1197.7l-1.312.757-.031-.784,1.312-.758Z" transform="translate(-538.257 1300.248)"/><path class="bn" d="M1053.871,1144.51a.223.223,0,0,1-.223-.223v-4.382a7.744,7.744,0,0,1,3.5-6.058,2.281,2.281,0,0,1,3.72,2.149v4.382a.223.223,0,1,1-.446,0V1136a1.848,1.848,0,0,0-3.052-1.762,7.248,7.248,0,0,0-3.275,5.672v4.382A.223.223,0,0,1,1053.871,1144.51Z" transform="translate(-521.619 1341.153)"/><path class="bo" d="M1079.5,1140.3v1.613l1.4-.807Z" transform="translate(-538.257 1336.681)"/><path class="bp" d="M1055.307,1048.528c-.153-1.983-2.586-16.9-4.547-20.323a7.6,7.6,0,0,0-3.541-2.67c-1.863.127-3.773,2.666-3.15,5.892a6.041,6.041,0,0,0,2.632,4.279c1.7,3.6,3.192,11.137,3.966,13.742.2,1.785-.506,9.494-.7,11.771-.085,1.2-1.933,2.78-1.356,5.506.349,1.644,1.35.662,1.35.662a.75.75,0,0,0,.957.148.939.939,0,0,0,1.189,0c.458-.4.711.76,1.362-.334s.53-3.026-.109-4.882C1053.141,1057.291,1055.579,1052.047,1055.307,1048.528Z" transform="translate(-515.377 1410.54)"/><path class="bp" d="M1026.3,1002.421c-.092-1.576-5.484,1.561-5.365,3.641.1,1.693.319,3.4-.316,3.616-1.559,1.126,1.352,2.991,9.5.028C1028.451,1009.365,1026.594,1007.529,1026.3,1002.421Z" transform="translate(-500.104 1425.69)"/><path class="bp" d="M1019.424,989.737l-1.622-4.063h-10.29v6.193c0,3.42,2.3,6.192,5.145,6.192,2.755,0,4.985-2.613,5.12-5.891l.717.02Z" transform="translate(-491.929 1436.193)"/><path class="bt" d="M1025.986,1012.8a4.977,4.977,0,0,1-4.018,2.7,1.437,1.437,0,0,1-.319,1.053,4.438,4.438,0,0,0,.874-.106A4.939,4.939,0,0,0,1025.986,1012.8Z" transform="translate(-501.026 1418.738)"/><path class="bu" d="M1013.2,973.557a.569.569,0,0,0-.1,0c-5.613.141-6.034,4.337-5.725,5.03,1.78.637,2.9-.569,4.021-.477.539.045,2.732.341,3.637,1.5.975,1.249.664,3.243,1.583,3.2.4-.018.52-1.355,1.116-1.39a1,1,0,0,1,.943,1.2c-.077,1.03-1.052,1.656-.909,2.155.24.82,2.292-.653,2.253-3.58C1019.98,978.286,1018.041,973.36,1013.2,973.557Z" transform="translate(-491.793 1443.995)"/><path class="bu" d="M1021.98,973.831c6.278,1.444,5.76,6.177,8.07,7.725,1.379.924,4.455-.82,6.257,2.3,2.072,3.586-1.281,4.887.915,6.405s3.882,6.153.224,9-8.241.346-7.724-3.821c.372-3-.517-4.547-3.036-3.577-1.887.726-2.609-.764-1.76-2.684-4.2.42.2-7.582-6.131-10.889C1019.033,976.657,1021.98,973.831,1021.98,973.831Z" transform="translate(-499.189 1443.815)"/><rect class="bl" width="38.442" height="7.065" transform="translate(696.032 2547.82)"/><rect class="bl" width="38.442" height="7.065" transform="translate(678.343 2537.625)"/><path class="v" d="M1452.737,1310.422c0-5.55,3.517-5.71,3.517-5.71a14.525,14.525,0,0,0,5-1.285c3.052-1.268,7.356-.778,4.951,3.657a1.25,1.25,0,0,1-.083.165,2.166,2.166,0,0,1-.781.684l-7.685,4.509C1456.485,1313.111,1452.764,1311.565,1452.737,1310.422Z" transform="translate(-778.46 1232.089)"/><path class="bf" d="M1452.771,1316.787c.067,1.14,3.738,2.656,4.9,1.993l7.685-4.508a7.127,7.127,0,0,0,1.084-.79c-.071.153-.132.3-.221.464a1.236,1.236,0,0,1-.083.165,2.168,2.168,0,0,1-.781.684l-7.685,4.509c-1.1.626-4.431-.69-4.871-1.8a1.206,1.206,0,0,1-.035-.225A3.715,3.715,0,0,1,1452.771,1316.787Z" transform="translate(-778.474 1225.228)"/><path class="b" d="M1456.354,1306.079a32.248,32.248,0,0,1,4.094.81,1.788,1.788,0,0,0,.284.826c.031.036.059.071.089.109.629.437,1.269,1.129-.223,2.066a2.071,2.071,0,0,1-2.687-.191,2.447,2.447,0,0,0-.867-.985,2.238,2.238,0,0,0-.831-.351.43.43,0,0,0-.008-.076S1455.974,1306.079,1456.354,1306.079Z" transform="translate(-780.646 1229.992)"/><path class="t" d="M1455.488,1153.818l15.635.28c-1.293,10.446-3.9,19.935-5.635,30.051-1.864,9.832-3.966,16.741-5.8,24.924-.672,1.524-3.745.947-4.368-.519-.486-7.535-1.045-16.716,1.189-25.41C1456.133,1173.772,1455.269,1163.281,1455.488,1153.818Z" transform="translate(-779.838 1327.982)"/><path class="v" d="M1501.89,1339.034c0-5.55,3.518-5.71,3.518-5.71a14.528,14.528,0,0,0,5-1.285c3.052-1.268,7.356-.779,4.95,3.658a1.28,1.28,0,0,1-.083.164,2.153,2.153,0,0,1-.78.684l-7.686,4.509C1505.639,1341.723,1501.918,1340.176,1501.89,1339.034Z" transform="translate(-810.093 1213.676)"/><path class="bf" d="M1501.926,1345.4c.066,1.14,3.738,2.656,4.9,1.993l7.686-4.508a7.1,7.1,0,0,0,1.084-.79c-.072.154-.133.3-.222.466a1.337,1.337,0,0,1-.083.164,2.156,2.156,0,0,1-.78.684l-7.686,4.509c-1.1.628-4.431-.69-4.871-1.8a1.157,1.157,0,0,1-.034-.225A3.8,3.8,0,0,1,1501.926,1345.4Z" transform="translate(-810.107 1206.815)"/><path class="b" d="M1505.508,1334.69a32.248,32.248,0,0,1,4.094.811,1.794,1.794,0,0,0,.284.826c.032.035.059.072.089.108.63.438,1.27,1.13-.222,2.066a2.069,2.069,0,0,1-2.688-.191,2.459,2.459,0,0,0-.867-.984,2.23,2.23,0,0,0-.831-.351.408.408,0,0,0-.009-.075S1505.129,1334.69,1505.508,1334.69Z" transform="translate(-812.28 1211.579)"/><path class="bq" d="M1467.262,1182.47c-.951-4.491-11.909-5.049-11.19-22.706,3.439-.506,20.784,7.629,24.221,7.123.43,10.517-.587,20.3-.651,30.568-.234,10.005-1.18,17.164-1.654,25.537-.413,1.613-3.539,1.546-4.394.2-1.71-7.356-3.761-16.323-2.977-25.265C1469.593,1192.977,1468.375,1187.727,1467.262,1182.47Z" transform="translate(-780.584 1324.169)"/><path class="bv" d="M1458.562,1063.609c-12.237,8.177-13.695,24.414-7.079,34.719C1451.483,1098.328,1450.061,1075.5,1458.562,1063.609Z" transform="translate(-775.145 1386.037)"/><path class="bw" d="M1463.181,1104.712c7.448,4.181,15.241,4.189,17.9-.949-.994-9.568-1.925-17.353-.007-26.522-.567-5.065-.965-5.825-.316-8.78-.23-.99-3.276-3.1-5.5-5.13-2.4-2.19-4.018-4.271-5.253-4.522-10.185-2.08-15.132,16.068-14.281,35.416A14.086,14.086,0,0,0,1463.181,1104.712Z" transform="translate(-780.323 1389.232)"/><path class="bp" d="M1479.532,1031.041c2.208-1.6,1.881-2.64,1.551-4.814a10.787,10.787,0,0,1-.667-3.75c0-4.839,3.082-9.021,6.859-8.76,7.611.522,6.257,4.527,6.257,9.366,0,4.482-2.033,7.567-5.434,8.088,0,.736.195,1.157,1.121,2.084-2.485,1.49-6.115.788-7.548.141C1480.143,1032.7,1478.495,1032.113,1479.532,1031.041Z" transform="translate(-795.495 1418.153)"/><path class="bx" d="M1489.875,1005.723c-.222-.59-1.4-.906-5.214.868-.023.011-.926.435-.983.464-7.039,3.627-4.722,11.87-3.489,14.019a4.514,4.514,0,0,1,.748,2.593c2.842-.311,3.852,1.231,5.571-.488a37.978,37.978,0,0,0,3.391-3.291,2.243,2.243,0,0,0,.174-1.4c-.263-4.007,1.753-1.687,1.755-.761.731-.419.574-2.028.4-3.816h0C1498.074,1008.9,1494.557,1005.956,1489.875,1005.723Z" transform="translate(-795.243 1423.589)"/><path class="bp" d="M1512.14,1180.3a2.516,2.516,0,0,1-3.688.123c-1.205-1.27-.509-2.676-1.172-3.1-1.8-1.158-2.22-2.249-1.916-3.342,1.442.917,2.929,2.388,4.19,1.494s2.9-2.123,2.989-3.4c1.878.431,1.971,4.5,1,6.125A17.215,17.215,0,0,1,1512.14,1180.3Z" transform="translate(-812.27 1316.229)"/><path class="by" d="M1509.109,1119.817c-.931,2.272-.278,3.667,2,3.924,5.688-2.912,8.992-11.075,9.09-15.558.162-7.481-3.469-16.87-8.083-24.235-1.071-1.582-4.528-.984-6.232,1.264-2.3,3.039-1.317,7.461-.014,9.256,3.342,5.341,7.067,9.316,7.429,13.594C1513.633,1112.026,1512.02,1117.244,1509.109,1119.817Z" transform="translate(-811.773 1373.518)"/></g></svg>