<svg xmlns="http://www.w3.org/2000/svg" width="230.041" height="52.984" viewBox="0 0 230.041 52.984"><defs><style>.a{fill:#373435;}.b{fill:#fefefe;fill-rule:evenodd;}</style></defs><g transform="translate(9643 307)"><g transform="translate(-9580.015 -292.79)"><path class="a" d="M478.505,403.35a2.748,2.748,0,0,0,1.859.584c1.282,0,1.852-.623,1.852-1.416,0-.724-.475-1.136-1.678-1.455-.863-.233-1.139-.389-1.139-.708,0-.374.364-.584.958-.584a2.281,2.281,0,0,1,1.321.382l.427-.63a2.71,2.71,0,0,0-1.748-.467c-1.164,0-1.812.514-1.812,1.331,0,.731.53,1.082,1.645,1.393.91.256,1.155.436,1.155.794,0,.374-.293.646-1,.646a2.458,2.458,0,0,1-1.416-.451Zm-1.851-2.163h-2.39v-1.346h2.817v-.684h-3.6v4.668h3.6v-.684h-2.817v-1.3h2.39Zm-7.239,2.747a1.94,1.94,0,0,0,2.057-2.086v-2.692h-.784v2.692a1.283,1.283,0,1,1-2.564,0v-2.692h-.783v2.692A1.96,1.96,0,0,0,469.415,403.934Zm-6.511-1.782.664,1a2.2,2.2,0,0,1-.4.039,1.7,1.7,0,1,1,1.685-1.688,1.666,1.666,0,0,1-.6,1.331l-.538-.778H462.9Zm.261,1.782a2.959,2.959,0,0,0,.855-.125l.293.436h.847v-.1l-.467-.67a2.4,2.4,0,0,0,.966-1.976,2.489,2.489,0,1,0-2.493,2.436Zm-5.015-1.526.047.078h-1.844l.048-.078.854-1.828h.048Zm-3.34,1.416h.887l.348-.709h2.461l.356.709h.894l-2.406-4.668h-.15Zm-4.391-3.984h1.6v3.984h.784v-3.984h1.6v-.684h-3.981Zm-3.536,2.568.048.078h-1.844l.048-.078.855-1.828h.048Zm-3.339,1.416h.887l.348-.709h2.46l.356.709h.893l-2.4-4.668h-.151Zm-4.683-.475a2.751,2.751,0,0,0,1.86.584c1.282,0,1.851-.623,1.851-1.416,0-.724-.474-1.136-1.677-1.455-.863-.233-1.14-.389-1.14-.708,0-.374.364-.584.958-.584a2.28,2.28,0,0,1,1.321.382l.427-.63a2.714,2.714,0,0,0-1.749-.467c-1.163,0-1.812.514-1.812,1.331,0,.731.53,1.082,1.646,1.393.91.256,1.155.436,1.155.794,0,.374-.293.646-1,.646a2.458,2.458,0,0,1-1.416-.451Zm-5.118,0a2.751,2.751,0,0,0,1.86.584c1.282,0,1.851-.623,1.851-1.416,0-.724-.475-1.136-1.678-1.455-.862-.233-1.139-.389-1.139-.708,0-.374.364-.584.958-.584a2.28,2.28,0,0,1,1.321.382l.427-.63a2.714,2.714,0,0,0-1.749-.467c-1.163,0-1.812.514-1.812,1.331,0,.731.53,1.082,1.646,1.393.909.256,1.155.436,1.155.794,0,.374-.293.646-1,.646a2.456,2.456,0,0,1-1.416-.451Zm-1.85-2.163H429.5v-1.346h2.817v-.684h-3.6v4.668h3.6v-.684H429.5v-1.3h2.39Zm-5.245-2.031h-.784v3.081l-3.284-3.081h-.206v4.668h.784V400.7l3.284,3.128h.206Zm-7.287,3.252.048.078h-1.844l.048-.078.855-1.828h.048Zm-3.339,1.416h.886l.348-.709h2.461l.356.709h.894l-2.406-4.668h-.151Zm-2.752-1.393-.435-1.011-1.124-2.264h-.878l2.381,4.668h.159l2.389-4.668h-.878l-1.108,2.264-.459,1.011Zm-7.643-1.447-.134.273H405.4l-.127-.273-1.124-1.828h-.91l1.8,2.886v1.782h.784v-1.782l1.812-2.886h-.9Zm-4.406-.482c0,.388-.34.654-.91.654h-1.4v-1.315h1.4C400.879,399.841,401.219,400.059,401.219,400.5Zm-.728,1.268c.5,0,.87.272.87.677,0,.443-.4.692-.934.692h-1.519v-1.37Zm1.693.723a1.047,1.047,0,0,0-.807-1.027v-.07a1,1,0,0,0,.657-.973c0-.816-.617-1.268-1.709-1.268h-2.2v4.668H400.4C401.48,403.825,402.184,403.374,402.184,402.495Z" transform="translate(-358.066 -368.111)"/><path class="a" d="M501.977,366.683h-9.31v-6.309h10.572v-1.485h-12.17v16.824h12.17v-1.486H492.667V368.17h9.31Zm-15.9-7.795h-1.6v7.795h-10.6v-7.795h-1.6v16.824h1.6V368.17h10.6v7.543h1.6Zm-18.031,13.8a6.952,6.952,0,0,1-4.851,1.907,7.278,7.278,0,0,1,0-14.553,6.951,6.951,0,0,1,4.851,1.907l.926-1.234a7.894,7.894,0,0,0-5.8-2.187,8.791,8.791,0,0,0,0,17.582,7.85,7.85,0,0,0,5.8-2.215ZM449.962,364.5c0,2.776-2.047,4.01-4.768,4.01H439.81v-8.132h5.1C447.942,360.374,449.962,361.665,449.962,364.5Zm-11.75,11.217h1.6v-5.721h5.72l4.739,5.721h1.71v-.392l-4.543-5.524v-.112a5.1,5.1,0,0,0,4.15-5.244c0-3.645-2.468-5.552-6.674-5.552h-6.7Zm-6.953-5.019.168.309h-8.44l.168-.309,3.926-8.553h.224Zm-12.422,5.019h1.795l1.6-3.2h9.955l1.6,3.2H435.6l-8.216-16.824H427Zm-4.234,0h1.57V358.889h-.421L408.1,367.3l-7.627-8.412h-.5v16.824h1.6V362.534l6.253,6.87h.5l6.281-6.954Zm-51.555-1.122c-4.4,0-7.038-3.308-7.038-7.262,0-3.982,2.636-7.291,7.038-7.291,4.375,0,7.039,3.309,7.039,7.291C370.086,371.283,367.422,374.591,363.047,374.591Zm-15.255-11.1c0,1.935-1.627,2.945-4.178,3h-5.833v-6.114h5.637C346,360.374,347.792,361.216,347.792,363.487ZM344.146,368c2.355.084,4.235,1.037,4.235,3.028,0,2.272-2.019,3.2-4.514,3.2h-6.086V368Zm5.861,3.112c0-2.075-1.374-3.309-3.281-3.813v-.14a3.789,3.789,0,0,0,2.72-3.73c0-3.085-2.383-4.543-6.029-4.543h-7.235v16.824h7.655C347.4,375.713,350.007,374.339,350.007,371.114ZM389.7,358.889h-1.5v13.375l-11.6-13.375h-.472v16.824h1.5v-13.4l11.6,13.4h.473ZM362.943,368.8a1.481,1.481,0,1,0-1.459-1.479A1.407,1.407,0,0,0,362.943,368.8Zm128.126-14.857h12.17v1.487h-12.17ZM363.047,376.105c5.272,0,8.637-3.841,8.637-8.776,0-4.991-3.365-8.805-8.637-8.805s-8.665,3.814-8.665,8.805C354.383,372.264,357.776,376.105,363.047,376.105Z" transform="translate(-336.183 -353.939)"/></g><path class="a" d="M236.344,369.773c.085.128.2.312.339.544l.534.812.157.242.177.249.382.537c.067.093.133.19.206.285l.225.289.473.607c.166.206.348.41.527.624s.365.432.568.642l.61.651c.214.214.436.426.658.644.113.107.221.221.34.324l.354.315c.24.208.472.43.727.627l.757.609.788.577c.26.2.537.367.807.549l.406.268c.135.089.277.167.414.25.277.163.549.331.827.484l.831.439a25.631,25.631,0,0,0,7.349,2.421c.55.061,1.439.175,2.5.231.265.024.541.022.824.029s.575.016.871.013c.592-.021,1.2-.019,1.813-.08l.456-.036c.151-.012.3-.022.452-.044l.886-.114c.145-.017.289-.036.429-.064l.417-.074c.273-.051.54-.091.791-.147l.718-.164c.226-.053.439-.1.631-.155l.943-.262c.508-.143.949-.283,1.339-.409.384-.142.716-.27,1.01-.387.148-.056.282-.121.409-.18l.36-.171c.225-.111.43-.206.615-.311.371-.213.7-.4,1.075-.624.186-.117.385-.24.61-.376l.359-.214c.125-.077.256-.164.4-.254a24.518,24.518,0,0,0,3.558-2.705,27.153,27.153,0,0,0,2.726-2.916l.517-.675c.08-.109.164-.211.236-.317l.213-.308.386-.561c.121-.172.216-.342.312-.49l.432-.7.148-.268c.31-.576.838-1.517,1.346-2.7a27.213,27.213,0,0,0,1.411-4,29.31,29.31,0,0,0,.766-4.077c.025-.3.05-.592.073-.863s.046-.523.049-.755c.013-.462.024-.837.032-1.1a27.506,27.506,0,0,0-.464-5.035,27.942,27.942,0,0,0-1.058-4c-.1-.285-.207-.552-.3-.81s-.189-.506-.294-.734l-.287-.651-.132-.3-.137-.271c-.176-.35-.328-.648-.455-.889s-.244-.418-.322-.541-.2-.311-.339-.543l-.534-.812-.157-.242-.178-.249-.382-.537c-.067-.093-.133-.19-.206-.286l-.225-.288-.474-.607c-.166-.206-.346-.41-.527-.624s-.365-.432-.568-.642l-.61-.651c-.214-.213-.436-.426-.659-.644-.112-.106-.221-.221-.339-.324l-.354-.315c-.24-.208-.472-.43-.728-.627l-.757-.61-.788-.576c-.26-.2-.538-.368-.807-.549l-.407-.267c-.135-.089-.276-.167-.413-.251-.278-.162-.55-.331-.827-.483l-.831-.439a25.211,25.211,0,0,0-3.185-1.355A25.542,25.542,0,0,0,263,330.321c-.55-.06-1.44-.175-2.5-.23-.264-.024-.54-.022-.824-.029s-.575-.016-.87-.013c-.592.022-1.2.019-1.813.08l-.455.036c-.152.012-.3.022-.453.044l-.885.113c-.145.018-.289.037-.429.064l-.417.074c-.273.051-.54.091-.791.147l-.717.164c-.226.053-.44.1-.632.155l-.943.262c-.508.143-.949.283-1.338.409-.384.142-.716.27-1.01.387-.148.056-.281.121-.409.18l-.36.171c-.225.112-.43.206-.615.312-.371.213-.7.4-1.075.624-.186.117-.385.24-.61.376l-.359.214c-.125.077-.255.164-.4.253a24.485,24.485,0,0,0-3.558,2.706,27.1,27.1,0,0,0-2.726,2.916l-.517.675c-.081.108-.164.211-.236.317l-.213.308-.385.561c-.121.172-.216.342-.312.49l-.432.7-.148.268c-.31.576-.838,1.517-1.346,2.7a27.288,27.288,0,0,0-1.412,4,29.424,29.424,0,0,0-.766,4.077c-.026.3-.05.593-.073.863s-.046.523-.049.754c-.014.463-.024.838-.032,1.1a27.441,27.441,0,0,0,.463,5.035,27.977,27.977,0,0,0,1.058,4c.1.285.207.552.3.811s.189.506.294.733l.287.651.132.3.136.272c.176.349.328.648.455.889s.244.418.321.54" transform="translate(-9875.894 -637.048)"/><path class="b" d="M260.429,375.71a.865.865,0,0,1-.008-.106c-.012-.516.009-1.032.03-1.552.022-.556.044-1.117.027-1.687l-.009-.285a22.405,22.405,0,0,1,.033-3.252v-.01c0-.2.009-.4-.007-.591l-.026-.322-.018-.266-.01-.2,0-.161a2.2,2.2,0,0,1,.025-.384l0-.015c.008-.059.018-.127.024-.232.008-.177.01-.343.012-.521l-.008-1.075c0-.306-.006-.615-.006-.922V363.6l.008-.6c0-.08,0-.148.008-.208a.7.7,0,0,1,.034-.166.62.62,0,0,1,.085-.162,1.336,1.336,0,0,1,.164-.184l.306-.293.319-.3.415-.375c.072-.065.145-.131.219-.189s.16-.131.245-.208.175-.163.263-.248c.179-.174.364-.364.54-.545.142-.148.289-.291.435-.436l.608-.567c.169-.158.339-.32.508-.472l.134-.118.132-.112.137-.113.124-.1a5.234,5.234,0,0,0,.554-.5c.179-.182.348-.369.5-.539l.329-.358.1-.1.264-.25.407-.378.445-.407.441-.4.38-.338.341-.3.3-.254.244-.2a2.727,2.727,0,0,1,.229-.17,1.337,1.337,0,0,1,.2-.107.739.739,0,0,1,.193-.056.6.6,0,0,1,.179,0,.657.657,0,0,1,.164.05,1.06,1.06,0,0,1,.164.094,4.153,4.153,0,0,1,.328.262l.408.345.266.23.31.274.556.5.554.507.37.346.261.249c.133.134.255.268.381.406l.05.054c.153.17.322.357.5.539a5.282,5.282,0,0,0,.553.5c.124.1.236.189.352.293l.146.138c.144.143.281.265.435.4s.314.28.467.42.308.287.458.437l.229.235c.174.179.355.365.531.536.09.088.18.172.263.248s.167.147.245.208.144.122.215.186l.426.384.317.3.3.288a1.346,1.346,0,0,1,.163.181.593.593,0,0,1,.085.159.675.675,0,0,1,.034.167c.006.062.008.134.009.221l.008.576v.533l-.015,2V369.2c0,.9.021,1.828.042,2.753.028,1.232.056,2.466.035,3.65a1.006,1.006,0,0,1-.008.106.667.667,0,0,1-.02.093.442.442,0,0,1-.041.092.37.37,0,0,1-.063.076.414.414,0,0,1-.08.056.487.487,0,0,1-.1.039.709.709,0,0,1-.108.018,1.085,1.085,0,0,1-.135,0l-.211-.008c-.061,0-.116-.009-.164-.016a.827.827,0,0,1-.148-.034.453.453,0,0,1-.111-.054.359.359,0,0,1-.095-.092.415.415,0,0,1-.056-.122,1.236,1.236,0,0,1-.024-.352l0-.116c.005-.283.012-.563.014-.877V372.4q0-4.211,0-8.425l.005-.31c0-.087,0-.164,0-.231a.817.817,0,0,0-.02-.181.436.436,0,0,0-.021-.064.568.568,0,0,0-.034-.061.51.51,0,0,0-.053-.067l-.07-.069-.676-.617-.222-.195-.212-.19-.429-.4-.423-.4-.489-.472c-.255-.247-.511-.494-.779-.746l-.424-.394-.21-.187-.215-.187a3.043,3.043,0,0,0-.273-.271,2.822,2.822,0,0,1-.273-.272l0,0c-.448-.449-1.1-1.1-1.736-1.715a18.843,18.843,0,0,0-1.695-1.493.813.813,0,0,0-.083-.054.115.115,0,0,0-.077-.018.193.193,0,0,0-.078.044l-.122.1c-.4.346-1.055.962-1.716,1.592s-1.327,1.274-1.745,1.68l-.185.18c-.08.077-.16.156-.231.222l-.216.189-.216.194-.424.393-.427.407-.415.4c-.09.09-.184.18-.278.27l-.571.544-.429.4-.212.191-.221.193-.678.618a.94.94,0,0,0-.069.067.58.58,0,0,0-.053.068.336.336,0,0,0-.033.061.372.372,0,0,0-.021.064.557.557,0,0,0-.015.082l-.005.09c0,.067,0,.144,0,.232l.025,1.129.023.649c.02.461.04.922.039,1.405v2.086l-.007,1.708-.007,1.226-.013,1.463v.38a10.342,10.342,0,0,1-.1,1.973.585.585,0,0,1-.151.265.523.523,0,0,1-.3.132h0a1.044,1.044,0,0,1-.12.012c-.059,0-.121,0-.168,0s-.094,0-.134,0a.8.8,0,0,1-.109-.018.475.475,0,0,1-.1-.039.361.361,0,0,1-.08-.056.35.35,0,0,1-.063-.077.4.4,0,0,1-.041-.091.615.615,0,0,1-.02-.092" transform="translate(-9887.146 -646.234)"/></g></svg>