<svg xmlns="http://www.w3.org/2000/svg" width="206.958" height="73.109" viewBox="0 0 206.958 73.109"><defs><style>.a{fill:#df602a;}.b{fill:#81d8d0;}</style></defs><g transform="translate(3793.925 137)"><g transform="translate(-3719.656 -74.369)"><path class="a" d="M-3094.444,460.541a4.822,4.822,0,0,1-1.858-1.868,5.409,5.409,0,0,1-.672-2.7,5.451,5.451,0,0,1,.672-2.719,4.758,4.758,0,0,1,1.858-1.859,5.422,5.422,0,0,1,2.689-.662,5.207,5.207,0,0,1,2.264.484,4.091,4.091,0,0,1,1.651,1.414l-.732.534a3.513,3.513,0,0,0-1.374-1.157,4.2,4.2,0,0,0-1.809-.386,4.308,4.308,0,0,0-2.165.544,3.863,3.863,0,0,0-1.5,1.532,4.636,4.636,0,0,0-.544,2.274,4.633,4.633,0,0,0,.544,2.274,3.859,3.859,0,0,0,1.5,1.532,4.308,4.308,0,0,0,2.165.544,4.2,4.2,0,0,0,1.809-.385,3.513,3.513,0,0,0,1.374-1.157l.732.534a4.085,4.085,0,0,1-1.651,1.414,5.2,5.2,0,0,1-2.264.484A5.356,5.356,0,0,1-3094.444,460.541Z" transform="translate(3096.974 -450.734)"/><path class="a" d="M-2956.225,460.541a4.842,4.842,0,0,1-1.849-1.868,5.411,5.411,0,0,1-.672-2.7,5.413,5.413,0,0,1,.672-2.7,4.845,4.845,0,0,1,1.849-1.868,5.23,5.23,0,0,1,2.64-.672,5.227,5.227,0,0,1,2.64.672,4.844,4.844,0,0,1,1.848,1.868,5.414,5.414,0,0,1,.672,2.7,5.411,5.411,0,0,1-.672,2.7,4.841,4.841,0,0,1-1.848,1.868,5.224,5.224,0,0,1-2.64.672A5.227,5.227,0,0,1-2956.225,460.541Zm4.765-.771a3.983,3.983,0,0,0,1.483-1.542,4.606,4.606,0,0,0,.543-2.254,4.608,4.608,0,0,0-.543-2.254,3.988,3.988,0,0,0-1.483-1.542,4.107,4.107,0,0,0-2.125-.554,4.109,4.109,0,0,0-2.125.554,3.977,3.977,0,0,0-1.483,1.542,4.6,4.6,0,0,0-.544,2.254,4.6,4.6,0,0,0,.544,2.254,3.972,3.972,0,0,0,1.483,1.542,4.107,4.107,0,0,0,2.125.553A4.1,4.1,0,0,0-2951.459,459.77Z" transform="translate(2973.475 -450.734)"/><path class="a" d="M-2780.351,451.861a4.459,4.459,0,0,1,1.1,3.243v6.03h-.989v-5.951a3.745,3.745,0,0,0-.85-2.649,3.089,3.089,0,0,0-2.372-.91,3.6,3.6,0,0,0-2.759,1.088,4.108,4.108,0,0,0-1.018,2.926v5.5h-.988v-5.951a3.745,3.745,0,0,0-.85-2.649,3.089,3.089,0,0,0-2.372-.91,3.6,3.6,0,0,0-2.759,1.088,4.108,4.108,0,0,0-1.018,2.926v5.5h-.989V450.813h.949v2.214a3.814,3.814,0,0,1,1.532-1.691,4.671,4.671,0,0,1,2.422-.6,4.3,4.3,0,0,1,2.382.632,3.443,3.443,0,0,1,1.394,1.858,4.027,4.027,0,0,1,1.612-1.819,4.805,4.805,0,0,1,2.561-.672A4.013,4.013,0,0,1-2780.351,451.861Z" transform="translate(2828.268 -450.734)"/><path class="a" d="M-2546.01,451.861a4.461,4.461,0,0,1,1.1,3.243v6.03h-.988v-5.951a3.745,3.745,0,0,0-.851-2.649,3.09,3.09,0,0,0-2.373-.91,3.6,3.6,0,0,0-2.758,1.088,4.107,4.107,0,0,0-1.018,2.926v5.5h-.988v-5.951a3.745,3.745,0,0,0-.851-2.649,3.089,3.089,0,0,0-2.373-.91,3.6,3.6,0,0,0-2.759,1.088,4.109,4.109,0,0,0-1.018,2.926v5.5h-.989V450.813h.949v2.214a3.811,3.811,0,0,1,1.532-1.691,4.671,4.671,0,0,1,2.422-.6,4.3,4.3,0,0,1,2.383.632,3.445,3.445,0,0,1,1.394,1.858,4.026,4.026,0,0,1,1.612-1.819,4.8,4.8,0,0,1,2.56-.672A4.014,4.014,0,0,1-2546.01,451.861Z" transform="translate(2618.898 -450.734)"/><path class="a" d="M-2328.082,456.211h-8.878a4.31,4.31,0,0,0,.613,2.145,3.918,3.918,0,0,0,1.552,1.453,4.668,4.668,0,0,0,2.2.514,4.724,4.724,0,0,0,1.868-.366,3.642,3.642,0,0,0,1.434-1.078l.573.653a4.4,4.4,0,0,1-1.69,1.246,5.555,5.555,0,0,1-2.2.435,5.549,5.549,0,0,1-2.749-.672,4.871,4.871,0,0,1-1.888-1.858,5.334,5.334,0,0,1-.682-2.709,5.615,5.615,0,0,1,.642-2.7,4.737,4.737,0,0,1,1.77-1.868,4.845,4.845,0,0,1,2.531-.672,4.853,4.853,0,0,1,2.521.662,4.716,4.716,0,0,1,1.759,1.849,5.554,5.554,0,0,1,.643,2.689Zm-6.861-4.122a3.689,3.689,0,0,0-1.394,1.364,4.439,4.439,0,0,0-.6,1.987h7.909a4.141,4.141,0,0,0-.593-1.977,3.871,3.871,0,0,0-1.4-1.364,3.9,3.9,0,0,0-1.958-.494A3.955,3.955,0,0,0-2334.943,452.088Z" transform="translate(2418.814 -450.734)"/><path class="a" d="M-2177.236,451.337a4.7,4.7,0,0,1,2.452-.6v.969l-.237-.02a3.431,3.431,0,0,0-2.689,1.078,4.32,4.32,0,0,0-.968,3v5.378h-.989V450.813h.949v2.254A3.574,3.574,0,0,1-2177.236,451.337Z" transform="translate(2277.419 -450.734)"/><path class="a" d="M-2080.284,460.541a4.821,4.821,0,0,1-1.859-1.868,5.411,5.411,0,0,1-.672-2.7,5.453,5.453,0,0,1,.672-2.719,4.757,4.757,0,0,1,1.859-1.859,5.425,5.425,0,0,1,2.689-.662,5.2,5.2,0,0,1,2.264.484,4.091,4.091,0,0,1,1.651,1.414l-.731.534a3.519,3.519,0,0,0-1.375-1.157,4.2,4.2,0,0,0-1.809-.386,4.311,4.311,0,0,0-2.165.544,3.866,3.866,0,0,0-1.5,1.532,4.642,4.642,0,0,0-.544,2.274,4.639,4.639,0,0,0,.544,2.274,3.861,3.861,0,0,0,1.5,1.532,4.311,4.311,0,0,0,2.165.544,4.2,4.2,0,0,0,1.809-.385,3.519,3.519,0,0,0,1.375-1.157l.731.534a4.085,4.085,0,0,1-1.651,1.414,5.2,5.2,0,0,1-2.264.484A5.359,5.359,0,0,1-2080.284,460.541Z" transform="translate(2190.886 -450.734)"/><path class="a" d="M-1934.74,456.211h-8.878a4.306,4.306,0,0,0,.613,2.145,3.918,3.918,0,0,0,1.552,1.453,4.666,4.666,0,0,0,2.2.514,4.724,4.724,0,0,0,1.869-.366,3.637,3.637,0,0,0,1.434-1.078l.573.653a4.4,4.4,0,0,1-1.691,1.246,5.554,5.554,0,0,1-2.2.435,5.547,5.547,0,0,1-2.748-.672,4.872,4.872,0,0,1-1.888-1.858,5.335,5.335,0,0,1-.682-2.709,5.614,5.614,0,0,1,.643-2.7,4.737,4.737,0,0,1,1.77-1.868,4.843,4.843,0,0,1,2.53-.672,4.851,4.851,0,0,1,2.521.662,4.711,4.711,0,0,1,1.76,1.849,5.554,5.554,0,0,1,.643,2.689Zm-6.861-4.122a3.69,3.69,0,0,0-1.393,1.364,4.438,4.438,0,0,0-.6,1.987h7.909a4.141,4.141,0,0,0-.593-1.977,3.869,3.869,0,0,0-1.4-1.364,3.9,3.9,0,0,0-1.958-.494A3.956,3.956,0,0,0-1941.6,452.088Z" transform="translate(2067.388 -450.734)"/></g><g transform="translate(-3719.656 -136.776)"><path class="b" d="M-3054.536-78.659h-30.544a3.476,3.476,0,0,1-.563-.122q-.465-.122-1.028-.294t-1.028-.318a3.086,3.086,0,0,0-.563-.147,13.993,13.993,0,0,1-3.6-1.81,16.553,16.553,0,0,1-2.741-2.4,10.257,10.257,0,0,1-1.762-2.618,6.021,6.021,0,0,1-.611-2.472V-134.9l9.5.1v41.313a6.132,6.132,0,0,0,.563,2.594,6.22,6.22,0,0,0,1.566,2.1A7.657,7.657,0,0,0-3083-87.4a8.1,8.1,0,0,0,2.913.514l25.551-.245Zm-33.04-15.125v-.245h-.1v.245Z" transform="translate(3096.974 134.902)"/><path class="b" d="M-2620.4,89.655a3.211,3.211,0,0,1-1.688-.686,18.558,18.558,0,0,1-1.934-1.517,7.729,7.729,0,0,1-1.346-1.713,16.337,16.337,0,0,1-1.077-2.154,13.4,13.4,0,0,1-.71-2.227,9.2,9.2,0,0,1-.244-1.982V61.166h7Zm-6.948-35.784q.783.1,1.223.122t1.371.122a7.711,7.711,0,0,1,2.4.49,1.63,1.63,0,0,1,.931.906,3.3,3.3,0,0,1,.123,1.37,14.144,14.144,0,0,0-.024,1.884,7.112,7.112,0,0,0-1.444-.049,10.808,10.808,0,0,1-1.444,0,5.657,5.657,0,0,1-2.228-.465,1.62,1.62,0,0,1-.832-1,4.345,4.345,0,0,1-.1-1.493A14.242,14.242,0,0,0-2627.347,53.871Z" transform="translate(2677.437 -33.755)"/><path class="b" d="M-2464.917,137.124h-24.768a1.091,1.091,0,0,1-.269-.1l-.49-.22q-.27-.123-.49-.22a1.084,1.084,0,0,0-.27-.1,6.2,6.2,0,0,1-1.761-1.322,9.634,9.634,0,0,1-1.346-1.811,10.145,10.145,0,0,1-.881-1.982,6.006,6.006,0,0,1-.318-1.786V105.8h22.957a6.082,6.082,0,0,1,2.741.685,9.08,9.08,0,0,1,2.447,1.787,9.64,9.64,0,0,1,1.763,2.5,6.439,6.439,0,0,1,.685,2.864Zm-6.118-6.265V114.9a2.183,2.183,0,0,0-.294-1.1,3.185,3.185,0,0,0-.735-.881,3.829,3.829,0,0,0-.954-.587,2.43,2.43,0,0,0-.955-.22h-15.517v16.055a1.85,1.85,0,0,0,.318,1.028,3.811,3.811,0,0,0,.759.857,4.029,4.029,0,0,0,.93.587,2.174,2.174,0,0,0,.882.221Z" transform="translate(2559.604 -80.147)"/><path class="b" d="M-2107.582,130.086h-5.972V107.961a2.058,2.058,0,0,0-.293-1.077,4.111,4.111,0,0,0-.708-.881,3.167,3.167,0,0,0-.927-.612,2.431,2.431,0,0,0-.952-.22h-15.524v24.915a4.553,4.553,0,0,1-1.505-.538,12.888,12.888,0,0,1-1.653-1.077,6.5,6.5,0,0,1-1.234-1.273,9.894,9.894,0,0,1-.937-1.542,8.019,8.019,0,0,1-.593-1.615,6.161,6.161,0,0,1-.2-1.444V98.906h23.006a.7.7,0,0,1,.146.024.775.775,0,0,0,.2.024c.2.033.392.058.587.074a1.878,1.878,0,0,1,.538.122,5.915,5.915,0,0,1,.759.245l.612.245a5.77,5.77,0,0,1,1.371.856,11.313,11.313,0,0,1,1.272,1.224,9.287,9.287,0,0,1,1.028,1.395,6.363,6.363,0,0,1,.636,1.371c.064.164.146.416.245.759a1.343,1.343,0,0,1,.1.612Z" transform="translate(2240.26 -73.991)"/></g><g transform="translate(-3793.925 -137)"><path class="a" d="M-3568.462,121.728l-9.354-1.457,4.4,3.877a1.294,1.294,0,0,0,1.12.3l2.884-.6,2.048,5.461v-6.3A1.293,1.293,0,0,0-3568.462,121.728Z" transform="translate(3600.846 -92.856)"/><g transform="translate(0 0)"><path class="a" d="M-3585.28,144.244l-3.243-3.565c.9,4.126-5.724,4.6-6.489,4.382-3.674-1.045-4.219-2.383-1.861-5.406a11.949,11.949,0,0,1,3.68-2.768,4.178,4.178,0,0,0,2.115-4.215,51.8,51.8,0,0,0-1.016-5.328,5.987,5.987,0,0,1,.213-3.5l0-.005,2.884.6a1.293,1.293,0,0,0,1.12-.3l4.4-3.877-9.354,1.457a1.293,1.293,0,0,0-1.094,1.278l.039,6.193c.472,1.657.95,1.4,1.546,2.656.865,1.823-.269,2.913-2.431,3.571-2.918.889-9.339.812-11.521-.488,1.108,1.21,1.688,1.891,2.318,2.52,1.1,1.1,2.29,2.11,3.342,3.25,1.521,1.651.845,2.854-.92,3.763-2.11,1.087-6.45.552-7.781-1.4-.7-1.034-.672-2.738-.55-4.1.079-.885.083-4.778-.913-6.379.216,1.872-.169,4.543-.5,4.681l-3.977-7.017c1.588,4.54-1.891,7.791-2.122,12.026-.023.42-.027,1.542,0,1.812,1.217-2.025,2.552-6.109,3.019-6.039.618,4.133,2.784,7.77,3.455,12.262-.921-.421-2.694-.493-2.917-.225,3.136,3.33,7.057,6.81,10.829,10.815-.643-3.419-1.9-6.114-2.4-8.777l-1.584,1.513c-.139-1.79-.249-3.217-.368-4.753l-1.667,1.351v-3.327a53.615,53.615,0,0,1,20.113-.123c.056.646.143,1.644.255,2.93l-2.127-1.325c-.333,1.98-.623,3.711-.992,5.912l-1.506-1.907c-.447,2.517-.848,4.779-1.249,7.041.272.122,3.708-4.624,5.153-7.12l1.221,2.705,2.181-5.319c.294.075-.246,7.057-.786,10.323,7.89-5.288,8.007-12.126.13-23.586C-3587.112,137.369-3585.133,144.18-3585.28,144.244Z" transform="translate(3636.226 -92.856)"/><path class="a" d="M-3785.363,65.382c-1.812-6.039.826-11.484,5.18-13.453,3.444-1.558,13.873-9.46,13.733-9.6l-18.382,8.143c.87-4.863,4.314-6.98,8.063-8.829-5.858-.156-9.508,2.614-11.786,7.706-1.526,3.411-3.526,6.609-5.371,10.007l4.854-1.647c.3,5.08.6,10.052.893,15.024.342.053,9.269-9.14,11.469-15.29C-3779.755,59.591-3781.88,62.93-3785.363,65.382Z" transform="translate(3793.925 -22.603)"/><path class="a" d="M-3696.545,259.692c.273,4.544.135,7.578.455,12.891-1.657-3.581-2.686-5.185-4.031-8.093l-.942,1.714c-2.852-6.611-3.457-12.758.6-18.785-8.445,5.339-6.531,13.957-6.714,22.052l2.869-4.074c1.63,5.987,5.345,8.983,12.054,10.782-.912-3.44-1.745-6.023-2.257-8.668C-3695.018,264.912-3696.2,259.666-3696.545,259.692Z" transform="translate(3716.483 -206.455)"/><path class="a" d="M-3546.237-113.674l3.185-4.36c-.4,6.1-.173,6.844,2.861,9.758-1.829-7.714.281-10.5,8.078-10.918,2.183-.118,4.406.32,6.572.108a29.778,29.778,0,0,0,7.819-1.514c3.146-1.219,4.373-3.946,3.855-7.129a12.077,12.077,0,0,1-8.9,4.339c-2.381.2-4.827-.146-7.173.214a75.5,75.5,0,0,0-12.176,2.555C-3545.438-119.525-3546.641-116.833-3546.237-113.674Z" transform="translate(3572.698 128.716)"/><path class="a" d="M-3666.746-121.669c-.063-2.1-.134-4.191,2.553-4.9.424,6.011,1.949,7.765,7.123,7.961-5.477-5.935-4.438-9.676,3-12.041,3.224-1.026,6.456-2.061,9.582-3.342,1.2-.491,2.112-1.68,3.7-3-6.972,1.353-13.048,2.3-18.991,3.791a18.545,18.545,0,0,0-7.284,3.733C-3669.711-127.225-3669.314-123.725-3666.746-121.669Z" transform="translate(3682.196 137)"/><path class="a" d="M-3459.112-19.136c3.219-4.4,7.45-4.852,12.005-4.384,2.58.265,5.168.6,7.754.612,2.716.014,5.306-.587,6.829-2.87-3.9-.25-7.656-.36-11.381-.773-3.066-.34-6.074-1.192-9.14-1.542-3.953-.451-6.31.81-7.393,3.378,1.935-.426,6.287-.836,6.361-.578C-3456.944-24.436-3459.273-23.126-3459.112-19.136Z" transform="translate(3495.974 39.779)"/><path class="a" d="M-3386.073,33.047c-3.053-2.147-6.282-2.939-9.646-1.323,2,.893,4.109,1.723,6.111,2.753,2.3,1.186,4.438,2.72,6.786,3.8a11.567,11.567,0,0,0,11.254-.521C-3377.173,38.446-3381.734,36.1-3386.073,33.047Z" transform="translate(3438.154 -12.977)"/><path class="a" d="M-3476.773,401.538l-1.072,5.2a8.068,8.068,0,0,1-1.427-2.91l-2.155,8.169c-1.039-1.253-2.755-3.8-3.054-3.632,1.2,2.876,4.261,8.995,4.642,8.89C-3480.454,411.734-3473.427,407.8-3476.773,401.538Z" transform="translate(3517.456 -344.15)"/><path class="a" d="M-3767.384,13.722c-8.61-2.137-13.344,1.586-12.173,9.493C-3777.521,17.415-3772.927,15.308-3767.384,13.722Z" transform="translate(3781.246 2.871)"/></g></g></g></svg>