<svg xmlns="http://www.w3.org/2000/svg" width="237" height="41.341" viewBox="0 0 237 41.341"><defs><style>.a{fill:#51463c;}</style></defs><path class="a" d="M201.29,151.535h-.009a7.349,7.349,0,0,1-2.263-.309,4.59,4.59,0,0,1-1.634-.918,3.946,3.946,0,0,1-1.156-1.662,5.035,5.035,0,0,1-.287-1.732,4.559,4.559,0,0,1,.619-2.208,4.208,4.208,0,0,1,.712-.915h0l0,0h0a4.034,4.034,0,0,1,1.392-.873,6.271,6.271,0,0,1,2.213-.351,12.049,12.049,0,0,1,1.2.063l.252.031c.083.01.166.024.247.035l.011,0h0l.188.035a6.688,6.688,0,0,0,1,.136.205.205,0,0,1,.153.052h0a.157.157,0,0,1,.043.118c0,.042-.005.09-.013.17s-.025.236-.041.473c-.005.174-.01.4-.012.612,0,.233-.007.445-.013.536h0v.01h0a.34.34,0,0,1-.1.257.23.23,0,0,1-.037.024h0c-.014,0-.028,0-.041.007h-.006a.12.12,0,0,1-.124-.094.661.661,0,0,1-.02-.195,1.548,1.548,0,0,0-.256-.859,1.064,1.064,0,0,0-.1-.129,1.505,1.505,0,0,0-.116-.108h0a2.341,2.341,0,0,0-.715-.376c-.06-.021-.121-.042-.184-.059a5.043,5.043,0,0,0-1.371-.181h0a5.053,5.053,0,0,0-1.712.247,2.455,2.455,0,0,0-.892.525h0a2.975,2.975,0,0,0-.837,1.328,5.38,5.38,0,0,0-.2,1.593v0h0a4.03,4.03,0,0,0,1.158,2.827,4.171,4.171,0,0,0,3.014,1.224h0a4.953,4.953,0,0,0,1.108-.09,1.577,1.577,0,0,0,.787-.428,1.844,1.844,0,0,0,.377-.689c.016-.045.028-.087.037-.125h0c.01-.038.018-.077.023-.1h0l0,0h0a.441.441,0,0,1,.047-.143h0a.128.128,0,0,1,.121-.059h0a.145.145,0,0,1,.112.073.244.244,0,0,1,.043.136v0h0c0,.059-.083.588-.174,1.022-.017.083-.037.167-.054.243s-.037.143-.053.195l0,.007h0a.65.65,0,0,1-.106.233.487.487,0,0,1-.216.129h0a3.212,3.212,0,0,1-.782.181c-.058.01-.119.014-.181.021a10.782,10.782,0,0,1-1.164.059Zm73.652-4.017h65.894v.421H274.811v-.421Zm-151.869,0h65.89v.428H122.94v-.428Zm225.852-15.423c0-.769,0-.908.01-1.068.01-.177.042-.247.174-.275a.7.7,0,0,1,.132-.01.052.052,0,0,0,.045-.042c0-.028-.031-.038-.087-.038-.153,0-.48.01-.508.01s-.358-.01-.584-.01c-.059,0-.08.01-.08.038a.045.045,0,0,0,.038.042c.049,0,.136.007.177.01.167.024.191.1.2.275s.014.309.014,1.078v.1c0,.031-.014.031-.028.031h-2.142c-.017,0-.028,0-.028-.031v-.1c0-.769,0-.918.007-1.078.01-.177.038-.247.177-.275a.648.648,0,0,1,.129-.01.052.052,0,0,0,.042-.042c0-.028-.024-.038-.08-.038-.16,0-.487.01-.508.01s-.358-.01-.591-.01c-.056,0-.08.01-.08.038a.052.052,0,0,0,.042.042c.045,0,.132.007.174.01.17.024.2.1.209.275s.014.3.014,1.068v.873a10.561,10.561,0,0,1-.028,1.071c-.024.15-.038.24-.136.264a.638.638,0,0,1-.16.024.036.036,0,0,0-.038.038c0,.031.028.042.08.042.156,0,.483-.014.515-.014s.348.014.633.014c.059,0,.084-.017.084-.042a.039.039,0,0,0-.042-.038,1.719,1.719,0,0,1-.233-.024c-.153-.024-.167-.115-.188-.264-.021-.2-.021-.581-.021-1.061v-.494c0-.024.01-.028.028-.028h2.142c.014,0,.028,0,.028.028v.494c0,.48,0,.852-.024,1.057-.017.146-.035.243-.139.268a.586.586,0,0,1-.153.024.039.039,0,0,0-.042.038c0,.031.024.042.084.042.15,0,.483-.014.508-.014s.355.014.633.014c.059,0,.09-.017.09-.042s-.014-.038-.049-.038a1.579,1.579,0,0,1-.226-.024c-.156-.024-.17-.115-.188-.264-.021-.2-.028-.595-.028-1.071v-.873Zm-64.809-.323c1.282-2.705,3.218-1.485,5.228-.049,1.4-1.158,2.532-3.185,2.532-6.632,0-5.675-3.512-8.736-7.418-8.736-4.128,0-7.108,2.556-7.108,7.779,0,5.508,3.344,9.049,7.811,9.049a6.947,6.947,0,0,0,2.739-.574c-1.24-1.1-2.5-1.84-3.784-.838Zm6.167.623c1.7,1.2,3.4,2.149,4.729.605-2.107,4.7-4.2,2.406-6.338.337-.085.035-.169.07-.256.1a12.82,12.82,0,0,1-3.9.737c-6.826,0-9.694-5.091-9.694-9.389a9.461,9.461,0,0,1,9.807-9.327c5.561,0,9.775,3.429,9.775,8.962a10.866,10.866,0,0,1-4.121,7.977Zm47.694,1.777a7.54,7.54,0,0,0,3.933-.845,4.664,4.664,0,0,0,2.306-4.079c0-2.048-1.04-3.707-4.048-5.755l-.7-.476c-2.445-1.659-3.2-2.532-3.2-4.048,0-1.687,1.488-2.584,3.286-2.584,2.222,0,3.036.9,3.206,1.179a4.451,4.451,0,0,1,.365,1.179c.028.2.056.309.223.309.17.024.2-.143.2-.511,0-1.624.111-2.41.111-2.521,0-.143-.056-.17-.25-.17a3.238,3.238,0,0,1-.873-.111,10.135,10.135,0,0,0-2.556-.309c-3.262,0-5.477,1.687-5.477,4.5,0,1.655.869,3.119,3.537,5.112l1.127.845c2.191,1.627,3.116,2.441,3.116,4.156,0,1.8-1.262,3.175-3.707,3.175-1.659,0-3.512-.616-3.905-2.361a3.612,3.612,0,0,1-.083-.869c0-.2-.083-.282-.226-.282s-.195.139-.195.393c-.028.393-.143,1.349-.143,2.528,0,.647.028.734.365.9a8.986,8.986,0,0,0,3.6.65Zm-16.995-7.251a48.054,48.054,0,0,1-.143,5.168c-.111.7-.167,1.179-.647,1.266-.223.024-.532.111-.758.111a.189.189,0,0,0-.195.195c0,.146.139.2.393.2.393,0,.956-.028,1.433-.056.532-.031,1.012-.031,1.068-.031.365,0,1.012,0,2.052.059,1.008.028,2.441.083,4.295.083.956,0,1.21,0,1.381-.622a19.965,19.965,0,0,0,.334-2.3c0-.17-.028-.365-.167-.365s-.2.083-.254.365a1.809,1.809,0,0,1-1.123,1.655,8.2,8.2,0,0,1-2.473.254c-2.445,0-2.893-.306-2.949-1.909-.028-.48,0-3.262,0-4.072v-2a.149.149,0,0,1,.167-.17c.421,0,3.064.028,3.738.111.953.115,1.179.4,1.262.734a2.073,2.073,0,0,1,.115.786c0,.139.056.226.167.226.167,0,.226-.254.226-.449,0-.17.056-1.071.111-1.547a12.615,12.615,0,0,1,.2-1.321c0-.139-.056-.2-.143-.2s-.195.143-.365.31c-.25.254-.619.282-1.207.341-.56.056-3.822.056-4.131.056-.139,0-.139-.087-.139-.254v-6.489c0-.17.028-.254.139-.254.282,0,3.147.028,3.571.083,1.346.17,1.6.337,1.767.73a2.551,2.551,0,0,1,.139.842c0,.2.059.313.2.313.115,0,.2-.143.226-.254.056-.282.111-1.349.139-1.575.056-.671.2-.953.2-1.123,0-.111-.028-.226-.111-.226-.115,0-.226.087-.337.115-.2.028-.647.111-1.127.139-.56.028-5.731,0-5.9,0-.139,0-1.742-.056-2.865-.056-.282,0-.393.056-.393.2a.236.236,0,0,0,.195.195,8.076,8.076,0,0,1,.845.056c.814.115.953.508,1.008,1.321.059.758.059,1.433.059,5.143v4.215Zm-21.832-.706c0,3.484.956,5.143,2.167,6.266a7.685,7.685,0,0,0,5.14,1.69,7.455,7.455,0,0,0,5.168-1.746c1.968-1.687,2.306-4.58,2.306-7.164V122.7c0-3.711-.028-4.385.028-5.143.056-.786.195-1.179.869-1.321a2.93,2.93,0,0,1,.619-.056.212.212,0,0,0,.2-.195c0-.143-.115-.2-.393-.2-.734,0-1.913.056-2.08.056-.143,0-1.575-.056-2.671-.056-.282,0-.393.056-.393.2a.21.21,0,0,0,.2.195,8.069,8.069,0,0,1,.842.056c.814.115.956.563.984,1.321s.056,1.433.056,5.143v3c0,2.445-.254,4.41-1.4,5.787a5.073,5.073,0,0,1-3.822,1.687,4.814,4.814,0,0,1-3.679-1.294c-1.068-.953-1.826-2.389-1.826-5.842V122.7c0-3.711,0-4.385.056-5.143.056-.786.2-1.207.842-1.321a2.931,2.931,0,0,1,.619-.056.243.243,0,0,0,.226-.195c0-.143-.143-.2-.421-.2-.73,0-2.278.056-2.5.056s-1.714-.056-2.838-.056c-.282,0-.393.056-.393.2a.236.236,0,0,0,.195.195,7.945,7.945,0,0,1,.842.056c.817.115.956.563,1.012,1.321s.056,1.433.056,5.143v3.509Zm-41.071,5c-.478,1.21-.956,2.052-2.08,2.191a7.111,7.111,0,0,1-.735.059.217.217,0,0,0-.224.195c0,.146.169.2.476.2,1.017,0,2.253-.083,2.506-.083.282,0,1.629.083,2.219.083.226,0,.365-.056.365-.2,0-.111-.056-.195-.25-.195h-.226c-.421,0-.843-.17-.843-.647a4.966,4.966,0,0,1,.365-1.6l1.4-3.818a.261.261,0,0,1,.252-.2h5.7c.143,0,.17.028.226.143l2.219,5.477a.45.45,0,0,1-.224.647c-.113.056-.169.056-.169.167,0,.143.393.143.871.174,1.713.056,3.538.056,3.9.056.282,0,.563-.056.563-.2s-.169-.195-.309-.195a3.6,3.6,0,0,1-.984-.139c-.532-.17-1.207-.48-2.106-2.615-1.518-3.624-5.479-13.486-5.928-14.5-.254-.532-.337-.869-.591-.869-.167,0-.28.139-.589.928l-5.815,14.943Zm3.566-5c-.084,0-.111-.052-.084-.167l2.3-6.548q.211-.542.421,0l2.443,6.548c.03.115.03.167-.083.167ZM248.6,111.943l3.878.059c2.954.063,3.691.769,3.785,1.69l.03.337c.03.431.092.522.245.522.125,0,.216-.125.216-.4,0-.337.094-2.455.094-3.373,0-.184,0-.369-.156-.369-.122,0-.4.09-.859.15a12.181,12.181,0,0,1-2.186.153H242.1c-.37,0-1.541-.059-2.433-.153a5.657,5.657,0,0,1-1.353-.365c-.123,0-.247.4-.308.584-.063.243-.678,2.883-.678,3.189,0,.184.063.275.155.275.123,0,.214-.059.308-.306a5.46,5.46,0,0,1,.523-.949c.492-.737,1.229-.953,3.139-.984l4.554-.059v12.978c0,2.949,0,5.373-.155,6.663-.122.887-.278,1.565-.89,1.687a4.682,4.682,0,0,1-.925.122c-.184,0-.247.094-.247.184,0,.191.155.25.494.25.922,0,2.86-.094,3.015-.094s2.093.094,3.784.094c.341,0,.494-.1.494-.25,0-.09-.063-.184-.247-.184a13.1,13.1,0,0,1-1.386-.122c-.923-.122-1.106-.8-1.2-1.687-.155-1.29-.155-3.714-.155-6.663V111.943Zm-129.2,2.306a11.685,11.685,0,0,1-.822-2.528.612.612,0,0,1,.4-.612,3.642,3.642,0,0,1,1.156-.153c.214,0,.305-.059.305-.212s-.274-.212-.822-.212c-1.157,0-2.527.09-2.832.09-.365,0-2.1-.09-3.564-.09-.492,0-.8.028-.8.212,0,.122.061.212.243.212a4.649,4.649,0,0,1,1.162.125c1.066.3,1.523.64,2.193,2.344l7.462,18.671c.579,1.464.731,1.892,1.1,1.892.3,0,.426-.487,1.279-2.32.7-1.492,2.071-4.782,3.929-9.229,1.554-3.745,3.077-7.4,3.411-8.252.822-2.073,1.279-2.591,1.674-2.862a2.746,2.746,0,0,1,1.462-.369c.243,0,.366-.059.366-.212s-.183-.212-.518-.212c-.883,0-2.193.09-2.375.09-.366,0-1.767-.09-2.985-.09-.487,0-.67.063-.67.243,0,.153.153.181.336.181a3.753,3.753,0,0,1,1.158.125.75.75,0,0,1,.4.7,4.411,4.411,0,0,1-.274,1.158c-.67,2.194-4.751,12.822-6.519,16.9L119.4,114.249Zm12.932,16.963c-.477,1.21-.955,2.052-2.079,2.191a7.129,7.129,0,0,1-.735.059.217.217,0,0,0-.224.195c0,.146.169.2.477.2,1.016,0,2.253-.083,2.5-.083.282,0,1.63.083,2.22.083.225,0,.365-.056.365-.2,0-.111-.056-.195-.252-.195h-.225c-.422,0-.842-.17-.842-.647a4.946,4.946,0,0,1,.365-1.6l1.4-3.818a.26.26,0,0,1,.253-.2h5.7c.141,0,.169.028.225.143l2.22,5.477a.451.451,0,0,1-.225.647c-.112.056-.169.056-.169.167,0,.143.394.143.872.174,1.714.056,3.539.056,3.9.056.281,0,.562-.056.562-.2s-.169-.195-.309-.195a3.6,3.6,0,0,1-.984-.139c-.534-.17-1.208-.48-2.107-2.615-1.516-3.624-5.478-13.486-5.927-14.5-.253-.532-.337-.869-.59-.869-.168,0-.281.139-.59.928l-5.815,14.943Zm3.568-5c-.084,0-.112-.052-.084-.167l2.3-6.548q.21-.542.422,0l2.444,6.548c.029.115.029.167-.084.167Zm16.772-6.882c.759.845,3.54,3.763,6.406,6.771,2.612,2.726,6.18,6.235,6.433,6.461,1.377,1.269,1.629,1.464,1.883,1.464.168,0,.2-.139.2-1.714l.056-13.994c0-1.433.057-1.909.871-2.08a2.819,2.819,0,0,1,.589-.056.279.279,0,0,0,.282-.223c0-.143-.2-.17-.449-.17-1.012,0-1.827.056-2.108.056s-1.461-.056-2.584-.056c-.282,0-.477.028-.477.17,0,.083.027.223.2.223a7.645,7.645,0,0,1,1.208.115c.759.139.9.671.928,2.219l.253,11.966c-.76-.786-3.4-3.624-5.843-6.152-3.822-3.933-7.418-7.751-7.811-8.148-.253-.254-.674-.73-.955-.73-.2,0-.338.254-.338,1.207v13.684c0,2.163-.083,2.81-.7,2.98a4.084,4.084,0,0,1-1.011.139.192.192,0,0,0-.2.195c0,.174.141.2.394.2,1.124,0,2.163-.083,2.388-.083s1.208.083,2.612.083c.282,0,.451-.056.451-.2a.192.192,0,0,0-.2-.195,6.177,6.177,0,0,1-1.236-.139c-.675-.17-.9-.762-.955-2.73l-.281-11.264Zm22.082,7.588a48.65,48.65,0,0,1-.141,5.168c-.112.7-.169,1.179-.646,1.266-.225.024-.535.111-.759.111a.189.189,0,0,0-.2.195c0,.146.14.2.393.2.392,0,.955-.028,1.432-.056.535-.031,1.011-.031,1.069-.031.365,0,1.011,0,2.051.059,1.011.028,2.444.083,4.3.083.956,0,1.208,0,1.377-.622a19.712,19.712,0,0,0,.337-2.3c0-.17-.028-.365-.169-.365s-.2.083-.253.365a1.813,1.813,0,0,1-1.123,1.655,8.2,8.2,0,0,1-2.472.254c-2.445,0-2.894-.306-2.95-1.909-.029-.48,0-3.262,0-4.072v-2a.149.149,0,0,1,.169-.17c.422,0,3.062.028,3.736.111.955.115,1.181.4,1.265.734a2.117,2.117,0,0,1,.112.786c0,.139.056.226.168.226.169,0,.225-.254.225-.449,0-.17.056-1.071.113-1.547a12.883,12.883,0,0,1,.2-1.321c0-.139-.057-.2-.141-.2s-.2.143-.365.31c-.253.254-.618.282-1.208.341-.562.056-3.821.056-4.13.056-.14,0-.14-.087-.14-.254v-6.489c0-.17.028-.254.14-.254.281,0,3.146.028,3.568.083,1.348.17,1.6.337,1.77.73a2.63,2.63,0,0,1,.141.842c0,.2.056.313.2.313.113,0,.2-.143.225-.254.057-.282.112-1.349.141-1.575.056-.671.2-.953.2-1.123,0-.111-.027-.226-.113-.226-.112,0-.224.087-.336.115-.2.028-.646.111-1.123.139-.563.028-5.732,0-5.9,0-.141,0-1.742-.056-2.866-.056-.281,0-.393.056-.393.2a.237.237,0,0,0,.2.195,8.044,8.044,0,0,1,.843.056c.815.115.955.508,1.011,1.321.057.758.057,1.433.057,5.143v4.215Zm17,7.251a7.54,7.54,0,0,0,3.933-.845,4.662,4.662,0,0,0,2.3-4.079c0-2.048-1.039-3.707-4.045-5.755l-.7-.476c-2.445-1.659-3.2-2.532-3.2-4.048,0-1.687,1.489-2.584,3.287-2.584,2.219,0,3.034.9,3.2,1.179a4.426,4.426,0,0,1,.366,1.179c.028.2.056.309.224.309.169.024.2-.143.2-.511a25.236,25.236,0,0,1,.112-2.521c0-.143-.057-.17-.253-.17a3.238,3.238,0,0,1-.871-.111,10.131,10.131,0,0,0-2.557-.309c-3.258,0-5.478,1.687-5.478,4.5,0,1.655.871,3.119,3.539,5.112l1.124.845c2.192,1.627,3.118,2.441,3.118,4.156,0,1.8-1.264,3.175-3.708,3.175-1.658,0-3.512-.616-3.906-2.361a3.614,3.614,0,0,1-.083-.869c0-.2-.084-.282-.225-.282s-.2.139-.2.393c-.029.393-.141,1.349-.141,2.528,0,.647.028.734.365.9a8.981,8.981,0,0,0,3.6.65Zm14.722,0a7.539,7.539,0,0,0,3.932-.845,4.662,4.662,0,0,0,2.3-4.079c0-2.048-1.04-3.707-4.045-5.755l-.7-.476c-2.445-1.659-3.2-2.532-3.2-4.048,0-1.687,1.489-2.584,3.288-2.584,2.22,0,3.034.9,3.2,1.179a4.392,4.392,0,0,1,.366,1.179c.028.2.056.309.224.309.169.024.2-.143.2-.511,0-1.624.111-2.41.111-2.521,0-.143-.056-.17-.252-.17a3.242,3.242,0,0,1-.871-.111,10.134,10.134,0,0,0-2.556-.309c-3.26,0-5.479,1.687-5.479,4.5,0,1.655.87,3.119,3.54,5.112l1.123.845c2.192,1.627,3.118,2.441,3.118,4.156,0,1.8-1.264,3.175-3.709,3.175-1.657,0-3.511-.616-3.9-2.361a3.542,3.542,0,0,1-.085-.869c0-.2-.083-.282-.224-.282s-.2.139-.2.393c-.029.393-.14,1.349-.14,2.528,0,.647.028.734.365.9a8.982,8.982,0,0,0,3.6.65Zm11.152-2.956c-.478,1.21-.955,2.052-2.079,2.191a7.11,7.11,0,0,1-.735.059.217.217,0,0,0-.225.195c0,.146.17.2.478.2,1.016,0,2.252-.083,2.506-.083.28,0,1.629.083,2.22.083.224,0,.364-.056.364-.2,0-.111-.056-.195-.252-.195h-.225c-.421,0-.842-.17-.842-.647a4.945,4.945,0,0,1,.365-1.6l1.4-3.818a.26.26,0,0,1,.252-.2h5.7c.139,0,.168.028.224.143l2.22,5.477a.451.451,0,0,1-.225.647c-.112.056-.169.056-.169.167,0,.143.394.143.872.174,1.714.056,3.538.056,3.9.056.28,0,.561-.056.561-.2s-.167-.195-.308-.195a3.6,3.6,0,0,1-.984-.139c-.532-.17-1.207-.48-2.107-2.615-1.518-3.624-5.478-13.486-5.927-14.5-.254-.532-.337-.869-.59-.869-.17,0-.282.139-.59.928l-5.815,14.943Zm3.568-5c-.084,0-.112-.052-.084-.167l2.3-6.548q.211-.542.422,0l2.444,6.548c.028.115.028.167-.085.167Zm-2.834,24.548a2.445,2.445,0,0,0,.37-.7h0l2.757-7.084h0a1.9,1.9,0,0,1,.171-.369c.052-.083.1-.1.156-.1.127,0,.177.111.26.3.017.042.038.087.062.136l0,0v0c.1.236.585,1.422,1.138,2.785.606,1.492,1.3,3.192,1.671,4.083l0,.007a3.08,3.08,0,0,0,.556.953.872.872,0,0,0,.413.257h0a1.369,1.369,0,0,0,.2.045h0l.038.007a1.518,1.518,0,0,0,.205.014h.01a.227.227,0,0,1,.117.028h0a.127.127,0,0,1,.076.111h0v0h0v0c0,.059-.049.094-.117.118a.81.81,0,0,1-.195.024h0c-.083,0-.334,0-.688,0s-.76-.01-1.167-.024h0l-.1,0c-.208-.014-.364-.024-.364-.129,0-.076.03-.09.085-.115l.025-.01h.005a.183.183,0,0,0,.079-.073.176.176,0,0,0,0-.16h0l0-.007h0l-1.052-2.6a.115.115,0,0,0-.019-.031h0a.1.1,0,0,0-.04,0h-2.7a.05.05,0,0,0-.04.01h0a.1.1,0,0,0-.034.049l-.665,1.808h0c-.043.118-.08.233-.109.341l-.015.063a1.566,1.566,0,0,0-.046.341h0v0h0a.215.215,0,0,0,.1.191.471.471,0,0,0,.246.063h.11a.187.187,0,0,1,.128.038.137.137,0,0,1,.042.1.124.124,0,0,1-.075.118h0a.35.35,0,0,1-.148.028c-.139,0-.368-.01-.58-.021s-.405-.021-.47-.021h0c-.063,0-.234.01-.452.021s-.485.021-.727.021h-.01a.534.534,0,0,1-.187-.028.118.118,0,0,1-.089-.118h0v0a.136.136,0,0,1,.051-.1h0a.16.16,0,0,1,.1-.038h0c.056,0,.157-.007.243-.014l.05-.007h0l.044,0,.005,0h0a.852.852,0,0,0,.576-.313Zm3.715-7.953Zm-1.6,4.841,0,.017h2.361l0-.017-1.157-3.1h0a.348.348,0,0,0-.049-.094h0s0,0,0,0,0,0,0,0a.394.394,0,0,0-.05.094l-1.091,3.1Zm2.361.028h0s0,0,0,0Zm20.048,3.78a5.693,5.693,0,0,1-.995.08,5.219,5.219,0,0,1-1.273-.15c-.08-.024-.158-.045-.233-.073a1.429,1.429,0,0,1-.217-.09h-.005a.294.294,0,0,1-.17-.156.88.88,0,0,1-.031-.316c0-.449.035-.831.056-1.061h0l.01-.129v-.01a.4.4,0,0,1,.028-.16.121.121,0,0,1,.116-.073h0a.135.135,0,0,1,.113.049.2.2,0,0,1,.04.129h0v0c0,.045,0,.111.005.181a1.21,1.21,0,0,0,.033.223h0a1.263,1.263,0,0,0,.791.89,2.469,2.469,0,0,0,.235.083,2.763,2.763,0,0,0,.772.1h.007a1.842,1.842,0,0,0,1.276-.417,1.361,1.361,0,0,0,.428-1.036h0a1.424,1.424,0,0,0-.337-.97,6.58,6.58,0,0,0-1.12-.963h0l-.532-.4h0a5.619,5.619,0,0,1-1.327-1.283,2.041,2.041,0,0,1-.374-1.179v0h0a1.972,1.972,0,0,1,.737-1.6,3.007,3.007,0,0,1,1.909-.581h0a5.13,5.13,0,0,1,.942.087c.054.007.1.017.15.028a1.089,1.089,0,0,1,.13.035h0a1.474,1.474,0,0,0,.4.052.232.232,0,0,1,.122.021.116.116,0,0,1,.049.108c0,.028-.014.136-.028.33s-.026.476-.026.855h0v.01a.686.686,0,0,1-.019.205.105.105,0,0,1-.127.087.122.122,0,0,1-.118-.063h0a.361.361,0,0,1-.033-.125l0,0a1.789,1.789,0,0,0-.106-.4h0a.539.539,0,0,0-.03-.076.231.231,0,0,0-.028-.059l0-.007a1.2,1.2,0,0,0-.746-.449,2.07,2.07,0,0,0-.323-.059,2.782,2.782,0,0,0-.4-.028h-.014a1.8,1.8,0,0,0-1.066.306,1.046,1.046,0,0,0-.44.869h0a1.336,1.336,0,0,0,.313.9,5.508,5.508,0,0,0,1.184.974l.332.23h0a5.588,5.588,0,0,1,1.508,1.377,2.372,2.372,0,0,1,.431,1.394,2.194,2.194,0,0,1-.527,1.468,3.32,3.32,0,0,1-.259.261,3.559,3.559,0,0,1-.323.243h0a2.472,2.472,0,0,1-.9.33Zm16.866-.7a2.445,2.445,0,0,0,.369-.7l2.758-7.084h0a1.914,1.914,0,0,1,.17-.369c.052-.083.1-.1.156-.1.127,0,.177.111.259.3h0a1.505,1.505,0,0,0,.064.139v.007h0c.1.233.588,1.429,1.144,2.8.6,1.488,1.29,3.182,1.662,4.069l0,.007h0a3.1,3.1,0,0,0,.553.953.886.886,0,0,0,.414.257h0a1.459,1.459,0,0,0,.2.045h0l.04.007a1.493,1.493,0,0,0,.2.014h.01a.233.233,0,0,1,.118.028h0a.128.128,0,0,1,.075.111h0v0h0v0c0,.059-.049.1-.116.118a.83.83,0,0,1-.2.024h0c-.085,0-.334,0-.689,0s-.762-.01-1.167-.024h0l-.1,0c-.207-.014-.363-.024-.363-.129,0-.076.028-.09.084-.115h0l.024-.01h.007a.194.194,0,0,0,.08-.073.18.18,0,0,0,0-.16l-.005-.007h0l-1.052-2.6a.1.1,0,0,0-.019-.031.093.093,0,0,0-.042-.007v0h-2.7a.054.054,0,0,0-.042.01.116.116,0,0,0-.031.049h0l-.668,1.808h0c-.042.118-.08.233-.108.341l-.014.063h0a1.461,1.461,0,0,0-.045.341h0v0h0a.212.212,0,0,0,.1.191.47.47,0,0,0,.247.063h.108a.191.191,0,0,1,.13.038.145.145,0,0,1,.04.1.124.124,0,0,1-.075.118.348.348,0,0,1-.15.028c-.136,0-.365-.01-.577-.021s-.405-.021-.471-.021h0c-.063,0-.233.01-.452.021s-.485.021-.727.021h-.011a.517.517,0,0,1-.186-.028.12.12,0,0,1-.09-.118h0l0,0a.136.136,0,0,1,.05-.1.16.16,0,0,1,.1-.038h0c.054,0,.157-.007.242-.014l.05-.007h0l.043,0,.005,0h0a.856.856,0,0,0,.577-.313Zm2.114-3.112,0,.017h2.363l-.005-.017-1.16-3.1h0c-.028-.063-.045-.1-.056-.1h0c-.01,0-.028.031-.052.1h0l-1.092,3.1Zm2.361.028Z" transform="translate(-112.415 -110.194)"/></svg>