<svg xmlns="http://www.w3.org/2000/svg" xmlns:xlink="http://www.w3.org/1999/xlink" width="279.018" height="267.274" viewBox="0 0 279.018 267.274"><defs><style>.a{opacity:0.215;fill:url(#a);}.b{fill:#df602a;}.c{fill:#fff;}</style><linearGradient id="a" x1="0.099" y1="0.905" x2="0.776" y2="0.123" gradientUnits="objectBoundingBox"><stop offset="0" stop-color="#fff"/><stop offset="1" stop-color="#eaeaea"/></linearGradient></defs><g transform="translate(-668 -1620.033)"><path class="a" d="M1307.743,191.773c-16.473-9.211-34.9-6.064-52.538-3.1-6.834,1.149-13.862,2.819-20.834,2.827-2.547,0-5.154.34-7.33-1.194-3.578-2.524-2.076-8.789-1.691-12.284,1.011-9.164,2.233-19.071-3.523-27.011-7.181-9.905-22.3-9.3-33.093-7.163-8.123,1.607-15.811,5.273-23.123,8.979a139.825,139.825,0,0,0-43.6,35.014A85.179,85.179,0,0,0,1111,204.371c-5.434,11.011-9.3,24.1,3.654,31.722a39.839,39.839,0,0,0,11.067,4.066c6.963,1.68,14.2,2.493,20.667,5.753,1.532.773,3.147,1.537,3.876,3.206,2.464,5.646-8.754,14.091-12.216,17.248-6.318,5.759-13.09,11.329-16.97,19a19.893,19.893,0,0,0-1.163,14.025,28.13,28.13,0,0,0,16.231,18.764c48.409,21.056,112.048.108,151.567-40.253,17.183-17.549,27.389-35.236,30.6-43.517C1324.371,218.731,1324.061,200.9,1307.743,191.773Z" transform="translate(1741.55 2563.729) rotate(-150)"/><g transform="translate(728 1683)"><path class="b" d="M160.5,15.658V38.4H0V15.658A15.659,15.659,0,0,1,15.658,0h129.18A15.659,15.659,0,0,1,160.5,15.658Zm0,0"/><g transform="translate(0 13.337)"><path class="c" d="M171.461,34.5a5.931,5.931,0,1,1-5.95,5.912A5.93,5.93,0,0,1,171.461,34.5Zm0,0" transform="translate(-100.721 -34.332)"/><path class="c" d="M160.5,98.09v86.9a15.658,15.658,0,0,1-15.658,15.658H15.658A15.658,15.658,0,0,1,0,184.988V98.09Zm0,0" transform="translate(0 -73.029)"/><path class="c" d="M103.4,34.289a5.926,5.926,0,1,1-4.2,1.722A5.931,5.931,0,0,1,103.4,34.289Zm0,0" transform="translate(-59.302 -34.203)"/><path class="c" d="M35.34,34.07a5.928,5.928,0,1,1-4.2,1.723A5.93,5.93,0,0,1,35.34,34.07Zm0,0" transform="translate(-17.885 -34.07)"/></g><path class="b" d="M128.467,209.666a2.73,2.73,0,0,1-1.775-.653l-17.729-15.1a2.741,2.741,0,0,1,0-4.173l17.729-15.1a2.741,2.741,0,0,1,3.554,4.173l-15.277,13.011,15.279,13.013a2.739,2.739,0,0,1-1.778,4.826Zm0,0" transform="translate(-65.723 -105.88)"/><path class="b" d="M245.45,209.666a2.739,2.739,0,0,1-1.778-4.826l15.277-13.013L243.67,178.816a2.741,2.741,0,0,1,3.554-4.173l17.729,15.1a2.741,2.741,0,0,1,0,4.173l-17.729,15.1A2.734,2.734,0,0,1,245.45,209.666Zm0,0" transform="translate(-147.698 -105.88)"/><path class="b" d="M184.7,203.972a2.743,2.743,0,0,1-2.685-3.306L193.07,148.2a2.74,2.74,0,0,1,5.363,1.13L187.381,201.8A2.741,2.741,0,0,1,184.7,203.972Zm0,0" transform="translate(-110.731 -88.86)"/></g></g></svg>