<svg xmlns="http://www.w3.org/2000/svg" xmlns:xlink="http://www.w3.org/1999/xlink" width="283.187" height="276.872" viewBox="0 0 283.187 276.872"><defs><style>.a{opacity:0.215;fill:url(#a);}.b{fill:#ebebeb;}.c{fill:#fff;}.d{fill:#df602a;}</style><linearGradient id="a" x1="0.099" y1="0.905" x2="0.776" y2="0.123" gradientUnits="objectBoundingBox"><stop offset="0" stop-color="#fff"/><stop offset="1" stop-color="#eaeaea"/></linearGradient></defs><g transform="translate(-1272 -1615.498)"><path class="a" d="M1307.743,191.773c-16.473-9.211-34.9-6.064-52.538-3.1-6.834,1.149-13.862,2.819-20.834,2.827-2.547,0-5.154.34-7.33-1.194-3.578-2.524-2.076-8.789-1.691-12.284,1.011-9.164,2.233-19.071-3.523-27.011-7.181-9.905-22.3-9.3-33.093-7.163-8.123,1.607-15.811,5.273-23.123,8.979a139.825,139.825,0,0,0-43.6,35.014A85.179,85.179,0,0,0,1111,204.371c-5.434,11.011-9.3,24.1,3.654,31.722a39.839,39.839,0,0,0,11.067,4.066c6.963,1.68,14.2,2.493,20.667,5.753,1.532.773,3.147,1.537,3.876,3.206,2.464,5.646-8.754,14.091-12.216,17.248-6.318,5.759-13.09,11.329-16.97,19a19.893,19.893,0,0,0-1.163,14.025,28.13,28.13,0,0,0,16.231,18.764c48.409,21.056,112.048.108,151.567-40.253,17.183-17.549,27.389-35.236,30.6-43.517C1324.371,218.731,1324.061,200.9,1307.743,191.773Z" transform="matrix(-0.799, -0.602, 0.602, -0.799, 2241.951, 2671.787)"/><g transform="translate(1334 1672.169)"><path class="b" d="M194.105,408.848a8.267,8.267,0,0,0,8.268,8.268H213.4a8.268,8.268,0,0,0,8.268-8.268V392.313h-27.56Zm0,0" transform="translate(-127.237 -257.196)"/><path class="c" d="M53.881,226.084a49.758,49.758,0,0,1-6.79-5.258A13.758,13.758,0,1,1,33.8,203.6c.421,0,.826.087,1.229.124a49.575,49.575,0,0,1-3.958-19.416H27.56l-1.9,9.058a2.756,2.756,0,0,1-4.26,1.7l-7.615-5.25-8.268,8.268,5.236,7.614a2.756,2.756,0,0,1-1.7,4.26L0,211.872V222.9l9.056,1.9a2.755,2.755,0,0,1,1.7,4.26l-5.247,7.615,8.268,8.268,7.615-5.237a2.757,2.757,0,0,1,4.263,1.7l1.9,9.046H38.583l1.9-9.059a2.757,2.757,0,0,1,4.263-1.7l7.615,5.251,8.651-8.651A16.05,16.05,0,0,0,53.881,226.084Zm0,0" transform="translate(0 -120.851)"/><path class="d" d="M189.309,89.919a49.608,49.608,0,1,0-76.374,41.771,15.8,15.8,0,0,1,7.475,13.235v11.137a8.267,8.267,0,0,0,8.268,8.268h22.048a8.268,8.268,0,0,0,8.268-8.268V145.154a16.236,16.236,0,0,1,7.634-13.566A49.565,49.565,0,0,0,189.309,89.919Zm0,0" transform="translate(-59.053 -26.457)"/><path class="c" d="M282.283,39.788l8.665-6.5L281.026,20.06l-8.665,6.5A5.512,5.512,0,0,1,263.6,21.37l1.53-10.718-16.37-2.339-1.53,10.717a5.511,5.511,0,0,1-9.865,2.53l-6.5-8.665-13.228,9.922,6.5,8.665a5.512,5.512,0,0,1-5.189,8.762l-10.718-1.53-2.34,16.37,10.721,1.53a5.512,5.512,0,0,1,2.527,9.867l-8.662,6.5,9.922,13.228,8.662-6.5a5.512,5.512,0,0,1,8.764,5.189l-1.543,10.716,16.37,2.34,1.543-10.721a5.512,5.512,0,0,1,9.865-2.527l6.5,8.662,13.228-9.922-6.5-8.662a5.511,5.511,0,0,1,5.189-8.763l10.718,1.531,2.34-16.37-10.718-1.531a5.512,5.512,0,0,1-2.53-9.864ZM250.71,72.424A19.292,19.292,0,1,1,270,53.132,19.291,19.291,0,0,1,250.71,72.424Zm0,0" transform="translate(-134.96 -5.482)"/><path class="d" d="M194.105,416.313h27.56v5.512h-27.56Zm0,0" transform="translate(-127.237 -272.928)"/></g></g></svg>