<svg xmlns="http://www.w3.org/2000/svg" xmlns:xlink="http://www.w3.org/1999/xlink" width="279.871" height="268.893" viewBox="0 0 279.871 268.893"><defs><style>.a{opacity:0.215;fill:url(#a);}.b{fill:#df602a;}.c{fill:#fff;}.d{fill:#eaeaea;}.e{fill:#976048;}</style><linearGradient id="a" x1="0.099" y1="0.905" x2="0.776" y2="0.123" gradientUnits="objectBoundingBox"><stop offset="0" stop-color="#fff"/><stop offset="1" stop-color="#eaeaea"/></linearGradient></defs><g transform="translate(-369 -1619.272)"><path class="a" d="M1307.743,191.773c-16.473-9.211-34.9-6.064-52.538-3.1-6.834,1.149-13.862,2.819-20.834,2.827-2.547,0-5.154.34-7.33-1.194-3.578-2.524-2.076-8.789-1.691-12.284,1.011-9.164,2.233-19.071-3.523-27.011-7.181-9.905-22.3-9.3-33.093-7.163-8.123,1.607-15.811,5.273-23.123,8.979a139.825,139.825,0,0,0-43.6,35.014A85.179,85.179,0,0,0,1111,204.371c-5.434,11.011-9.3,24.1,3.654,31.722a39.839,39.839,0,0,0,11.067,4.066c6.963,1.68,14.2,2.493,20.667,5.753,1.532.773,3.147,1.537,3.876,3.206,2.464,5.646-8.754,14.091-12.216,17.248-6.318,5.759-13.09,11.329-16.97,19a19.893,19.893,0,0,0-1.163,14.025,28.13,28.13,0,0,0,16.231,18.764c48.409,21.056,112.048.108,151.567-40.253,17.183-17.549,27.389-35.236,30.6-43.517C1324.371,218.731,1324.061,200.9,1307.743,191.773Z" transform="translate(1428.696 2579.956) rotate(-149)"/><g transform="translate(401 1647.432)"><path class="b" d="M237.791,405.791H192l5.724-34.343V360h34.343v11.448Z" transform="translate(-107.899 -215.821)"/><rect class="b" width="166" height="132" rx="16" transform="translate(24.43 23.568)"/><path class="b" d="M29.724,24H184.269a5.724,5.724,0,0,1,5.724,5.724V46.9H24V29.724A5.724,5.724,0,0,1,29.724,24Z" transform="translate(0 -0.023)"/><path class="b" d="M225.825,477.724H162.862a2.862,2.862,0,1,1,0-5.724h62.963a2.862,2.862,0,0,1,0,5.724Z" transform="translate(-87.347 -287.754)"/><path class="c" d="M246.31,341.724H234.862a2.862,2.862,0,1,1,0-5.724H246.31a2.862,2.862,0,0,1,0,5.724Z" transform="translate(-133.59 -200.407)"/><circle class="c" cx="3" cy="3" r="3" transform="translate(32.43 32.568)"/><circle class="c" cx="3" cy="3" r="3" transform="translate(44.43 32.568)"/><ellipse class="c" cx="2.5" cy="3" rx="2.5" ry="3" transform="translate(55.43 32.568)"/><path class="c" d="M24,88H189.993v80.134H24Z" transform="translate(0 -41.127)"/><g transform="translate(32.586 55.459)"><path class="d" d="M104.586,117.724H98.862a2.862,2.862,0,0,1,0-5.724h5.724a2.862,2.862,0,0,1,0,5.724Z" transform="translate(-78.828 -112)"/><path class="d" d="M152.586,117.724h-5.724a2.862,2.862,0,1,1,0-5.724h5.724a2.862,2.862,0,1,1,0,5.724Z" transform="translate(-109.657 -112)"/><path class="d" d="M104.586,277.724H98.862a2.862,2.862,0,0,1,0-5.724h5.724a2.862,2.862,0,0,1,0,5.724Z" transform="translate(-78.828 -214.761)"/><path class="d" d="M152.586,277.724h-5.724a2.862,2.862,0,0,1,0-5.724h5.724a2.862,2.862,0,1,1,0,5.724Z" transform="translate(-109.657 -214.761)"/><path class="d" d="M210.862,171.448A2.862,2.862,0,0,1,208,168.586v-5.724a2.862,2.862,0,1,1,5.724,0v5.724A2.862,2.862,0,0,1,210.862,171.448Z" transform="translate(-150.761 -142.828)"/><path class="d" d="M210.862,219.448A2.862,2.862,0,0,1,208,216.586v-5.724a2.862,2.862,0,1,1,5.724,0v5.724A2.862,2.862,0,0,1,210.862,219.448Z" transform="translate(-150.761 -173.657)"/><path class="d" d="M50.862,171.448A2.862,2.862,0,0,1,48,168.586v-5.724a2.862,2.862,0,0,1,5.724,0v5.724A2.862,2.862,0,0,1,50.862,171.448Z" transform="translate(-48 -142.828)"/><path class="d" d="M50.862,219.448A2.862,2.862,0,0,1,48,216.586v-5.724a2.862,2.862,0,0,1,5.724,0v5.724A2.862,2.862,0,0,1,50.862,219.448Z" transform="translate(-48 -173.657)"/><path class="d" d="M56.586,112H50.862A2.862,2.862,0,0,0,48,114.862v5.724a2.862,2.862,0,0,0,5.724,0v-2.862h2.862a2.862,2.862,0,1,0,0-5.724Z" transform="translate(-48 -112)"/><path class="d" d="M56.586,261.724H53.724v-2.862a2.862,2.862,0,1,0-5.724,0v5.724a2.862,2.862,0,0,0,2.862,2.862h5.724a2.862,2.862,0,1,0,0-5.724Z" transform="translate(-48 -204.485)"/><path class="d" d="M200.586,112h-5.724a2.862,2.862,0,1,0,0,5.724h2.862v2.862a2.862,2.862,0,1,0,5.724,0v-5.724A2.862,2.862,0,0,0,200.586,112Z" transform="translate(-140.485 -112)"/><path class="d" d="M200.586,256a2.862,2.862,0,0,0-2.862,2.862v2.862h-2.862a2.862,2.862,0,1,0,0,5.724h5.724a2.862,2.862,0,0,0,2.862-2.862v-5.724A2.862,2.862,0,0,0,200.586,256Z" transform="translate(-140.485 -204.485)"/></g><path class="b" d="M88,152h34.343v34.343H88Z" transform="translate(-41.104 -82.232)"/><path class="d" d="M260.034,197.724H242.862a2.862,2.862,0,1,1,0-5.724h17.172a2.862,2.862,0,1,1,0,5.724Z" transform="translate(-138.728 -107.922)"/><path class="d" d="M368.653,197.724H322.862a2.862,2.862,0,1,1,0-5.724h45.791a2.862,2.862,0,1,1,0,5.724Z" transform="translate(-190.108 -107.922)"/><path class="d" d="M378.929,229.724H338.862a2.862,2.862,0,1,1,0-5.724h40.067a2.862,2.862,0,0,1,0,5.724Z" transform="translate(-200.384 -128.474)"/><path class="c" d="M0,0H11.448V67.094A5.724,5.724,0,0,1,0,67.094V0Z" transform="translate(131.542 133.921) rotate(-45)"/><path class="c" d="M0,0H11.448V33.793H0Z" transform="translate(118.667 121.04) rotate(-45)"/><path class="b" d="M248,120h74.41v17.172H248Z" transform="translate(-143.866 -61.679)"/><path class="e" d="M248,232l4.495,19.477a11.448,11.448,0,0,0,8.378,8.532l9.388,2.347,8.1-8.095-2.347-9.388a11.448,11.448,0,0,0-8.532-8.378Z" transform="translate(-143.866 -133.612)"/></g></g></svg>