<svg xmlns="http://www.w3.org/2000/svg" xmlns:xlink="http://www.w3.org/1999/xlink" width="280.638" height="270.43" viewBox="0 0 280.638 270.43"><defs><style>.a{opacity:0.215;fill:url(#a);}.b{fill:#df602a;}.c{fill:#fff;}</style><linearGradient id="a" x1="0.099" y1="0.905" x2="0.776" y2="0.123" gradientUnits="objectBoundingBox"><stop offset="0" stop-color="#fff"/><stop offset="1" stop-color="#eaeaea"/></linearGradient></defs><g transform="translate(-961 -1618.455)"><path class="a" d="M1307.743,191.773c-16.473-9.211-34.9-6.064-52.538-3.1-6.834,1.149-13.862,2.819-20.834,2.827-2.547,0-5.154.34-7.33-1.194-3.578-2.524-2.076-8.789-1.691-12.284,1.011-9.164,2.233-19.071-3.523-27.011-7.181-9.905-22.3-9.3-33.093-7.163-8.123,1.607-15.811,5.273-23.123,8.979a139.825,139.825,0,0,0-43.6,35.014A85.179,85.179,0,0,0,1111,204.371c-5.434,11.011-9.3,24.1,3.654,31.722a39.839,39.839,0,0,0,11.067,4.066c6.963,1.68,14.2,2.493,20.667,5.753,1.532.773,3.147,1.537,3.876,3.206,2.464,5.646-8.754,14.091-12.216,17.248-6.318,5.759-13.09,11.329-16.97,19a19.893,19.893,0,0,0-1.163,14.025,28.13,28.13,0,0,0,16.231,18.764c48.409,21.056,112.048.108,151.567-40.253,17.183-17.549,27.389-35.236,30.6-43.517C1324.371,218.731,1324.061,200.9,1307.743,191.773Z" transform="translate(2006.52 2595.833) rotate(-148)"/><g transform="translate(1011.013 1662.795)"><ellipse class="b" cx="23.398" cy="5.849" rx="23.398" ry="5.849" transform="translate(83.917 66.344)"/><path class="b" d="M30,38.7c0,1.492,8.043,5.849,23.4,5.849S76.8,40.19,76.8,38.7V28.52a55.178,55.178,0,0,1-23.4,4.329A55.178,55.178,0,0,1,30,28.52Z" transform="translate(53.917 51.043)"/><path class="b" d="M30,44.7c0,1.492,8.043,5.849,23.4,5.849S76.8,46.19,76.8,44.7V34.52a55.178,55.178,0,0,1-23.4,4.329A55.178,55.178,0,0,1,30,34.52Z" transform="translate(53.917 62.592)"/><path class="b" d="M30,50.7c0,1.492,8.043,5.849,23.4,5.849S76.8,52.19,76.8,50.7V40.52a55.178,55.178,0,0,1-23.4,4.329A55.178,55.178,0,0,1,30,40.52Z" transform="translate(53.917 74.14)"/><circle class="b" cx="5.849" cy="5.849" r="5.849" transform="translate(69.293 42.946)"/><path class="c" d="M151.16,37.1h-6.025a26.255,26.255,0,0,0-41.472-18.426A43.818,43.818,0,0,0,26.3,37.213a26.3,26.3,0,0,0,2.018,52.528h49.72V72.193c0-7.487,13.132-11.172,26.322-11.64V54.645a2.925,2.925,0,0,0-2.925-2.925H86.407a11.7,11.7,0,1,1,0-5.849H101.44a8.8,8.8,0,0,1,8.774,8.774v5.908c13.19.468,26.322,4.153,26.322,11.64h5.849v-11.7a2.925,2.925,0,0,1,2.925-2.925h5.849v5.849h-2.925v11.7a2.925,2.925,0,0,1-2.925,2.925h-8.774v11.7H151.16a26.322,26.322,0,1,0,0-52.645Zm11.7,26.322h-5.849V57.57h5.849Z" transform="translate(0.025 0)"/><path class="b" d="M89.645,77.247a11.678,11.678,0,0,1-22.988,2.925H39.925A2.925,2.925,0,0,1,37,77.247V48h5.849V74.322H66.657a11.678,11.678,0,0,1,22.988,2.925Z" transform="translate(67.39 88.537)"/><path class="b" d="M78.068,36v5.849H63.444a8.8,8.8,0,0,0-8.774,8.774V88.645a14.624,14.624,0,0,1-14.624,14.624H25.013a11.7,11.7,0,1,1,0-5.849H40.046a8.8,8.8,0,0,0,8.774-8.774V50.624A14.624,14.624,0,0,1,63.444,36Z" transform="translate(0 65.44)"/><path class="b" d="M65.548,48.774A8.774,8.774,0,0,0,56.774,40H48v5.849h8.774A2.925,2.925,0,0,1,59.7,48.774v23.4A2.925,2.925,0,0,0,62.624,75.1H77.247V69.247h-11.7Z" transform="translate(88.562 73.139)"/><path class="b" d="M36.774,85.021H28v5.849H39.7a2.925,2.925,0,0,0,2.925-2.925V47H36.774Z" transform="translate(50.068 86.612)"/><path class="b" d="M60,50h5.849v5.849H60Z" transform="translate(111.658 92.386)"/><path class="b" d="M24,60h5.849v5.849H24Z" transform="translate(42.369 111.633)"/></g></g></svg>